<svg id="_1" data-name="1" xmlns="http://www.w3.org/2000/svg" viewBox="0 0 360 250"><title>1</title><path d="M222.188,17.567c12.987,7.855,16.356,29.293,9.246,58.818a203.024,203.024,0,0,1-10.283,30.822q2.542.56,5.024,1.2c2.044-4.789,3.935-9.569,5.632-14.326,2.156-6.048,4-12.016,5.483-17.737a158.5,158.5,0,0,0,3.35-16.207l.586.087-.586-.088a102.865,102.865,0,0,0,1.217-18.572c-.248-7.208-1.473-13.37-3.642-18.317a23.439,23.439,0,0,0-9.195-11.025,19.916,19.916,0,0,0-1.8-.961l.254-.536-.255.535C222.48,9,216.777,8.531,210.268,9.846c-11.819,2.392-25.62,10.473-39.779,22.918,13.856-11.186,27.236-17.778,38.306-18.3A23.357,23.357,0,0,1,222.188,17.567Z" style="fill:none"/><polygon points="98.049 226.203 98.102 226.21 98.387 225.716 98.049 226.203" style="fill:none"/><path d="M121.423,93.141l-.009.015-.53.891-.007.011h0q-1.029,1.72-2.022,3.441l-.429.742c-.216.374-.421.747-.636,1.12-29.834,52.466-36.634,103.487-15.436,116.311,6.489,3.925,15.045,3.954,25.091.179a25.237,25.237,0,0,1-4.673.478,16.371,16.371,0,0,1-8.62-2.239c-9.011-5.45-11.646-20.12-7.418-41.308,4.189-20.989,14.6-45.952,29.325-70.289,30.487-50.4,70.264-82.348,88.673-71.21,5.314,3.214,8.39,9.658,9.169,18.734.2-15.373-3.98-26.387-12.326-31.435a22.111,22.111,0,0,0-12.725-2.931c-21.37,1-51.625,25.168-77.083,61.567v0h0l0,.007-.077.11c-1.027,1.483-2.055,2.965-3.068,4.486h0l-.021.032h0l-.046.067h0l0,0,0,0v0h0l-.01.012,0,0c-2.415,3.633-4.805,7.394-7.1,11.18l-.009.015h0l0,0h0Z" style="fill:none"/><path d="M181.188,196.257c-4.314,4.693-8.731,9.122-13.129,13.165A173.71,173.71,0,0,1,154.6,220.644a119.134,119.134,0,0,1-16,10.2,64.78,64.78,0,0,1-18.621,6.692,38.588,38.588,0,0,1-6.585.593,26.335,26.335,0,0,1-13.883-3.642c-.2-.117-.384-.246-.573-.376l-.264-.178c-5.236-3.477-9.059-8.956-11.4-16.3a16.111,16.111,0,0,0,.165,4.091c2.595,8.459,6.986,14.61,13.051,18.28a26.189,26.189,0,0,0,8.776,3.294c10.115,1.889,22.824-1.4,36.757-9.506a137.446,137.446,0,0,0,15.662-10.747c4.481-3.524,9.029-7.48,13.518-11.757,4.287-4.086,8.6-8.542,12.814-13.244,2.176-2.427,4.314-4.936,6.433-7.483q-2.355-2-4.659-4.181Q185.563,191.481,181.188,196.257Z" style="fill:none"/><path d="M111.339,230.711a23.751,23.751,0,0,1-12.506-3.274c-.087-.053-.169-.115-.255-.17a14.956,14.956,0,0,0,.929,5.8l.1.071c.17.116.339.232.515.339,5.088,3.077,11.3,4.087,18.471,3.058a18.6,18.6,0,0,1-4.016-6C113.477,230.647,112.393,230.711,111.339,230.711Z" style="fill:none"/><path d="M97.428,226.473c-4.037-2.9-7.1-7.229-9.128-12.866a12.633,12.633,0,0,0-.539,1.449c1.969,7.464,5.379,13.1,10.126,16.816A15.267,15.267,0,0,1,97.428,226.473Z" style="fill:none"/><path d="M84.838,204.374a73.029,73.029,0,0,0,1.345,12.312,13.91,13.91,0,0,1,.348-1.644A62.087,62.087,0,0,1,84.838,204.374Z" style="fill:none"/><path d="M132.7,224.85a55.137,55.137,0,0,1-16.9,5.539,18.038,18.038,0,0,0,4.269,5.926,63.127,63.127,0,0,0,17.223-6.136A28.369,28.369,0,0,1,132.7,224.85Z" style="fill:none"/><path d="M98.387,225.716c.4.279.724.5,1.06.706,4.285,2.594,9.482,3.566,15.451,2.9a53.546,53.546,0,0,0,17.739-5.754,106.523,106.523,0,0,0,15.373-9.631,161.279,161.279,0,0,0,12.789-10.61c4.369-4,8.78-8.428,13.108-13.156q4.681-5.114,9.194-10.637-1.72-1.9-3.4-3.9a193.356,193.356,0,0,1-21.587,22.533l-.312-.357h0l.311.357a96.677,96.677,0,0,1-19.983,13.917c-9.081,5.157-17.317,7.754-24.393,7.754a22.786,22.786,0,0,1-12-3.152c-13.8-8.349-16.18-32.227-8.375-62.111-7.167,23.561-8.76,43.708-4.41,57.335C90.932,218.1,94.105,222.744,98.387,225.716Z" style="fill:none"/><path d="M227.333,108.715c2.422.651,4.779,1.378,7.093,2.151q2.754-6.486,5.1-12.946a24.611,24.611,0,0,0-6.8-2.925Q230.276,101.832,227.333,108.715Z" style="fill:none"/><rect x="198.485" y="104.558" height="0.002" style="fill:none"/><path d="M239.1,22.346a16.936,16.936,0,0,1,8.412.706c-2.42-6.71-6.172-11.67-11.2-14.71-.236-.143-.476-.277-.716-.41A13.1,13.1,0,0,0,228.55,10.6c.374.2.737.4,1.084.607A24.43,24.43,0,0,1,239.1,22.346Z" style="fill:none"/><polygon points="166.868 156.826 166.87 156.825 166.869 156.825 166.868 156.826" style="fill:none"/><path d="M178.762,174.508a158.908,158.908,0,0,1-12.4-17.371l.006,0,0,0,0,0a173.464,173.464,0,0,1-11.449-21.818c-4.334-9.927-7.254-19.344-8.012-25.837l.589-.069h0l-.212-.553c6.1-2.343,15.8-4.128,26.6-4.9a173.329,173.329,0,0,1,24.639.011v.009h0v-.009a158.973,158.973,0,0,1,21.406,2.968c15.188-35.993,17.717-66.454,4.186-74.64-17.852-10.8-56.9,20.968-87.045,70.809-14.653,24.223-25.014,49.05-29.177,69.909-4.123,20.661-1.684,34.888,6.868,40.061,5.509,3.332,13.393,2.628,22.8-2.033C150.919,203.457,165.276,190.607,178.762,174.508Z" style="fill:none"/><path d="M233.136,93.863a25.883,25.883,0,0,1,6.807,2.907c1.991-5.567,3.741-11.112,5.208-16.5a26.645,26.645,0,0,0-6.873-3.035C236.865,82.612,235.137,88.2,233.136,93.863Z" style="fill:none"/><path d="M239.581,23.465a51.791,51.791,0,0,1,3.434,17.523,25.662,25.662,0,0,1,7.629,1.758A62.807,62.807,0,0,0,248.022,24.5,16.246,16.246,0,0,0,239.581,23.465Z" style="fill:none"/><path d="M238.576,76.084a27.71,27.71,0,0,1,6.891,2.994c1.439-5.431,2.6-10.734,3.44-15.783a29.582,29.582,0,0,0-7.2-2.366C240.964,65.767,239.913,70.857,238.576,76.084Z" style="fill:none"/><path d="M241.889,59.756a30.824,30.824,0,0,1,7.209,2.325,118.111,118.111,0,0,0,1.552-18.037,24.322,24.322,0,0,0-7.593-1.849A104.414,104.414,0,0,1,241.889,59.756Z" style="fill:none"/><polygon points="245.762 115.965 245.78 115.926 245.766 115.937 245.757 115.959 245.762 115.965" style="fill:none"/><polygon points="245.709 115.941 245.724 115.938 245.719 115.919 245.709 115.941 245.709 115.941" style="fill:none"/><path d="M236.008,6.8l-.284.521.284-.52c.308.168.616.341.919.525,5.57,3.368,9.655,8.931,12.14,16.531a64.487,64.487,0,0,1,2.778,19.783,119.784,119.784,0,0,1-1.689,19.4l-.585-.095.585.1c-.894,5.453-2.152,11.206-3.739,17.1-1.558,5.781-3.442,11.744-5.6,17.722q-2.409,6.671-5.26,13.378c1.913.66,3.8,1.35,5.625,2.091,1.448-3.482,2.833-6.964,4.109-10.437,2.175-5.922,4.094-11.851,5.7-17.622,1.683-6.04,3.038-11.957,4.028-17.588a132.463,132.463,0,0,0,2.03-19.144,78.506,78.506,0,0,0-1.634-19.3c-1.921-8.49-5.438-15.03-10.457-19.441a25.407,25.407,0,0,0-3.607-2.648c-5.425-3.281-12.076-4.39-19.6-3.435A27.153,27.153,0,0,1,236.008,6.8Z" style="fill:none"/><polygon points="198.9 193.401 198.895 193.436 198.919 193.404 198.9 193.401" style="fill:none"/><polygon points="278.868 146.109 278.868 146.109 278.877 146.105 278.872 146.103 278.87 146.106 278.868 146.109" style="fill:none"/><polygon points="240.969 208.741 240.959 208.736 240.96 208.756 240.969 208.741" style="fill:none"/><polygon points="198.856 193.39 198.856 193.39 198.872 193.369 198.856 193.39" style="fill:none"/><path d="M85.987,203.79a63.682,63.682,0,0,0,1.3,9.205c.147-.324.3-.645.476-.962A50.25,50.25,0,0,1,85.987,203.79Z" style="fill:none"/><path d="M211.833,6.567a76.644,76.644,0,0,0-18.125,8.063h0c-.78.477-1.565.987-2.35,1.491a64.846,64.846,0,0,1,18.449-7.386A12.392,12.392,0,0,1,211.833,6.567Z" style="fill:none"/><path d="M183.909,180.421q-4.3,5.25-8.763,10.14a24.223,24.223,0,0,0,5.5,4.525q4.212-4.6,8.29-9.516Q186.381,183.1,183.909,180.421Z" style="fill:none"/><path d="M211.606,8.416c5.958-.964,11.254-.425,15.764,1.621a13.452,13.452,0,0,1,6.336-3.027c-5.2-2.3-11.377-2.742-18.407-1.3A13.058,13.058,0,0,0,211.606,8.416Z" style="fill:none"/><path d="M174.345,191.438c-4.066,4.416-8.2,8.563-12.3,12.345a26.218,26.218,0,0,0,5.542,4.456c4.1-3.787,8.214-7.91,12.244-12.268A25.336,25.336,0,0,1,174.345,191.438Z" style="fill:none"/><path d="M161.171,204.584c-4.009,3.648-8.026,6.981-11.96,9.925a28.444,28.444,0,0,0,5.041,4.909c4.1-3.087,8.278-6.567,12.428-10.352A27.25,27.25,0,0,1,161.171,204.584Z" style="fill:none"/><path d="M148.261,215.219a108.2,108.2,0,0,1-14.488,9.093,27.566,27.566,0,0,0,4.645,5.29,117.436,117.436,0,0,0,14.851-9.45A29.713,29.713,0,0,1,148.261,215.219Z" style="fill:none"/><path d="M188.022,198.051c-4.215,4.7-8.527,9.158-12.814,13.244-4.489,4.277-9.037,8.233-13.518,11.757A137.446,137.446,0,0,1,146.028,233.8c-13.933,8.107-26.642,11.395-36.757,9.506a26.189,26.189,0,0,1-8.776-3.294c-6.065-3.67-10.456-9.821-13.051-18.28a16.111,16.111,0,0,1-.165-4.091c2.338,7.342,6.161,12.821,11.4,16.3l.264.178c.189.13.377.259.573.376a26.335,26.335,0,0,0,13.883,3.642,38.588,38.588,0,0,0,6.585-.593,64.78,64.78,0,0,0,18.621-6.692,119.134,119.134,0,0,0,16-10.2,173.71,173.71,0,0,0,13.456-11.222c4.4-4.043,8.815-8.472,13.129-13.165q4.377-4.763,8.608-9.87c-.288-.272-.576-.541-.862-.817q-4.077,4.909-8.29,9.516a24.223,24.223,0,0,1-5.5-4.525q4.457-4.889,8.763-10.14c-.111-.12-.223-.236-.333-.357-.159-.174-.316-.356-.475-.532q-4.513,5.514-9.194,10.637c-4.328,4.728-8.739,9.154-13.108,13.156a161.279,161.279,0,0,1-12.789,10.61,106.523,106.523,0,0,1-15.373,9.631A53.546,53.546,0,0,1,114.9,229.32c-5.969.668-11.166-.3-15.451-2.9-.336-.2-.657-.427-1.06-.706l-.285.494-.053-.007.338-.487c-4.282-2.972-7.455-7.617-9.431-13.806-4.35-13.627-2.757-33.774,4.41-57.335-7.8,29.884-5.427,53.762,8.375,62.111a22.786,22.786,0,0,0,12,3.152c7.076,0,15.312-2.6,24.393-7.754a96.677,96.677,0,0,0,19.983-13.917l-.311-.357h0l.312.357A193.356,193.356,0,0,0,179.7,175.634l-.173-.2c-.2-.24-.4-.475-.6-.716l-.165-.206c-13.486,16.1-27.843,28.949-41.2,36.535-9.407,4.661-17.291,5.365-22.8,2.033-8.552-5.173-10.991-19.4-6.868-40.061,4.163-20.859,14.524-45.686,29.177-69.909C167.222,53.265,206.267,21.5,224.119,32.3c13.531,8.186,11,38.647-4.186,74.64l.043.008c.385.082.764.172,1.147.256l.028.006a203.024,203.024,0,0,0,10.283-30.822c7.11-29.525,3.741-50.963-9.246-58.818a23.357,23.357,0,0,0-13.393-3.1c-11.07.52-24.45,7.112-38.306,18.3,14.159-12.445,27.96-20.526,39.779-22.918,6.509-1.315,12.212-.842,16.955,1.413l.255-.535-.254.536a19.916,19.916,0,0,1,1.8.961,23.439,23.439,0,0,1,9.195,11.025c2.169,4.947,3.394,11.109,3.642,18.317a102.865,102.865,0,0,1-1.217,18.572l.586.088-.586-.087a158.5,158.5,0,0,1-3.35,16.207c-1.482,5.721-3.327,11.689-5.483,17.737-1.7,4.757-3.588,9.537-5.632,14.326.215.056.434.106.648.163.173.045.338.1.51.146q2.931-6.879,5.4-13.72a24.611,24.611,0,0,1,6.8,2.925q-2.346,6.456-5.1,12.946c.376.125.756.247,1.13.376q2.842-6.7,5.26-13.378c2.159-5.978,4.043-11.941,5.6-17.722,1.587-5.893,2.845-11.646,3.739-17.1l-.585-.1.585.095a119.784,119.784,0,0,0,1.689-19.4,64.487,64.487,0,0,0-2.778-19.783c-2.485-7.6-6.57-13.163-12.14-16.531-.3-.184-.611-.357-.919-.525l-.284.52.284-.521a27.153,27.153,0,0,0-14.26-3.082c7.527-.955,14.178.154,19.6,3.435A25.407,25.407,0,0,1,244.958,9.8c5.019,4.411,8.536,10.951,10.457,19.441a78.506,78.506,0,0,1,1.634,19.3,132.463,132.463,0,0,1-2.03,19.144c-.99,5.631-2.345,11.548-4.028,17.588-1.607,5.771-3.526,11.7-5.7,17.622-1.276,3.473-2.661,6.955-4.109,10.437.369.15.726.309,1.092.462,1.456-3.5,2.848-7,4.13-10.49,2.186-5.952,4.115-11.911,5.731-17.712,1.693-6.077,3.056-12.033,4.053-17.7v0l.14-.077a1.851,1.851,0,0,0-.1-.158,133.141,133.141,0,0,0,2.01-19.077,79.619,79.619,0,0,0-1.663-19.593c-1.976-8.738-5.621-15.49-10.83-20.069a26.568,26.568,0,0,0-3.777-2.773c-11.873-7.181-29.23-4.526-48.875,7.479l-.01.006c-24.717,14.657-51.116,43.267-72.429,78.5h0l0,.007,0,0-.134.224h0l-.022.036h0l-.021.035h0v0h0l-.232.383h0v0l0,0-.046.079h0C90.577,141.839,77.274,192.53,86.3,222.035c2.682,8.77,7.252,15.158,13.586,18.989a27.339,27.339,0,0,0,9.172,3.447l.015,0v0a32.8,32.8,0,0,0,6.017.536c9.215,0,19.982-3.461,31.539-10.185a138.583,138.583,0,0,0,15.8-10.841c4.511-3.546,9.087-7.527,13.6-11.831,4.3-4.1,8.626-8.566,12.854-13.282l.01-.012.015-.016c2.185-2.438,4.333-4.957,6.461-7.516-.3-.251-.608-.5-.911-.758C192.336,193.115,190.2,195.624,188.022,198.051Zm-13.677-6.613a25.336,25.336,0,0,0,5.485,4.533c-4.03,4.358-8.144,8.481-12.244,12.268a26.218,26.218,0,0,1-5.542-4.456C166.147,200,170.279,195.854,174.345,191.438Zm-13.174,13.146a27.25,27.25,0,0,0,5.509,4.482c-4.15,3.785-8.324,7.265-12.428,10.352a28.444,28.444,0,0,1-5.041-4.909C153.145,211.565,157.162,208.232,161.171,204.584Zm-12.91,10.635a29.713,29.713,0,0,0,5.008,4.933,117.436,117.436,0,0,1-14.851,9.45,27.566,27.566,0,0,1-4.645-5.29A108.2,108.2,0,0,0,148.261,215.219ZM132.7,224.85a28.369,28.369,0,0,0,4.59,5.329,63.127,63.127,0,0,1-17.223,6.136,18.038,18.038,0,0,1-4.269-5.926A55.137,55.137,0,0,0,132.7,224.85Zm-21.364,5.861c1.054,0,2.138-.064,3.242-.175a18.6,18.6,0,0,0,4.016,6c-7.166,1.029-13.383.019-18.471-3.058-.176-.107-.345-.223-.515-.339l-.1-.071a14.956,14.956,0,0,1-.929-5.8c.086.055.168.117.255.17A23.751,23.751,0,0,0,111.339,230.711Zm-13.911-4.238a15.267,15.267,0,0,0,.459,5.4c-4.747-3.716-8.157-9.352-10.126-16.816a12.633,12.633,0,0,1,.539-1.449C90.33,219.244,93.391,223.571,97.428,226.473Zm-9.669-14.44c-.172.317-.329.638-.476.962a63.682,63.682,0,0,1-1.3-9.205A50.25,50.25,0,0,0,87.759,212.033ZM208.85,15.651a22.111,22.111,0,0,1,12.725,2.931c8.346,5.048,12.531,16.062,12.326,31.435-.779-9.076-3.855-15.52-9.169-18.734-18.409-11.138-58.186,20.811-88.673,71.21-14.721,24.337-25.136,49.3-29.325,70.289-4.228,21.188-1.593,35.858,7.418,41.308a16.371,16.371,0,0,0,8.62,2.239,25.237,25.237,0,0,0,4.673-.478c-10.046,3.775-18.6,3.746-25.091-.179-21.2-12.824-14.4-63.845,15.436-116.311.215-.373.42-.746.636-1.12l.429-.742q1-1.72,2.022-3.441h0l.007-.011.53-.891.009-.015h0l0,0h0l.009-.015c2.3-3.786,4.687-7.547,7.1-11.18l0,0,.01-.012v0l0,0,0,0,.046-.067h0l.021-.032h0c1.013-1.521,2.041-3,3.068-4.486l.077-.11,0-.007h0v0C157.225,40.819,187.48,16.653,208.85,15.651ZM193.708,14.63h0a76.644,76.644,0,0,1,18.125-8.063,12.392,12.392,0,0,0-2.026,2.168,64.846,64.846,0,0,0-18.449,7.386C192.143,15.617,192.928,15.107,193.708,14.63Zm46.235,82.14a25.883,25.883,0,0,0-6.807-2.907c2-5.664,3.729-11.251,5.142-16.632a26.645,26.645,0,0,1,6.873,3.035C243.684,85.658,241.934,91.2,239.943,96.77Zm5.524-17.692a27.71,27.71,0,0,0-6.891-2.994c1.337-5.227,2.388-10.317,3.134-15.155a29.582,29.582,0,0,1,7.2,2.366C248.063,68.344,246.906,73.647,245.467,79.078Zm3.631-17a30.824,30.824,0,0,0-7.209-2.325A104.414,104.414,0,0,0,243.057,42.2a24.322,24.322,0,0,1,7.593,1.849A118.111,118.111,0,0,1,249.1,62.081Zm1.546-19.335a25.662,25.662,0,0,0-7.629-1.758,51.791,51.791,0,0,0-3.434-17.523,16.246,16.246,0,0,1,8.441,1.033A62.807,62.807,0,0,1,250.644,42.746Zm-14.332-34.4c5.027,3.04,8.779,8,11.2,14.71a16.936,16.936,0,0,0-8.412-.706,24.43,24.43,0,0,0-9.465-11.139c-.347-.211-.71-.411-1.084-.607A13.1,13.1,0,0,1,235.6,7.932C235.836,8.065,236.076,8.2,236.312,8.342ZM233.706,7.01a13.452,13.452,0,0,0-6.336,3.027c-4.51-2.046-9.806-2.585-15.764-1.621A13.058,13.058,0,0,1,215.3,5.71C222.329,4.268,228.507,4.714,233.706,7.01ZM86.531,215.042a13.91,13.91,0,0,0-.348,1.644,73.029,73.029,0,0,1-1.345-12.312A62.087,62.087,0,0,0,86.531,215.042Z" style="fill:#ffffff"/><path d="M274.692,184.967a47.626,47.626,0,0,0,6.31-17.1l-13.274-1.257Z" style="fill:#ffffff"/><polygon points="180.099 129.134 176.647 116.626 149.1 110.382 167.419 131.881 180.099 129.134" style="fill:#ffffff"/><polygon points="278.862 146.098 278.862 146.098 278.855 146.101 278.859 146.104 278.862 146.098" style="fill:#ffffff"/><polygon points="178.793 115.897 209.853 122.938 212.834 122.306 212.889 122.294 214.32 121.991 214.376 121.979 217.826 121.248 215.621 119.433 215.596 119.412 214.68 118.658 214.65 118.633 198.416 105.271 178.793 115.897" style="fill:#ffffff"/><path d="M155.811,134.4l10.293-2.23-17.727-20.8C149.41,117.5,152.057,125.724,155.811,134.4Z" style="fill:#ffffff"/><path d="M149.631,109.286l26.658,6.043-2.8-10.151C164.061,105.878,155.548,107.351,149.631,109.286Z" style="fill:#ffffff"/><path d="M166.594,133.272l-10.289,2.23a172.509,172.509,0,0,0,10,19.212Z" style="fill:#ffffff"/><polygon points="278.872 146.103 278.87 146.106 278.872 146.103 278.872 146.103" style="fill:#ffffff"/><polygon points="257.552 158.078 255.197 172.843 265.879 165.819 257.552 158.078" style="fill:#ffffff"/><path d="M174.694,105.1l2.8,10.148,18.856-10.21A172.139,172.139,0,0,0,174.694,105.1Z" style="fill:#ffffff"/><polygon points="192.732 167.028 193.898 167.439 197.129 168.58 194.935 166.004 194.143 165.075 190.802 161.153 190.725 161.063 190.262 160.519 190.501 161.372 190.542 161.518 192.019 166.776 192.732 167.028" style="fill:#ffffff"/><polygon points="198.484 104.56 198.483 104.562 198.484 104.563 198.484 104.562 198.484 104.56" style="fill:#ffffff"/><polygon points="278.063 146.297 261.069 136.017 257.776 156.668 266.745 165.005 278.063 146.297" style="fill:#ffffff"/><path d="M201.3,194.436a84.389,84.389,0,0,0,14.464,8.508c.825.376,1.642.712,2.467,1.046l3.542-5.855Z" style="fill:#ffffff"/><polygon points="198.904 193.374 198.904 193.374 198.926 193.367 198.928 193.353 198.916 193.357 198.904 193.374" style="fill:#ffffff"/><polygon points="245.72 115.974 245.717 115.977 245.717 115.981 245.72 115.974" style="fill:#ffffff"/><polygon points="187.66 155.637 180.53 130.253 168.291 132.904 187.66 155.637" style="fill:#ffffff"/><polygon points="147.493 109.409 147.493 109.41 147.493 109.41 147.493 109.41 147.493 109.409 147.493 109.409 147.493 109.409" style="fill:#ffffff"/><path d="M242.112,208.018a38.2,38.2,0,0,0,18.172-6.806L253,190.022Z" style="fill:#ffffff"/><path d="M260.561,134.01l3.542-5.855c-.681-.577-1.359-1.145-2.072-1.7a84.331,84.331,0,0,0-14.249-8.86Z" style="fill:#ffffff"/><path d="M277.473,144.555a50.892,50.892,0,0,0-12.464-15.609l-3.573,5.907Z" style="fill:#ffffff"/><polygon points="177.958 116.924 181.291 128.995 207.083 123.526 177.958 116.924" style="fill:#ffffff"/><path d="M261.25,200.522A47.323,47.323,0,0,0,273.468,187l-19.493,2.353Z" style="fill:#ffffff"/><path d="M219.351,204.426a50.8,50.8,0,0,0,19.612,3.794l-16.038-9.7Z" style="fill:#ffffff"/><polygon points="253.677 175.356 241.692 184.297 252.414 188.079 253.677 175.356" style="fill:#ffffff"/><polygon points="256.505 157.105 232.526 134.813 231.621 133.972 226.958 129.637 226.053 128.796 224.673 127.512 219.134 126.257 217.944 125.987 212.926 124.85 212.887 124.841 211.734 124.58 211.685 124.569 209.846 124.152 181.723 130.116 189.496 157.792 190.649 159.145 190.719 159.227 191.44 160.073 191.511 160.157 194.858 164.085 195.65 165.014 199.356 169.364 200.991 169.941 202.157 170.352 208.297 172.518 209.462 172.929 240.344 183.822 253.851 173.746 256.505 157.105" style="fill:#ffffff"/><polygon points="205.506 178.411 204.718 177.486 200.541 172.584 199.75 171.655 198.66 170.376 193.173 168.441 192.411 168.173 192.679 169.126 195.122 177.825 195.523 179.254 197.617 186.707 198.013 188.118 199.35 192.88 221.198 196.827 205.506 178.411" style="fill:#ffffff"/><polygon points="245.724 115.938 245.709 115.941 245.709 115.941 245.709 115.941 245.712 115.955 245.726 115.944 245.724 115.938" style="fill:#ffffff"/><path d="M220.688,108.318l-.039-.008c-.379-.083-.757-.169-1.139-.249l-.051-.01a156.706,156.706,0,0,0-19.134-2.744l14.847,12.22.038.032.91.749.032.026L219,120.679l6.536-10.806.213-.351-.054-.014Q223.224,108.872,220.688,108.318Z" style="fill:#ffffff"/><polygon points="198.9 193.401 198.919 193.404 198.919 193.404 198.923 193.384 198.901 193.391 198.9 193.401" style="fill:#ffffff"/><polygon points="166.869 156.825 166.87 156.825 166.87 156.825 166.87 156.825 166.869 156.824 166.869 156.825" style="fill:#ffffff"/><polygon points="240.653 117.619 239.223 117.923 231.887 119.478 230.434 119.786 221.394 121.703 220.393 121.916 221.006 122.485 225.247 126.427 227.031 126.832 228.221 127.101 234.362 128.493 235.55 128.763 259.135 134.109 245.498 116.592 240.653 117.619" style="fill:#ffffff"/><path d="M278.756,147.439l-10.886,18,13.294,1.258A38.181,38.181,0,0,0,278.756,147.439Z" style="fill:#ffffff"/><polygon points="254.961 174.417 253.594 188.201 273.728 185.769 266.534 166.808 254.961 174.417" style="fill:#ffffff"/><polygon points="240.546 185.151 223.785 197.654 240.778 207.933 252.095 189.224 240.546 185.151" style="fill:#ffffff"/><polygon points="245.757 115.959 245.749 115.976 245.762 115.966 245.762 115.965 245.757 115.959" style="fill:#ffffff"/><polygon points="166.871 156.822 166.871 156.822 166.87 156.823 166.87 156.823 166.871 156.824 166.871 156.822" style="fill:#ffffff"/><polygon points="240.967 208.722 240.963 208.729 240.973 208.734 240.976 208.729 240.975 208.727 240.967 208.722" style="fill:#ffffff"/><path d="M179.7,173.779c.2.244.4.485.606.727.055.067.112.132.168.2q1.668,1.993,3.382,3.889l.069.078.4-.667,6.345-10.491-3.446-1.454-.159-.067-.964-.407-.162-.068-17.555-7.409a156.824,156.824,0,0,0,11.15,15.47C179.589,173.645,179.643,173.713,179.7,173.779Z" style="fill:#ffffff"/><polygon points="186.826 164.604 187.808 165.018 187.949 165.078 190.629 166.209 189.66 162.757 189.613 162.59 189.248 161.292 189.206 161.142 188.426 158.365 167.769 134.12 167.467 156.434 186.681 164.543 186.826 164.604" style="fill:#ffffff"/><polygon points="207.577 173.522 201.431 171.355 200.889 171.163 201.257 171.595 205.439 176.503 206.231 177.433 222.815 196.897 239.199 184.676 208.741 173.933 207.577 173.522" style="fill:#ffffff"/><path d="M240.729,114.43c-1.835-.744-3.727-1.436-5.65-2.1-.374-.128-.753-.25-1.13-.376-2.286-.761-4.613-1.478-7.005-2.119l-.349.577-5.233,8.651-.994,1.643.22-.046,1.479-.314,9-1.908,1.452-.308,7.3-1.547,1.43-.3,2.533-.537c-.648-.288-1.294-.576-1.955-.853C241.456,114.739,241.1,114.58,240.729,114.43Z" style="fill:#ffffff"/><polygon points="233.816 129.585 227.677 128.194 226.976 128.035 227.51 128.531 232.174 132.867 233.079 133.708 256.73 155.695 259.949 135.509 235.006 129.855 233.816 129.585" style="fill:#ffffff"/><path d="M196.708,187.856l-2.087-7.435-.4-1.417-2.436-8.672-.4-1.438-.051-.184-.776,1.282-5.261,8.7-.542.9q2.43,2.637,4.943,5.069c.286.277.575.547.862.82q2.3,2.181,4.655,4.18c.3.256.607.507.911.758q.842.7,1.688,1.371l-.714-2.542Z" style="fill:#ffffff"/><polygon points="219.551 122.751 218.976 122.216 213.69 123.337 213.645 123.346 212.617 123.564 213.443 123.752 213.477 123.759 218.487 124.895 219.676 125.164 222.944 125.905 220.456 123.593 219.551 122.751" style="fill:#ffffff"/></svg>