<svg xmlns="http://www.w3.org/2000/svg" xmlns:xlink="http://www.w3.org/1999/xlink" width="150" height="150" viewBox="0 0 150 150">
    <defs>
        <path id="a" d="M150 19.57v1.024c-9.836 4.201-17.623 11.783-24.385 19.57l-2.05-1.947c2.357-3.38 5.328-6.66 8.402-9.836.922-.922 1.435-2.049 1.435-2.869 0-1.024-.82-2.049-2.664-2.049H0v-6.762h130.84c1.025 0 2.664-1.23 2.664-2.254 0-.922-.41-1.537-1.434-2.562-2.972-2.869-6.148-6.557-8.402-9.938L125.718 0c6.659 7.684 14.446 15.471 24.282 19.57z"/>
    </defs>
    <use fill="#1C1794" fill-rule="evenodd" transform="translate(0 55)" xlink:href="#a"/>
</svg>
