<svg xmlns="http://www.w3.org/2000/svg" xmlns:xlink="http://www.w3.org/1999/xlink" width="250" height="360" viewBox="0 0 250 360">
    <defs>
        <path id="a" d="M163.993 40.154c0 1.63-.091 3.222-.263 4.608l.604.075c.175-1.41.268-3.03.268-4.683 0-3.22-.452-9.31-2.162-9.31-.643 0-1.147.834-1.539 2.548l.593.136c.39-1.702.815-2.075.946-2.075.542 0 1.553 2.988 1.553 8.701m-53.568 48.619l1.392-3.866-.573-.206-1.391 3.865.572.207zM81.095 52.1c-.576.099-.892.892-.965 2.424-.064 1.332.072 3.062.384 4.869l.6-.104c-.304-1.765-.438-3.446-.376-4.736.07-1.46.363-1.837.46-1.853.052-.005.27.09.592.638l.525-.309c-.41-.696-.808-1-1.22-.93m29.138 19.45l-.188-.58c-.062.02-6.338 1.982-11.777-1.85l-.35.497c2.802 1.975 5.813 2.48 8.157 2.48 2.417 0 4.125-.537 4.158-.548m24.673-27.052l-.37.483c.094.073 1.564 1.162 4.684 1.162 1.86 0 4.305-.387 7.395-1.606l-.223-.567c-7.918 3.125-11.451.554-11.486.528m114.35 190.36h-93.688c.046-15.567 3.632-29.379 10.658-41.056 6.157-10.233 14.623-18.157 24.48-22.915 13.438-6.485 27.563-5.927 36.868 1.458 11.603 11.293 22.252 26.687 21.681 62.512zm-94.297 0H142.11c.204-5.484 2.78-79.15-3.234-90.76-2.439-4.706-5.652-8.795-10.103-12.854a122.722 122.722 0 0 0 2.11-5.378l.119-.333c.333 4.26 2.405 7.327 5.949 8.723 1.277.503 2.804.785 4.554.785 7.545 0 19.228-5.243 32.834-20.518 3.78 9.105 10.081 18.112 19.635 28.316 6.478 6.918 13.206 12.342 19.712 17.588 3.862 3.114 7.556 6.092 11.049 9.256-9.349-5.389-22.108-5.225-34.294.656-9.964 4.81-18.518 12.814-24.737 23.149-7.084 11.773-10.699 25.69-10.745 41.37zm-43.048-173.34c.628.63 1.025 1.142 1.163 1.328v20.288l-1.079-.707c.064-1.582.518-13.574-.084-20.91zm-31.78 17.01c.843-.415 1.955-1.99 2.821-8.623.3.167.598.229.89.183l-.093-.602c-.246.04-.525-.08-.832-.353-1.32-1.177-2.628-4.693-3.252-8.749-.861-5.6-.08-9.717 1.16-9.908.768-.117 1.827 1.29 2.694 3.588.599 1.59 1.08 3.496 1.39 5.514l.602-.092c-.313-2.033-.796-3.958-1.399-5.573 1.326-17.075 13.895-21.574 17.72-22.548 4.775-1.213 8.99.242 13.269 4.584a.304.304 0 1 0 .52-.195c.182-2.891.801-3.341 1.06-3.4.617-.142 1.718 1.138 2.477 2.48.108.198.22.41.337.642a3.506 3.506 0 0 0-.228.04c-1.714.359-3.072 1.844-3.823 4.183-.732 2.28-.805 5.115-.204 7.984 1.152 5.515 4.509 9.615 7.775 9.615h.063l-.02.28c-.662-.09-2.142-.145-3.556.825-1.618 1.11-2.611 3.183-2.952 6.163-.717 6.274-.885 15.471-.924 19.135-.005.535-.009.974-.01 1.295l-1.933-1.45v-20.8a.306.306 0 0 0-.054-.173c-.027-.039-.674-.963-1.89-2.06-2.312-2.086-7.176-5.178-13.763-2.448l.233.563c6.195-2.569 10.795.271 13.035 2.26.734 7.67.142 21.545.136 21.685a.304.304 0 0 0 .137.268l1.686 1.106 1.708 1.282c-3.632 7.935-7.245 13.8-7.779 14.653l-2.18.476-4.48.977c-1.423-1.816-15.23-19.669-14.006-27.352l-.601-.095c-1.326 8.322 13.612 27.176 14.249 27.975.072.09.189.132.303.107l4.318-.942c.049.652.19 2.136.556 4.032-5.054 6.283-12.372 5.176-15.296 4.403-5.568-1.472-10.036-5.285-10.651-9.083 1.539-8.36 1.434-14.8.787-21.852zm-.589-5.66c-.63-5.749-1.283-11.693-1.283-19.323 0-9.716 2.51-17.597 7.26-22.79 4.052-4.428 9.722-6.867 15.971-6.867h.01c6.388.003 11.865 2.793 15.729 7.935a1.18 1.18 0 0 0-.686-.063c-.805.185-1.28 1.238-1.477 3.297-4.24-4.092-8.624-5.493-13.384-4.282-3.836.976-16.245 5.41-18.068 21.936-.671-1.45-1.681-3.02-2.882-2.836-2.094.322-2.422 5.703-1.668 10.602.635 4.134 1.933 7.63 3.33 9-.742 5.88-1.68 7.788-2.329 8.358a370.855 370.855 0 0 0-.523-4.967zm39.882-38.182l.019-.01-.02.01h.001zm.359 1.371c.245.51.487 1.058.737 1.672.14.731.288 1.48.443 2.244.055.272.042.647-.038 1.113-.233 1.36-.964 2.99-.971 3.006a.306.306 0 0 0-.014.214s1.434 4.725 3.283 10.774l.47 1.538c-.005 0-.01.002-.014.003a3.205 3.205 0 0 1-.677.068c-2.977 0-6.073-3.898-7.166-9.13-.58-2.768-.512-5.493.188-7.674.681-2.121 1.877-3.46 3.368-3.772a3.06 3.06 0 0 1 .39-.056zm-.222-9.484c-.146-6.358.778-11.284 2.826-15.057 4.34-3.013 13.778-6.48 22.198-3.775 5.738 1.845 9.855 6.22 12.236 13.004a78.46 78.46 0 0 1 2.937 10.696l-9.455 7.176-3.474.746c-2.176-3.265-5.402-4.889-8.47-4.249-3.599.753-6.023 4.462-6.244 8.953-.225-.418-.463-.8-.712-1.14l2.596-8.612c2.24-1.777 8.547-4.633 16.942-3.085l.11-.599c-8.719-1.61-15.265 1.435-17.509 3.27a.3.3 0 0 0-.098.148l-2.504 8.303c-1.074-1.199-2.31-1.697-3.448-1.373-.494.14-.926.43-1.268.826l.099-1.044.594-6.26a.305.305 0 0 0-.148-.292c-.133-.078-3.153-1.811-6.31-.21-.557-3.278-.86-5.775-.898-7.426zm28.446 16.808c.094.331.177.664.245.99 1.182 5.654-1.277 10.969-5.48 11.848-2.02.422-4.146-.235-5.986-1.85-1.863-1.638-3.207-4.056-3.783-6.81-1.182-5.655 1.277-10.97 5.48-11.849a5.9 5.9 0 0 1 1.208-.124c2.495 0 4.998 1.565 6.75 4.297a13.133 13.133 0 0 1 1.566 3.498zm-22.196-3.665c-1.412-2.383-3.26-3.925-5.09-4.227l-.153-.86c2.52-1.375 5.057-.31 5.724.017l-.481 5.07zm-1 16.974l1.221-12.866c.107-1.122.745-2.009 1.626-2.26.987-.282 2.1.26 3.072 1.484l-5.46 18.109h-.882l.423-4.467zm-4.255-12.454c.135-.31.526-1.25.79-2.243.195.223.471.452.86.633.69.321 1.594.43 2.687.329l-.057-.606c-.985.091-1.783 0-2.373-.275-.693-.323-.884-.802-.927-.948.084-.52.092-.936.024-1.274a230.01 230.01 0 0 1-.721-3.72c1.766.396 3.556 2.1 4.87 4.66l-.282 2.971v.003l-1.191 12.544-.43-1.408c-1.686-5.515-3.027-9.93-3.25-10.666zm-.33 27.214c-1.058 3.441-2.39 7.046-3.97 10.743.065-4.268.27-12.05.9-17.558.318-2.791 1.22-4.717 2.682-5.725.909-.626 1.867-.765 2.538-.765.26 0 .477.021.63.042-.357 3.79-1.205 7.961-2.523 12.409-1.127.892-2.946.378-2.965.372l-.171.585c.076.022 1.584.452 2.879-.103zm-.052 52.878c-5.27-3.956-9.822-7.372-11.978-12.023-2.292-4.944-2.776-10.205-2.86-11.408l2.05-.448a.303.303 0 0 0 .193-.133c.04-.062 3.916-6.184 7.83-14.713l.326.244a.304.304 0 0 0 .487-.243c0-.001 0-.685.013-1.835 1.968-4.463 3.585-8.807 4.805-12.91 1.378-4.63 2.251-8.968 2.598-12.894.02-.231.036-.46.052-.688l.002-.038a3.02 3.02 0 0 0 .18-.037l.213.696-.335 3.535a.304.304 0 0 0 .303.333h1.218c.536 1.747 1.077 3.503 1.602 5.205 2.508 8.123 3.968 12.72 4.34 13.664a7.363 7.363 0 0 0 4.894 4.407c-.04 2.637-.545 26.312-5.796 40.614a122.638 122.638 0 0 1-2.017 5.155c-2.703-2.417-5.455-4.482-8.12-6.483zm50.316-23.558a58.584 58.584 0 0 0 3.59 13.13c-16.64 18.776-30.277 22.403-36.906 19.79-3.738-1.473-5.729-4.96-5.608-9.819 4.573-14.265 5.096-35.606 5.147-38.688a7.413 7.413 0 0 0 1.715.116l2.324-.113c4.294-.209 8.31-1.982 11.304-4.992 4.536-4.558 10.56-12.974 13.501-27.179l-.596-.124c-2.91 14.06-8.859 22.374-13.337 26.874-2.887 2.902-6.759 4.61-10.902 4.813l-2.323.113a6.759 6.759 0 0 1-6.62-4.279c-.366-.93-1.82-5.513-4.324-13.621-.507-1.643-1.03-3.338-1.547-5.025h4.343v-.61h-4.345l5.271-17.482c.339.524.654 1.132.942 1.816.039.72.134 1.454.288 2.193.603 2.883 2.015 5.42 3.978 7.143 1.986 1.745 4.298 2.452 6.511 1.989 4.533-.948 7.203-6.586 5.952-12.57a14.87 14.87 0 0 0-.222-.912l2.05-4.234 9.024-6.85a27.709 27.709 0 0 0-.495 2.998l.606.069a25.58 25.58 0 0 1 .615-3.478c.543-2.109 1.315-3.419 2.014-3.419 1.356 0 2.867 4.634 2.867 11.285 0 4.553-.728 8.66-1.856 10.46-.236.377-.602.826-1.011.826v.609c.552 0 1.065-.374 1.527-1.111.089-.142.176-.297.26-.465.763 2.013 2.877 2.726 4.869 2.69l-.084 3.942c-.428 20.059.07 34.901 1.478 44.115zm73.547 94.672c-3.447-8.762-8.547-16.244-16.05-23.544-4.327-4.212-8.986-7.968-13.919-11.945-6.49-5.233-13.201-10.643-19.649-17.53-14.195-15.161-21.171-27.645-23.327-41.745-1.404-9.179-1.898-23.986-1.47-44.01l.089-4.264.068-3.331c.13-6.32.223-10.886.301-12.317.752-13.868-2.595-24.827-9.424-30.86-5.713-5.046-13.711-6.688-23.794-4.875-7.312 1.786-12.208 5.1-14.97 10.131l-.01.019c-2.121 3.876-3.08 8.919-2.93 15.416.04 1.751.37 4.422.98 7.936.04.236.082.474.125.714a26.321 26.321 0 0 0-.365-.697c-3.958-7.258-10.419-11.258-18.192-11.26h-.01c-6.421 0-12.253 2.508-16.42 7.065-4.854 5.307-7.42 13.329-7.42 23.2 0 7.663.654 13.624 1.287 19.39.205 1.87.4 3.637.566 5.422.662 7.104.785 13.558-.768 21.964a91.308 91.308 0 0 1-1.076 5.005c-2.83 11.604-16.004 16.6-28.743 21.432-10.26 3.892-19.952 7.568-22.579 14.491C20.665 156.202.216 234.296.01 235.083a.304.304 0 0 0 .294.381h249.25a.305.305 0 0 0 .305-.299c.283-16.054-1.622-29.047-5.822-39.725zM129.847 62.942l-.42.442c.012.01 1.101 1.069 1.101 2.722h.61c0-1.923-1.24-3.114-1.292-3.164"/>
    </defs>
    <g fill="none" fill-rule="evenodd" transform="translate(0 124)">
        <mask id="b" fill="#1c1794">
            <use xlink:href="#a"/>
        </mask>
        <use fill="#1c1794" xlink:href="#a"/>
        <g fill="#1c1794" mask="url(#b)">
            <path d="M-1-124h251v360H-1z"/>
        </g>
    </g>
</svg>
