<svg width="31" height="31" viewBox="0 0 31 31" fill="none" xmlns="http://www.w3.org/2000/svg">
<path fill-rule="evenodd" clip-rule="evenodd" d="M0.366577 1.35684V1.00684H3.62978V1.35684H2.17344V28.5969H3.62978V28.9469H0.366577V28.5969H1.82285V1.35684H0.366577ZM10.8925 5.89492H16.7634L13.8281 8.82547L10.8925 5.89492ZM23.4806 12.2508H17.6097L20.5451 9.32043L23.4806 12.2508ZM16.985 25.0713L17.0109 12.6008H10.7528L16.985 25.0713ZM17.3356 25.0707L17.3614 12.6008H23.6193L17.3356 25.0707ZM17.1866 5.96738L14.0759 9.07293L15.6312 10.6257L17.1866 12.1784L20.2972 9.07293L17.1866 5.96738ZM10.4694 5.96738L13.5802 9.07293L10.4694 12.1783L7.35868 9.07293L10.4694 5.96738ZM24.3268 12.2508H30.1483V12.2508L27.2613 9.31972L24.3268 12.2508ZM16.521 24.9268L4.17439 12.6008H10.3609L16.521 24.9268ZM23.9036 12.1784L27.0144 9.07115L23.9038 5.96735L20.793 9.07297L23.9036 12.1784ZM14.6876 10.1786L16.7634 12.2508H10.8925L13.8281 9.32043L14.6876 10.1786ZM7.11085 9.3204L4.17538 12.2508H10.0462L7.11085 9.3204ZM17.6097 5.89492H23.4806L20.5451 8.82547L17.6097 5.89492ZM24.0117 12.6009L17.8046 24.9188L20.9617 21.767L30.1433 12.6009H24.0117Z" fill="#1C1794"/>
</svg>
