<svg width="20" height="21" viewBox="0 0 20 31" fill="none" xmlns="http://www.w3.org/2000/svg">
<path fill-rule="evenodd" clip-rule="evenodd" d="M18.3171 16.5183C17.1569 14.1122 15.3773 12.219 13.4401 8.87038C13.3415 8.70009 13.2459 8.53273 13.1526 8.36785L12.3324 6.86586C12.0229 6.27694 11.7512 5.73109 11.5121 5.22681C11.1785 4.52343 10.9092 3.9019 10.6919 3.36028C9.92558 1.44993 9.80688 0.53418 9.80688 0.53418C9.80688 0.53418 9.46453 3.18177 6.17367 8.87038C4.23647 12.219 2.45681 14.1122 1.29674 16.5183C-1.32597 21.9575 1.76738 26.3855 2.86639 27.4032C4.59139 29.2731 7.06216 30.4447 9.80688 30.4447C10.1054 30.4447 10.4005 30.43 10.6919 30.4029C10.9691 30.3771 11.2428 30.3396 11.5125 30.2904C11.7906 30.2397 12.0646 30.1767 12.3338 30.1021C12.6125 30.0248 12.8859 29.935 13.1536 29.8335C14.5359 29.3092 15.7631 28.4701 16.7474 27.4032C17.8464 26.3855 20.9398 21.9575 18.3171 16.5183" fill="#1C1794"/>
</svg>
