<?xml version="1.0" encoding="utf-8"?>
<svg xmlns="http://www.w3.org/2000/svg" xmlns:xlink="http://www.w3.org/1999/xlink" width="155" height="239" viewBox="0 0 155 239">
    <defs>
        <path id="a" d="M0 0h360v240H0z"/>
        <path id="c" d="M88.151 188.395l23.025-12.435 2.631-1.421v-3.424l-22.116 11.684-3.54 1.87v3.726zm94.723 14.218l13.8-7.453-58.418-27.645v16.217c3.4.088 6.794.903 10.06 2.455l34.558 16.426zm-57.587-15.554c3.194-1.792 6.544-2.861 9.925-3.208v-16.2L115.865 178.1v.001l-4.91 2.652-52.007 28.086 14.913 7.057 51.426-28.836zm-21.513 47.597l-2.26-1.07-28.085-13.29-.003-.002-17.533-8.297v49.187l.578.316 2.111 1.153 58.784 32.114v-53.68l-11.333-5.363-2.26-1.068zm79.669-27.678h-.002l-29.158 15.748-2.197 1.186-2.195 1.186-29.481 15.922v53.658l76.61-45.138 2.098-1.236.611-.36v-49.762l-16.286 8.796zm-35.77 14.646l2.196-1.186 28.468-15.374-30.978-14.725c-2.955-1.404-6.026-2.145-9.103-2.232a21.624 21.624 0 0 0-1.522.01c-.507.022-1.015.066-1.521.123-3.005.34-5.98 1.3-8.82 2.892l-47.992 26.912 27.538 13.032 2.259 1.069 2.259 1.068 8.397 3.975 26.624-14.379 2.195-1.185zm-12.46-157.719l-7.116 3.76v80.797l7.115 4.776V63.905zm-20.407 102.023l17.974-9.496-3.49-2.342-2.785-1.87-70.612 37.305v7.527l30.21-15.96h.001l28.7-15.163.002-.001m11.769-102.119l1.522-.804 4.683-2.474-4.683-3.143-1.522-1.02-.07-.048-1.452.767-76.887 40.619 6.275 4.212 70.612-37.304 1.522-.805zM45.733 100.9v91.075l.49.328 5.892 3.955.734.492v-91.073l-4.931-3.31-2.185-1.467z"/>
    </defs>
    <g fill="none" fill-rule="evenodd" transform="translate(-103 -1)">
        <mask id="b" fill="#fff">
            <use xlink:href="#a"/>
        </mask>
        <g mask="url(#b)">
            <use fill="#1C1794" transform="translate(57.5 -55)" xlink:href="#c"/>
        </g>
    </g>
</svg>
