<?xml version="1.0" encoding="utf-8"?>
<svg xmlns="http://www.w3.org/2000/svg" xmlns:xlink="http://www.w3.org/1999/xlink" width="137" height="210" viewBox="0 0 137 210">
    <defs>
        <path id="a" d="M0 0h360v240H0z"/>
    </defs>
    <g fill="none" fill-rule="evenodd" transform="translate(-111 -30)">
        <mask id="b" fill="#fff">
            <use xlink:href="#a"/>
        </mask>
        <g fill="#1C1794" mask="url(#b)">
            <path d="M241.067 172.252c-4.134 14.542-13.95 27.285-26.259 34.087-9.173 5.07-19.112 6.443-27.985 3.862a32.607 32.607 0 0 1-8.115-3.627l17.814-51.084c.902-.55 1.7-1.172 2.362-1.876 4.82-5.136 6.372-12.154 4.744-18.504l33.152-95.07c-1.71 16.388 1.184 32.226 4.224 48.845 4.574 25.007 9.304 50.865.063 83.367zm-74.78 65.048l-2.75-30.528.04-.032-.048-.06-1.638-18.178c3.446 8.088 8.565 14.492 14.878 18.74L166.287 237.3zm-4.835-88.207a135.388 135.388 0 0 1 4.578-13.168c-1.433 8.489-.206 18.953.248 22.23l-6.487 7.035-.454-5.032a60.105 60.105 0 0 1 2.115-11.065zm-1.466 18.261l7.032-7.626-1.182-1.087.442-.48 14.273-15.487.643-.698.593.545.593.545-14.932 16.203c3.937.29 18.396 1.039 26.993-2.707l-17.121 49.1c-6.08-4.205-10.991-10.528-14.25-18.51a51.463 51.463 0 0 1-1.756-5.054l-1.328-14.744zm45.9-88.075c10.308-11.115 20.184-21.766 27.528-34.482L202.8 132.59a19.75 19.75 0 0 0-4.818-7.013c-7.714-7.227-19.675-7.107-27.246.078 9.673-18.907 22.567-32.81 35.15-46.377zm-70.32 108.514c-9.117-1.17-15.358-3.54-18.046-6.857-6.61-8.155-5.347-20.162 2.818-26.765a18.973 18.973 0 0 1 11.97-4.232c5.555 0 11.066 2.41 14.825 7.047 5.632 6.948 2.346 25.438 1.253 30.741L135.019 171l-1.26 1.004 13.225 16.55c-2.366-.023-6.718-.158-11.418-.76zm-.087-135.167a12.03 12.03 0 0 1 2.13-9.029 12.057 12.057 0 0 1 7.899-4.879c.659-.107 1.318-.16 1.973-.16 2.524 0 4.978.786 7.065 2.289a12.038 12.038 0 0 1 4.885 7.889c.852 5.233-5.804 13.638-8.609 16.907l-1.145-12.709-1.605.144 1.171 13c-3.532-2.092-12.893-8.098-13.764-13.452zm28.904 12.13a12.055 12.055 0 0 1 7.898-4.879 12.055 12.055 0 0 1 9.039 2.128 12.04 12.04 0 0 1 4.885 7.89 12.03 12.03 0 0 1-2.13 9.028c-3.28 4.548-14.998 5.676-18.725 5.923l5.787-10.724-1.418-.764-5.32 9.856c-1.082-4.464-2.999-14.32-.016-18.458zm78.206 23.84c-3.552-19.42-6.908-37.762-2.857-57.042a.805.805 0 0 0-1.541-.452c-7.147 18.683-19.942 32.478-33.488 47.083-17.394 18.754-35.38 38.146-44.799 70.458a60.967 60.967 0 0 0-1.176 4.75l-4.345-48.226 10.069-18.657c1.994-.083 16.78-.892 20.93-6.647a13.624 13.624 0 0 0 2.414-10.227 13.636 13.636 0 0 0-5.534-8.937 13.666 13.666 0 0 0-10.24-2.41 13.656 13.656 0 0 0-8.946 5.526c-3.914 5.428-.652 18.425.195 21.492l-9.15 16.953-3.1-34.403c1.653-1.81 11.117-12.52 10-19.38a13.638 13.638 0 0 0-5.533-8.937 13.672 13.672 0 0 0-10.239-2.41 13.656 13.656 0 0 0-8.947 5.527 13.626 13.626 0 0 0-2.413 10.227c1.1 6.757 13.126 13.811 15.531 15.16l2.208 24.503-2.302-2.118-1.09 1.183-.488-.45-7.058-6.488-.714-.657.546-.592.546-.593 7.79 7.163c.185-3.03.43-11.963-2.838-15.024-3.96-3.71-10.182-3.51-13.895.445a9.811 9.811 0 0 0 .446 13.88c3.261 3.055 12.14 2.248 15.174 1.867l4.098 3.77 3.412 37.876-11.144-6.779-.836 1.372-.563-.343-10.94-6.65-.36-.22.419-.688.419-.687 11.321 6.883c-.46-3.47-2.31-14.796-7.123-17.783-5.705-3.542-13.204-1.793-16.75 3.905-3.545 5.699-1.794 13.19 3.912 16.73 4.803 2.983 15.757-.358 19.098-1.488l12.727 7.742 2.285 25.363c-.704 7.56-.028 15.188 2.003 22.23l1.982 22-12.02-15.043c.246-1.084 1.485-6.738 2.015-13.177.798-9.709-.317-16.505-3.314-20.203-7.17-8.845-20.207-10.214-29.062-3.053-8.855 7.161-10.226 20.184-3.057 29.028 2.997 3.698 9.421 6.201 19.094 7.441 5.416.695 10.39.779 12.478.779.162 0 .307 0 .434-.002l13.694 17.14 2.8 31.084H121.83V240h92.276v-1.61h-46.491l10.552-30.26a34.225 34.225 0 0 0 8.207 3.617 34.017 34.017 0 0 0 9.516 1.337c6.553 0 13.311-1.805 19.7-5.336 12.675-7.006 22.78-20.11 27.029-35.056 9.343-32.862 4.579-58.908-.029-84.097z"/>
        </g>
    </g>
</svg>
