<svg width="44" height="43" viewBox="0 0 44 43" fill="none" xmlns="http://www.w3.org/2000/svg">
<g clip-path="url(#clip0_10622_282913)">
<rect x="1" y="0.5" width="42" height="42" rx="21" fill="#1C1794"/>
<path fill-rule="evenodd" clip-rule="evenodd" d="M29.4204 20.6659C29.4642 20.7025 29.5096 20.7517 29.5326 20.8101C29.559 20.8765 29.5539 20.9506 29.5174 21.0367C29.3642 21.3973 28.3362 22.0965 27.5816 22.3741C27.5254 22.2459 27.4678 22.1147 27.4088 21.9807C27.6152 21.8843 27.8131 21.7796 27.9994 21.6721C28.6763 21.2812 29.1992 20.856 29.4204 20.6659ZM11.591 -3.36495C11.4406 -3.63805 11.4763 -4.23617 11.6541 -4.58066C12.1537 -3.98948 13.5323 -2.47418 15.2634 -0.57151C17.2793 1.64444 19.7884 4.40214 21.6802 6.55358C22.37 7.33779 22.9452 8.00482 23.3899 8.53622C24.3614 9.69711 26.9904 15.3715 29.1505 20.3482C28.882 20.5773 28.1374 21.1768 27.241 21.5989C24.9816 16.474 23.2763 12.8352 22.1725 10.784C20.7402 8.12254 18.2969 5.1454 15.9341 2.2663C14.338 0.321557 12.8305 -1.51526 11.6954 -3.17452C11.6553 -3.2332 11.614 -3.29341 11.572 -3.35456L11.591 -3.36495ZM40.6292 57.8697C47.8862 61.8191 55.3831 65.8991 57.1976 67.2834L72.4062 58.5027C64.4323 55.2761 49.5098 48.0659 45.7804 45.899C42.9636 44.2623 41.3512 41.0713 40.0609 38.2087C39.6049 37.197 39.1525 36.1775 38.7151 35.1916C36.5661 30.3489 34.5362 25.7748 31.7647 21.2644C30.5063 19.2167 29.4982 16.9997 28.5232 14.8556L28.5227 14.8543L23.5266 3.86646C23.2119 3.17442 22.8752 2.51077 22.5496 1.86902L22.5489 1.86781C21.8815 0.552167 21.251 -0.690595 20.7975 -2.15193C20.7568 -2.28301 20.7135 -2.40689 20.6678 -2.53786L20.6671 -2.53962C20.5428 -2.89499 20.4145 -3.2623 20.3198 -3.8204C19.6923 -3.4189 19.4898 -2.53107 19.4906 -2.15724C19.492 -1.51373 19.6178 -0.853958 19.8544 -0.249458C19.922 -0.0768292 20.001 0.0980862 20.0775 0.267371L20.0792 0.270988C20.2273 0.598184 20.3804 0.936564 20.4717 1.29837C20.5803 1.72845 21.5733 5.24836 22.0032 6.31201C22.6842 7.08647 23.2536 7.74709 23.6952 8.27464C24.9834 9.814 28.7343 18.3791 29.5522 20.2643C29.6539 20.3262 29.8251 20.4558 29.9085 20.6664C29.9652 20.8096 29.9692 20.9656 29.9221 21.1222L29.9943 21.2904C30.3207 21.4654 30.8732 21.6628 30.8791 21.665L30.7556 22.0546C30.7391 22.0488 30.4973 21.9623 30.2322 21.8503C30.28 21.9634 30.3247 22.0698 30.365 22.1661L29.992 22.3178C29.9007 22.0992 29.7883 21.8332 29.6617 21.5369C29.4023 21.8162 28.9864 22.1149 28.5622 22.3598C28.2793 22.5231 27.9935 22.6621 27.7487 22.7556C27.8436 22.9721 27.9336 23.178 28.0187 23.3726C28.3923 23.5645 28.7636 23.7658 29.1227 23.9723L28.9313 24.3307C28.7175 24.2078 28.4992 24.0869 28.2788 23.9685L28.4053 24.258C28.5757 24.6488 28.7054 24.946 28.7845 25.1252L28.4151 25.285C28.3357 25.1055 28.2057 24.8076 28.0349 24.416L27.679 23.6006L27.6789 23.6005C27.5592 23.3263 27.4283 23.0273 27.2889 22.7092L27.284 22.6982L26.9631 21.9681C24.6622 16.7427 22.9309 13.0441 21.8174 10.9749C20.4049 8.35024 17.9752 5.38957 15.6253 2.52636L15.6245 2.52529C14.0226 0.573477 12.5096 -1.27012 11.3641 -2.94459C10.153 -4.7147 8.10375 -7.63743 7.22862 -8.88553L7.19401 -8.93486C7.18059 -8.95407 7.16223 -8.95868 7.15241 -8.95975C7.14116 -8.96106 7.12496 -8.95998 7.11022 -8.9456C6.59557 -8.44091 6.38878 -7.43276 6.4726 -6.96053C6.57869 -6.36329 6.86563 -5.79885 7.14313 -5.25302C7.2934 -4.9575 7.45931 -4.6349 7.62521 -4.31229L7.65726 -4.24996C7.76525 -4.03994 7.87272 -3.83094 7.97551 -3.62991C8.00503 -3.65668 8.03531 -3.68293 8.06676 -3.7083C8.16063 -3.78407 8.28243 -3.81212 8.40174 -3.7859C8.52157 -3.75958 8.62474 -3.68148 8.68472 -3.5718C11.4002 1.39249 14.6746 5.8388 18.1412 10.5462L18.2366 10.6758C18.5173 11.0571 18.7999 11.4409 19.0842 11.8278C20.7415 14.0828 22.8142 19.6526 24.3276 23.7196L24.3279 23.7203L24.3381 23.7479C24.5853 24.4121 24.8211 25.0455 25.0351 25.6088C25.3482 25.7209 25.596 25.9597 25.8162 26.1738C25.8486 26.2055 25.8809 26.2368 25.9131 26.2676L25.6402 26.565C25.6071 26.5333 25.5738 26.501 25.5403 26.4685C25.4488 26.3794 25.3594 26.293 25.2684 26.2167C25.5917 27.0491 25.8441 27.6476 25.9767 27.8296L25.6532 28.0692C25.3738 27.6857 24.776 26.0795 23.9487 23.8562L23.9482 23.8549C22.4436 19.8118 20.3832 14.2751 18.7618 12.0687C18.4453 11.6381 18.131 11.2112 17.8189 10.7875L17.8177 10.7858C14.3427 6.06698 11.0605 1.60989 8.33143 -3.37928C7.76503 -2.92962 7.29788 -1.79542 7.82381 -0.08616C8.1973 1.12762 8.82954 2.24216 9.5566 3.46927C10.578 5.1932 11.5324 6.68072 12.3744 7.99306L12.3754 7.99455C14.6612 11.5575 16.4669 14.3722 18.0383 19.3184C18.19 19.7958 18.4253 20.525 18.7138 21.4191L18.7425 21.5082L18.7428 21.5092C20.0256 25.4843 22.4127 32.882 23.1006 35.6372L22.7073 35.7274C22.6489 35.4932 22.5777 35.2244 22.4962 34.9275C20.7741 35.748 18.9956 33.1801 17.2731 30.693L17.272 30.6914L17.2718 30.6911C16.101 29.0006 14.8904 27.2525 13.7851 26.7011C13.7374 26.6772 13.7001 26.6358 13.6809 26.5855L13.5931 26.3547L13.5929 26.3541C12.6534 23.8841 12.2246 22.7566 10.4686 20.4545C9.78587 19.5593 8.51056 18.9375 8.0078 18.8023C9.09349 23.2283 10.8902 27.8398 13.4959 32.8903L16.5323 38.7753C16.5995 38.9054 16.6796 39.0706 16.7723 39.2619L16.7725 39.2623C17.6951 41.1646 19.8553 45.6189 24.955 49.0434C27.2829 50.6066 34.0647 54.2973 40.6232 57.8665L40.6292 57.8697Z" fill="white"/>
</g>
<rect x="1" y="0.5" width="42" height="42" rx="21" stroke="#1C1794" stroke-width="0.446809"/>
<defs>
<clipPath id="clip0_10622_282913">
<rect x="1" y="0.5" width="42" height="42" rx="21" fill="white"/>
</clipPath>
</defs>
</svg>
