<?xml version="1.0" encoding="utf-8"?>
<svg xmlns="http://www.w3.org/2000/svg" xmlns:xlink="http://www.w3.org/1999/xlink" width="89" height="205" viewBox="0 0 89 205">
    <defs>
        <path id="a" d="M0 0h360v240H0z"/>
    </defs>
    <g fill="none" fill-rule="evenodd" transform="translate(-136 -35)">
        <mask id="b" fill="#fff">
            <use xlink:href="#a"/>
        </mask>
        <g fill="#1C1794" mask="url(#b)">
            <path d="M214.553 105.722c.403 3.363.916 6.255 1.5 8.46-2.846.448-7.3 1.363-11.83 3.14l10.33-11.6zm8.183 16.163l-.021.031c-.653.773-9.816 4.825-15.45 7.202-.392.122-5.761 1.89-9.178 8.166-1.738 3.194-9.448 11.356-17.186 18.196-9.737 8.608-17.582 13.595-21.523 13.683l.012 1.108c1.255-.029 2.762-.488 4.408-1.238l2.908 72.305-30.545 1.667c-.041-5.507-.35-49.145.004-62.128.032-1.179.054-2.371.078-3.634.127-6.802.271-14.512 2.052-23.67 2.066-10.628 5.952-21.124 11.88-32.088 13.92-25.74 26.095-72.214 27.208-76.525.31-.022.939.052 1.505.844.922 1.289 1.79 4.6.693 13.063-2.06 15.886-15.25 49.888-15.382 50.23l.671.54c.025-.061.472-1.215 1.2-3.153 2.066 6.399 1.61 13.922 1.13 17.952-.724 6.09-2.256 10.898-3.26 11.86l.404.871c-6.6 6.051-11.738 12.525-14.18 17.988l.648.599c6.326-14.153 29.845-32.38 39.14-32.477 3.102 9.583 4.15 10.227 4.516 10.453l.303-1.019c-1.63-1.002-6.16-16.037-8.633-25.278l-.719.397c.016.06 1.639 6.115 3.533 12.27.225.734.442 1.426.65 2.082-4.567.25-12.287 4.33-20.413 10.834a95.285 95.285 0 0 0-4.538 3.872c1.274-1.72 2.656-6.786 3.308-12.266.171-1.438.339-3.311.396-5.42.986-1.589 11.957-19.141 21.079-28.02 1.197 1.57 2.624 2.112 4.024 2.112 1.185 0 2.35-.388 3.339-.869 1.36-.661 2.49-.953 3.494-.896l-4.882 7.76.57.743 5.247-8.338c.703.21 1.324.586 1.976.985 1.681 1.026 3.555 2.172 7.58 1.215-3.594 3.345-11.119 10.625-11.824 13.556l.728.363c.667-2.774 9.808-11.483 13.274-14.604.16-.145.224-.435.15-.685-.073-.25-.262-.388-.446-.322-5.247 1.849-7.326.578-9.16-.543-.759-.463-1.474-.9-2.353-1.115-1.314-.32-2.776-.056-4.601.832-2.948 1.433-5.235.998-6.8-1.292-.697-1.022-1.08-2.189-1.267-2.904 6.199-.135 17.046-2.561 22.337-3.744.515-.116.969-.217 1.35-.301a62.767 62.767 0 0 1 2.271-.465c-.359 1.6-.718 3.883-.757 6.711-.066 4.727.2 10.208.728 15.095l-11.904 13.366c-1.812-3.933-9.749-15.93-10.103-16.466l-.558.764c.086.13 8.156 12.328 9.972 16.209-.89.413-1.774.862-2.638 1.352l.283 1.03c6.04-3.425 13.066-4.895 16.893-5.481.338 1.095.695 1.968 1.063 2.596l.589-.713c-.285-.487-.568-1.16-.843-2.002a38.252 38.252 0 0 1 2.027-.235l-.041-1.105c-.01 0-.885.07-2.306.272-.648-2.356-1.213-5.605-1.64-9.437-.544-4.906-.819-10.454-.752-15.222.034-2.51.359-5.065.913-7.195.698-2.681 1.484-3.696 1.74-3.62.124.036.459.703.369 3.197-.208 5.758 2.97 19.195 5.072 28.085.856 3.619 1.595 6.744 1.636 7.455.13 2.23-.745 3.522-1.448 4.559zm-33.216-86.14c1.115 2.13 1.801 3.664 2.468 5.15 1.672 3.734 3.251 7.26 11.114 19.275 2.427 3.71 3.406 7.705 2.909 11.874-.319 2.67-1.172 4.568-1.426 5.087-2.755.976-5.835 1.91-9.17 2.784a126.562 126.562 0 0 0 1.81-4.378c.99-2.54 1.495-4.151 1.725-5.21.09.222.152.37.176.428l.662-.565a632.387 632.387 0 0 1-4.51-11.291c-3.744-9.669-4.656-12.957-4.762-14.013a.643.643 0 0 0-.137-.349c-1.432-1.688-2.25-5.096-.859-8.793zm23.137 39.081c2.807-1.504 4.796-1.557 5.912-.159 1.382 1.731 1.123 5.354.935 6.902a5.613 5.613 0 0 0-1.246-.274c.033-2.308-.3-3.584-.994-3.791-.975-.292-1.93 1.82-2.533 4a55.37 55.37 0 0 0-2.678.536l-1.351.3c-4.987 1.116-16.644 3.724-22.693 3.739-1.017-.363-1.177-2.207-1.194-3.069.981-.19 4.038-.804 7.872-1.782 3.74-.954 7.178-1.987 10.22-3.07 3.03-1.079 5.638-2.2 7.75-3.332zm-27.598-33.128h2.005l-3.793 4.322 1.788-4.322zm-6.675 0l1.853 4.055-3.56-4.055h1.707zm.824-3.764l1.763 2.656h-4.24l2.477-2.656zm4.382-.184l-1.72 2.592-1.72-2.592h3.44zm3.42 2.84h-4.24l1.763-2.656 2.477 2.656zm-5.156 6.688l-2.548-5.58h4.857l-2.309 5.58z"/>
        </g>
    </g>
</svg>
