<svg width="101" height="70" viewBox="0 0 101 70" fill="none" xmlns="http://www.w3.org/2000/svg">
<path fill-rule="evenodd" clip-rule="evenodd" d="M67.3981 42.5392L67.3289 42.444L67.2347 42.3143L67.1496 42.1971L67.0645 42.0799L66.9744 41.9556L66.77 42.1034L66.6432 42.1951L66.6474 42.201L66.732 42.3174L66.8073 42.421L66.8824 42.5246L67.0154 42.7077L67.0739 42.7884L67.0836 42.8017L67.1441 42.885L67.3448 42.7397L67.4752 42.6455L67.4674 42.6346L67.4076 42.5522L67.3981 42.5392ZM67.5933 30.9833C67.5738 30.9906 67.5559 30.9991 67.5356 31.0054L67.5566 31.089L67.6447 31.3317C67.6255 31.2147 67.609 31.0988 67.5933 30.9833ZM86.0824 62.0862L85.834 61.6597L83.5864 57.8039L89.7112 51.6911L91.9036 52.9492L94.0204 54.1639L86.0824 62.0862ZM64.3406 62.1596L66.1671 59.0258L66.8223 57.902H83.3718L84.0269 59.0258L85.8535 62.1596H64.3406ZM67.3497 50.1062C68.0567 50.1062 68.6299 50.6782 68.6299 51.3838C68.6299 52.0894 68.0567 52.6614 67.3497 52.6614C66.6427 52.6614 66.0695 52.0894 66.0695 51.3838C66.0695 50.6782 66.6427 50.1062 67.3497 50.1062ZM73.6496 47.3739C73.6496 47.3706 73.6499 47.3673 73.6503 47.3639C73.7184 46.779 73.7131 46.2618 73.7082 45.8055C73.6983 44.8716 73.6896 44.0649 74.3131 43.1734C74.8136 42.4576 75.7021 41.7152 77.1199 40.8399C77.3122 40.5228 78.992 37.7576 79.9758 36.2592C81.2634 34.2981 82.0776 32.3111 82.0857 32.2913C82.1071 32.2386 82.1577 32.2038 82.2145 32.2024H82.2181C82.2734 32.2024 82.324 32.2345 82.3475 32.2849C82.3595 32.3107 82.6423 32.9263 82.7399 33.7351C82.8709 34.8217 82.5974 35.7316 81.9489 36.3662C81.4368 36.867 81.3034 37.3837 81.5917 37.7479C81.7241 37.915 81.9316 38.0098 82.0871 37.9881C82.4332 37.776 82.7376 37.5814 83.0046 37.401L83.7545 36.853C84.871 35.9501 84.8418 35.414 84.502 34.5788C84.2744 34.0587 83.9745 33.4736 83.6843 32.9076C83.3316 32.2194 82.9983 31.5694 82.8505 31.137C82.4885 30.0777 82.6028 29.0052 82.9367 28.6684C82.9913 28.6131 83.08 28.612 83.1363 28.6651C83.1966 28.722 83.3034 28.8781 83.4511 29.1196C83.4407 29.0859 83.4302 29.0518 83.4199 29.0172C83.1827 28.2281 83.2688 27.5721 83.3829 27.1607C83.5124 26.6931 83.7475 26.2952 83.9962 26.1221C84.0345 26.0956 84.0834 26.0892 84.1271 26.1052C84.1709 26.1213 84.204 26.1575 84.2159 26.2025C84.2645 26.3853 84.3098 26.568 84.3576 26.7614C84.653 27.9544 85.0123 29.4061 86.5619 32.4479C86.5808 32.1832 86.5364 32.0348 86.4535 31.7599L86.4414 31.7194C85.987 30.2077 85.7193 28.858 85.6232 27.5933C85.5233 26.2779 85.5477 25.0092 86.3944 24.6368C86.4408 24.6164 86.4943 24.622 86.5352 24.6514C86.5764 24.6809 86.5987 24.7297 86.5942 24.78C86.5922 24.8034 86.4075 27.1863 88.3325 32.1906C88.3804 32.3152 88.4187 32.4443 88.4498 32.5759V34.5324C88.2562 35.6247 87.819 36.6863 87.4922 37.3741C87.2932 37.8622 86.9989 38.3447 86.6078 38.8206C85.5451 40.114 84.091 40.9665 83.47 41.3306C83.3676 41.3907 83.2616 41.4529 83.2402 41.4706C83.22 41.491 83.1815 41.521 83.0965 41.5867C80.0075 43.9777 79.4603 46.7862 79.5452 48.7212C79.5801 49.5149 79.6627 50.6251 79.7909 52.0208C79.9665 53.9326 80.211 55.4215 80.4513 56.5451H73.1992C73.3516 53.5119 73.5621 49.2847 73.6496 47.3739ZM64.1116 1.1477L64.3601 1.57403L66.6075 5.42999L60.4827 11.5427L58.305 10.293L56.1735 9.0698L64.1116 1.1477ZM85.8535 1.07426L84.0269 4.20803L83.3718 5.33182H66.8223L66.1671 4.20803L64.3406 1.07426H85.8535ZM86.0824 1.1477L94.0204 9.06992L91.9036 10.2847L89.7112 11.5427L83.5864 5.42999L85.834 1.57403L86.0824 1.1477ZM89.8093 51.4769V11.7569L94.0944 9.29778V53.9361L89.8093 51.4769ZM67.2989 56.7795H82.8951L83.2635 57.6675H66.9304L67.2989 56.7795ZM88.6848 12.2322L89.5745 11.8645V51.3692L88.9656 51.1175L88.6848 51.0015V12.2322ZM83.4807 5.65603L86.4826 8.65183L89.4846 11.6479L88.5949 12.0157L83.1122 6.54386L83.4807 5.65603ZM83.4807 57.5778L83.1122 56.6899L88.5949 51.218L89.4846 51.586L86.4826 54.5819L83.4807 57.5778ZM67.2989 6.45408L67.1831 6.17497L66.9304 5.56625H83.2635L83.011 6.17497L82.8951 6.45408H67.2989ZM61.5993 12.0157L60.7096 11.6479L63.7115 8.65183L66.7135 5.65603L67.082 6.54386L61.5993 12.0157ZM94.3232 9.05992C94.3226 9.05781 94.3215 9.05593 94.3208 9.05394C94.315 9.03859 94.3067 9.02417 94.295 9.01233L94.2949 9.01221L86.1408 0.874307L86.1407 0.874189C86.1401 0.873603 86.1393 0.873252 86.1387 0.872665C86.1324 0.866453 86.1252 0.860943 86.1176 0.856372C86.1155 0.8552 86.1132 0.854496 86.111 0.853324C86.1044 0.850042 86.0978 0.846877 86.0907 0.844884C86.0882 0.844181 86.0854 0.843712 86.0827 0.843126C86.076 0.841602 86.0692 0.840782 86.0621 0.84043C86.0606 0.84043 86.0593 0.839844 86.0577 0.839844H64.1364C64.1239 0.839844 64.112 0.842305 64.1006 0.845939C64.0989 0.846525 64.0974 0.847346 64.0959 0.848049C64.0802 0.853793 64.0654 0.862116 64.0534 0.874189L64.0532 0.874307L55.8992 9.01221C55.8992 9.01221 55.8992 9.01233 55.8991 9.01233C55.8872 9.02417 55.8791 9.03859 55.8732 9.05382C55.8725 9.05593 55.8714 9.05781 55.8706 9.05992C55.8671 9.07117 55.8648 9.0829 55.8648 9.0952V46.6142C55.927 46.4641 56.0041 46.3135 56.0997 46.1603V9.29776L60.3847 11.7569V41.4423C60.4621 41.3172 60.5406 41.191 60.6196 41.0641V11.8645L61.5093 12.2323V39.6524C61.5491 39.5903 61.5883 39.5294 61.6268 39.4697C61.6667 39.4077 61.7059 39.3472 61.7442 39.2881V12.2025L63.5294 10.421C64.1545 10.7692 64.7286 11.1754 65.2434 11.6433C67.3794 13.5849 68.5576 16.5494 68.7462 20.4556C69.1366 20.8448 69.3852 21.6799 69.413 22.6984C69.4435 23.8205 69.2121 25.0093 68.7615 26.0457C68.5579 26.514 68.4432 26.9999 68.3747 27.4722C68.3834 27.4756 68.3916 27.4798 68.3992 27.4853C68.4329 27.5096 68.4515 27.5498 68.4477 27.5912C68.4457 27.6147 68.2598 30.0011 70.1877 35.0131C70.408 35.5862 70.4411 36.2421 70.3674 36.9042C78.0916 32.8076 79.2009 22.9373 80.0183 15.6566C80.5069 11.3042 80.9016 7.79898 82.51 6.68855H82.925L82.9478 6.71141C81.1728 7.48835 80.765 11.1101 80.2516 15.6828C79.4231 23.064 78.2978 33.0876 70.3287 37.1909C70.2489 37.704 70.112 38.2136 69.9539 38.6848C73.9058 38.311 76.8327 36.8599 78.8994 34.249C80.7324 31.9336 81.6647 29.0523 82.5663 26.2661C83.8148 22.4079 84.9959 18.7632 88.4498 17.5196V17.7701C85.1655 19.0035 84.0102 22.567 82.7899 26.3382C81.0081 31.8445 78.9885 38.0845 69.9341 38.9225L72.9586 48.8738C72.9717 48.9171 72.9636 48.9638 72.9367 49.0001C72.9098 49.0364 72.8671 49.0576 72.822 49.0576H61.9607C61.8875 49.2912 61.8156 49.5207 61.7442 49.7487V48.8012C61.7003 48.9436 61.6614 49.0845 61.6268 49.2241C61.5798 49.413 61.541 49.5992 61.5093 49.7822V51.0015L61.3921 51.05C61.3908 51.1358 61.3908 51.2206 61.3922 51.3037L61.5993 51.218L67.082 56.6898L66.7134 57.5778L63.7114 54.5819L61.4419 52.3168C61.4492 52.4311 61.4573 52.5496 61.4659 52.6722L66.6076 57.8039L64.3601 61.6597L64.1116 62.0862L62.5998 60.5773C62.6446 60.7421 62.6888 60.8969 62.7321 61.0409L64.0532 62.3595L64.0534 62.3597C64.0632 62.3695 64.0751 62.3767 64.0873 62.3823C64.0904 62.3837 64.0934 62.385 64.0966 62.3861C64.1093 62.3908 64.1227 62.394 64.1364 62.394H86.0577C86.0714 62.394 86.0848 62.3908 86.0976 62.3861C86.1007 62.385 86.1038 62.3837 86.1068 62.3823C86.1191 62.3767 86.1309 62.3695 86.1407 62.3597L86.1408 62.3595L94.2949 54.2215L94.295 54.2214C94.3067 54.2097 94.315 54.1953 94.3208 54.1799C94.3215 54.1779 94.3226 54.176 94.3232 54.1739C94.3268 54.1626 94.3293 54.151 94.3293 54.1386V9.0952C94.3293 9.0829 94.3268 9.07117 94.3232 9.05992ZM36.4272 30.3107C36.6695 27.892 37.8835 26.3835 40.4867 25.2667C41.7948 24.7053 43.1692 24.4612 44.3569 24.5795L44.3803 24.3463C43.1533 24.224 41.7379 24.4745 40.394 25.0512C37.7017 26.2063 36.4453 27.7723 36.1937 30.285L35.8494 33.158L36.0827 33.1859L36.4272 30.3107ZM40.366 30.0525C39.7604 30.0827 39.2868 29.9406 39.0396 29.8435C39.8323 29.3253 41.2012 28.6932 43.4872 28.2711C42.5469 29.3819 41.4728 29.9964 40.366 30.0525ZM37.8429 30.6215L38.0482 30.7353C38.0526 30.7275 38.238 30.4167 38.812 30.0004C39.2529 30.2028 41.5807 31.0749 43.8414 28.2087C44.2413 28.1414 44.6677 28.0805 45.1221 28.0275L45.0949 27.7946C39.0836 28.4954 37.8907 30.5351 37.8429 30.6215ZM36.8272 38.2258C35.8626 37.8189 35.3833 38.768 35.3833 38.768C35.3833 38.768 34.6635 37.6649 33.7987 38.4662C32.9341 39.2675 32.3586 39.0093 32.3586 39.0093C32.7711 39.2521 32.7198 39.1544 33.6633 40.0366C34.7662 41.068 36.4847 40.6421 37.1239 40.3146C37.8801 39.9275 38.0349 39.1179 38.9976 38.6079C38.4068 38.7249 37.792 38.6325 36.8272 38.2258ZM53.1502 51.6115L49.9685 36.5629L54.5424 51.6115H53.1502ZM49.3459 51.6115V35.9136L51.0348 51.6102L51.2684 51.5853L49.5727 35.8262L52.9101 51.6115H49.3459ZM48.9041 35.8267L47.2085 51.5853L47.442 51.6103L49.111 36.0985V51.6115H45.5667L48.9041 35.8267ZM44.58 49.4222C45.5977 46.1745 46.7546 42.4858 48.0646 38.3128C48.1451 38.0567 48.2229 37.8024 48.2997 37.549L45.3268 51.6116H43.9146L44.58 49.4222ZM26.9964 29.8903C27.9515 29.9115 29.3526 30.1147 30.9909 30.8843C30.7418 30.9599 30.3271 31.0554 29.8198 31.0554C29.8143 31.0554 29.8087 31.0553 29.803 31.0553C28.7571 31.051 27.8142 30.6592 26.9964 29.8903ZM38.0034 69.6873C32.3468 69.6566 30.2271 66.6547 28.1784 63.7501C26.3955 61.2225 24.5567 58.6203 20.3997 58.0932C21.4252 57.8965 22.7574 57.447 24.2755 56.4764C27.915 54.1496 31.0925 49.846 33.7207 43.6851C34.4696 43.9953 35.2281 44.1084 36.0044 44.1673C39.9336 44.4647 42.9366 42.1869 45.4626 36.9967L45.2513 36.8944C42.7729 41.9869 39.838 44.2238 36.0222 43.9336C33.0021 43.7043 30.2559 42.6169 27.2278 31.5858C27.0924 31.0925 26.9782 30.5994 26.8856 30.107C27.9411 31.071 29.0405 31.2865 29.802 31.2897C29.8083 31.2897 29.8141 31.2899 29.8202 31.2899C30.5677 31.2899 31.1203 31.0966 31.2896 31.0295C31.6072 31.1895 31.933 31.3709 32.2656 31.5764L32.3892 31.377C30.0225 29.9149 28.0132 29.6428 26.8049 29.646C26.581 28.2583 26.5274 26.8775 26.6445 25.5147C27.7097 25.3933 29.0053 25.5912 30.5004 26.1045C33.4043 27.1015 34.7039 28.8016 34.4741 31.2985L33.8921 35.9879C33.8867 36.0317 33.9062 36.0747 33.9428 36.0994C33.9791 36.1241 34.0265 36.1264 34.0653 36.105L35.5179 35.3077L35.4045 35.1023L34.1535 35.7891L34.7077 31.3237C34.9459 28.7363 33.5562 26.9056 30.5769 25.883C29.0714 25.366 27.7582 25.1624 26.6667 25.2765C26.7204 24.7438 26.8 24.2141 26.9061 23.6878C27.0838 22.8048 27.3375 21.934 27.6612 21.0899C27.9221 20.7732 31.6186 16.3386 34.4912 15.5669C37.9807 16.3316 41.4814 18.7731 43.2605 20.1628C45.9127 22.2347 47.879 24.3708 48.4505 25.4103C48.4762 25.4571 48.5305 25.4803 48.5822 25.4676C48.6341 25.4545 48.6705 25.4083 48.671 25.355C48.6785 24.4906 48.8996 23.8327 49.2936 23.5022C49.5273 23.3063 49.8194 23.2312 50.1384 23.2835C50.2388 23.3001 50.336 23.3525 50.4272 23.4393C50.7742 23.7692 51.0058 24.566 51.0318 25.5189C51.0612 26.604 50.8375 27.7536 50.4017 28.7559C49.9577 29.7769 49.9161 30.8576 49.8826 31.7258C49.8393 32.8499 49.7864 33.4917 49.2051 33.6092C48.8329 33.6847 48.5479 33.634 48.3582 33.4595C47.9893 33.1204 48.0683 32.4127 48.0692 32.4056L47.836 32.3776C47.832 32.4113 47.7411 33.2102 48.1982 33.6312C48.4106 33.8269 48.7003 33.9055 49.0621 33.868L44.3536 49.3594C40.0342 63.1438 38.2355 68.9388 38.0034 69.6873ZM49.4076 33.9094L49.3846 33.8008C50.0444 33.5732 50.0779 32.7558 50.1173 31.7348C50.15 30.8862 50.1907 29.83 50.6171 28.8492C51.5748 26.6465 51.3937 24.0565 50.6001 23.2801C50.4132 19.3762 49.2375 16.414 47.1051 14.4757C45.6277 13.1327 42.8647 11.581 38.0838 11.8131C35.1019 11.9584 31.8083 14.0326 29.488 17.2265C28.1115 19.1213 27.1391 21.3396 26.6757 23.6417C26.5646 24.1933 26.4819 24.7487 26.4276 25.3071C26.4105 25.3096 26.3935 25.3123 26.3767 25.315L26.4089 25.5121C26.293 26.8779 26.346 28.2611 26.5678 29.6511C25.9819 29.6734 25.6344 29.7588 25.5942 29.7693L25.6532 29.9962C25.6629 29.9936 26.0081 29.9088 26.6078 29.8914C26.7084 30.4717 26.8383 31.0527 26.9974 31.6344C27.0071 31.9839 27.1391 38.9704 23.0301 41.6358C20.7717 43.1009 19.5206 45.8115 19.8427 48.5411C20.1161 50.8593 21.4696 52.614 23.5561 53.3553C25.4003 54.0102 27.2299 53.2186 28.1531 52.691C26.8907 54.1822 25.5541 55.3805 24.1487 56.279C21.8025 57.7791 19.9205 58.0057 18.9536 57.9976C18.9175 57.9973 18.8826 57.9959 18.8462 57.9958C18.8335 57.9957 18.8217 57.9951 18.8089 57.9951C14.1396 57.9951 10.7376 61.2 8.70579 63.8885C6.51165 66.792 5.40008 69.7357 5.38904 69.7651L5.33008 69.9232H31.2946H38.0895C38.141 69.9232 38.1866 69.8897 38.2017 69.8406C38.2212 69.7778 39.7679 64.7857 43.8207 51.846H54.7007C54.7379 51.846 54.7728 51.8284 54.795 51.7986C54.8172 51.7688 54.8239 51.7303 54.8131 51.6948L49.4076 33.9094ZM49.2285 52.9198C48.5214 52.9198 47.9484 53.4917 47.9484 54.1973C47.9484 54.9029 48.5214 55.475 49.2285 55.475C49.9355 55.475 50.5086 54.9029 50.5086 54.1973C50.5086 53.4917 49.9355 52.9198 49.2285 52.9198ZM62.0476 62.9191L62.7399 69.6888H56.293V62.9191H56.0581V69.806C56.0581 69.8708 56.1106 69.9232 56.1755 69.9232H62.8699C62.9031 69.9232 62.9348 69.9091 62.957 69.8845C62.9794 69.8599 62.99 69.8271 62.9868 69.794L62.2838 62.9191H62.0476ZM64.0926 35.467C63.8248 36.0782 63.0964 37.6554 62.0722 39.2151C61.9698 39.3713 61.8594 39.5415 61.7443 39.7209C61.7058 39.7812 61.6665 39.8424 61.6268 39.9045C61.5881 39.9652 61.549 40.0268 61.5094 40.0891C61.2211 40.543 60.9135 41.0351 60.6197 41.5089C60.54 41.6373 60.4616 41.7641 60.3848 41.8885C60.0057 42.502 59.6681 43.0543 59.4517 43.4092C59.7404 43.2383 60.0511 43.0608 60.3848 42.8763C60.4108 42.8618 60.4363 42.8476 60.4628 42.833C60.5158 42.8038 60.5674 42.7754 60.6197 42.7465C60.9309 42.5748 61.2276 42.4102 61.5094 42.2529C61.5488 42.2308 61.5878 42.2091 61.6268 42.1871C61.6663 42.1651 61.7055 42.1432 61.7443 42.1214C62.484 41.7064 63.1193 41.3408 63.6632 41.0144C63.5162 40.9594 63.375 40.8596 63.2664 40.7225C62.9738 40.3528 62.9197 39.7045 63.6455 38.9944C64.7951 37.8695 64.3265 36.1217 64.0926 35.467ZM67.7616 30.3872C67.773 30.5373 67.7872 30.6888 67.8034 30.8416C67.9067 31.8066 68.1097 32.827 68.4186 33.9359C68.4664 34.1079 68.5164 34.2819 68.5695 34.4582L68.5815 34.4981C68.7008 34.8942 68.7564 35.081 68.6405 35.7036C68.7766 35.965 68.9199 36.236 69.0733 36.5202C69.4915 37.2957 69.6833 38.0649 69.6503 38.8239C69.6963 38.6949 69.741 38.5626 69.7837 38.4276C69.8964 38.0719 69.9948 37.6986 70.0636 37.3226C70.0809 37.2276 70.0959 37.1328 70.1092 37.0378C70.2053 36.3533 70.1905 35.6744 69.9684 35.0971C68.8032 32.068 68.4011 30.0085 68.2679 28.8189C68.2136 28.3345 68.2037 27.9935 68.2053 27.7914C67.7835 28.1239 67.6505 28.9244 67.7616 30.3872ZM65.893 29.274C65.5844 29.6418 65.1974 30.59 65.5479 31.756C65.7951 32.5783 66.0427 33.1709 66.4031 33.8804C66.7402 34.496 67.1253 35.2079 67.5474 35.9897C67.6323 36.1471 67.716 36.302 67.7979 36.4537C67.9001 36.6416 68.0075 36.8398 68.1207 37.0502C68.2312 37.2542 68.3363 37.4474 68.4339 37.6257C68.5452 37.829 68.6253 38.0307 68.6785 38.2295C68.7663 38.5578 68.7805 38.8788 68.7399 39.1879C68.6012 40.245 67.8211 41.1664 67.1408 41.7854L67.3545 42.0798L67.4397 42.197L67.5049 42.2868C67.5371 42.2573 67.5691 42.2273 67.601 42.197C67.642 42.1585 67.6825 42.1194 67.7229 42.0798C67.9177 41.8886 68.1075 41.6858 68.2854 41.4694C68.4693 41.2458 68.628 41.0203 68.767 40.7937C68.7905 40.7555 68.8133 40.7171 68.8355 40.6788C68.9481 40.4844 69.044 40.2892 69.1237 40.0928C69.5823 38.9632 69.4991 37.8042 68.8663 36.6314C68.7511 36.4176 68.6416 36.2119 68.5361 36.0111C66.695 32.5081 66.3023 30.9236 65.984 29.6378C65.9533 29.5138 65.9235 29.3931 65.893 29.274ZM62.2637 60.2419C61.953 58.9995 61.6302 57.2506 61.4105 54.858C61.3236 53.9116 61.2577 53.0961 61.2132 52.4199C61.2049 52.2975 61.1977 52.1799 61.1911 52.0665C61.18 51.8807 61.171 51.7068 61.1641 51.5462C61.162 51.4981 61.1605 51.449 61.1592 51.4V51.3999C61.1569 51.3171 61.1556 51.2331 61.1558 51.1475C61.1575 50.4293 61.2493 49.6167 61.5093 48.7625C61.5448 48.6457 61.5847 48.5277 61.6267 48.4095C61.6635 48.3063 61.7024 48.2028 61.7442 48.0987C62.2667 46.8012 63.2048 45.4419 64.816 44.1949C64.8723 44.1513 64.9254 44.1103 64.9385 44.0972C64.97 44.0657 65.0305 44.0296 65.2171 43.9203C65.4995 43.7548 65.958 43.4849 66.4711 43.1191C66.5388 43.0708 66.6073 43.0208 66.6767 42.969C66.7279 42.9311 66.7789 42.8928 66.8307 42.8529L66.8134 42.8291L66.7524 42.745L66.6772 42.6415L66.602 42.5379L66.4601 42.3428C66.2352 42.5085 66.0855 42.6014 66.0781 42.606L66.0168 42.5059L65.9556 42.4059C65.9576 42.4046 66.0065 42.3743 66.0865 42.3205C66.1593 42.2716 66.2582 42.2028 66.3764 42.1151C66.3846 42.0993 66.3954 42.0848 66.4102 42.0742L66.6721 41.8847C66.9642 41.6469 67.3046 41.3377 67.6131 40.9744C68.5756 39.8408 68.7824 38.752 68.2276 37.7381C68.1504 37.5969 68.0677 37.445 67.9822 37.2876C67.9659 37.2574 67.9501 37.2286 67.9335 37.1979H67.9333C67.9267 37.1856 67.92 37.1731 67.9134 37.1608C67.8104 36.9709 67.7026 36.7714 67.5914 36.5659C67.3825 36.1817 67.1949 35.8409 67.0226 35.5275C66.6853 34.9146 66.4177 34.4281 66.1932 33.9863C65.6415 32.9796 65.1428 32.0931 64.9221 31.7761C64.7363 32.129 64.6725 32.9794 64.9756 33.8669C65.1173 34.2814 65.4464 34.9233 65.7946 35.6029C66.0868 36.1724 66.3885 36.7613 66.6207 37.2918C67.1555 38.6066 66.9086 39.2978 64.1924 40.9709C64.1544 40.9942 64.1153 41.018 64.0764 41.0418C63.4371 41.432 62.6664 41.8754 61.7442 42.3908C61.7052 42.4126 61.6663 42.4344 61.6267 42.4564C61.588 42.478 61.5485 42.5 61.5093 42.5218C61.2264 42.6794 60.9302 42.8433 60.6196 43.0144C60.605 43.0225 60.5909 43.0302 60.5762 43.0383C60.5114 43.0741 60.4477 43.1095 60.3846 43.1445C57.5982 44.6971 56.5157 45.7148 56.0996 46.6854C55.957 47.0177 55.8925 47.3448 55.8647 47.6856C55.8405 47.981 55.8436 48.2871 55.8471 48.6164C55.852 49.0803 55.8577 49.6064 55.7875 50.2075C55.6536 53.1399 55.2279 61.5633 55.171 62.6847H56.058H56.2929H62.0236H62.2599H63.0932C62.9532 62.4048 62.6799 61.7818 62.381 60.6906C62.3422 60.5492 62.303 60.3995 62.2637 60.2419Z" fill="white"/>
<mask id="mask0_9908_6677" style="mask-type:alpha" maskUnits="userSpaceOnUse" x="5" y="0" width="90" height="70">
<path fill-rule="evenodd" clip-rule="evenodd" d="M67.3981 42.5392L67.3289 42.444L67.2347 42.3143L67.1496 42.1971L67.0645 42.0799L66.9744 41.9556L66.77 42.1034L66.6432 42.1951L66.6474 42.201L66.732 42.3174L66.8073 42.421L66.8824 42.5246L67.0154 42.7077L67.0739 42.7884L67.0836 42.8017L67.1441 42.885L67.3448 42.7397L67.4752 42.6455L67.4674 42.6346L67.4076 42.5522L67.3981 42.5392ZM67.5933 30.9833C67.5738 30.9906 67.5559 30.9991 67.5356 31.0054L67.5566 31.089L67.6447 31.3317C67.6255 31.2147 67.609 31.0988 67.5933 30.9833ZM86.0824 62.0862L85.834 61.6597L83.5864 57.8039L89.7112 51.6911L91.9036 52.9492L94.0204 54.1639L86.0824 62.0862ZM64.3406 62.1596L66.1671 59.0258L66.8223 57.902H83.3718L84.0269 59.0258L85.8535 62.1596H64.3406ZM67.3497 50.1062C68.0567 50.1062 68.6299 50.6782 68.6299 51.3838C68.6299 52.0894 68.0567 52.6614 67.3497 52.6614C66.6427 52.6614 66.0695 52.0894 66.0695 51.3838C66.0695 50.6782 66.6427 50.1062 67.3497 50.1062ZM73.6496 47.3739C73.6496 47.3706 73.6499 47.3673 73.6503 47.3639C73.7184 46.779 73.7131 46.2618 73.7082 45.8055C73.6983 44.8716 73.6896 44.0649 74.3131 43.1734C74.8136 42.4576 75.7021 41.7152 77.1199 40.8399C77.3122 40.5228 78.992 37.7576 79.9758 36.2592C81.2634 34.2981 82.0776 32.3111 82.0857 32.2913C82.1071 32.2386 82.1577 32.2038 82.2145 32.2024H82.2181C82.2734 32.2024 82.324 32.2345 82.3475 32.2849C82.3595 32.3107 82.6423 32.9263 82.7399 33.7351C82.8709 34.8217 82.5974 35.7316 81.9489 36.3662C81.4368 36.867 81.3034 37.3837 81.5917 37.7479C81.7241 37.915 81.9316 38.0098 82.0871 37.9881C82.4332 37.776 82.7376 37.5814 83.0046 37.401L83.7545 36.853C84.871 35.9501 84.8418 35.414 84.502 34.5788C84.2744 34.0587 83.9745 33.4736 83.6843 32.9076C83.3316 32.2194 82.9983 31.5694 82.8505 31.137C82.4885 30.0777 82.6028 29.0052 82.9367 28.6684C82.9913 28.6131 83.08 28.612 83.1363 28.6651C83.1966 28.722 83.3034 28.8781 83.4511 29.1196C83.4407 29.0859 83.4302 29.0518 83.4199 29.0172C83.1827 28.2281 83.2688 27.5721 83.3829 27.1607C83.5124 26.6931 83.7475 26.2952 83.9962 26.1221C84.0345 26.0956 84.0834 26.0892 84.1271 26.1052C84.1709 26.1213 84.204 26.1575 84.2159 26.2025C84.2645 26.3853 84.3098 26.568 84.3576 26.7614C84.653 27.9544 85.0123 29.4061 86.5619 32.4479C86.5808 32.1832 86.5364 32.0348 86.4535 31.7599L86.4414 31.7194C85.987 30.2077 85.7193 28.858 85.6232 27.5933C85.5233 26.2779 85.5477 25.0092 86.3944 24.6368C86.4408 24.6164 86.4943 24.622 86.5352 24.6514C86.5764 24.6809 86.5987 24.7297 86.5942 24.78C86.5922 24.8034 86.4075 27.1863 88.3325 32.1906C88.3804 32.3152 88.4187 32.4443 88.4498 32.5759V34.5324C88.2562 35.6247 87.819 36.6863 87.4922 37.3741C87.2932 37.8622 86.9989 38.3447 86.6078 38.8206C85.5451 40.114 84.091 40.9665 83.47 41.3306C83.3676 41.3907 83.2616 41.4529 83.2402 41.4706C83.22 41.491 83.1815 41.521 83.0965 41.5867C80.0075 43.9777 79.4603 46.7862 79.5452 48.7212C79.5801 49.5149 79.6627 50.6251 79.7909 52.0208C79.9665 53.9326 80.211 55.4215 80.4513 56.5451H73.1992C73.3516 53.5119 73.5621 49.2847 73.6496 47.3739ZM64.1116 1.1477L64.3601 1.57403L66.6075 5.42999L60.4827 11.5427L58.305 10.293L56.1735 9.0698L64.1116 1.1477ZM85.8535 1.07426L84.0269 4.20803L83.3718 5.33182H66.8223L66.1671 4.20803L64.3406 1.07426H85.8535ZM86.0824 1.1477L94.0204 9.06992L91.9036 10.2847L89.7112 11.5427L83.5864 5.42999L85.834 1.57403L86.0824 1.1477ZM89.8093 51.4769V11.7569L94.0944 9.29778V53.9361L89.8093 51.4769ZM67.2989 56.7795H82.8951L83.2635 57.6675H66.9304L67.2989 56.7795ZM88.6848 12.2322L89.5745 11.8645V51.3692L88.9656 51.1175L88.6848 51.0015V12.2322ZM83.4807 5.65603L86.4826 8.65183L89.4846 11.6479L88.5949 12.0157L83.1122 6.54386L83.4807 5.65603ZM83.4807 57.5778L83.1122 56.6899L88.5949 51.218L89.4846 51.586L86.4826 54.5819L83.4807 57.5778ZM67.2989 6.45408L67.1831 6.17497L66.9304 5.56625H83.2635L83.011 6.17497L82.8951 6.45408H67.2989ZM61.5993 12.0157L60.7096 11.6479L63.7115 8.65183L66.7135 5.65603L67.082 6.54386L61.5993 12.0157ZM94.3232 9.05992C94.3226 9.05781 94.3215 9.05593 94.3208 9.05394C94.315 9.03859 94.3067 9.02417 94.295 9.01233L94.2949 9.01221L86.1408 0.874307L86.1407 0.874189C86.1401 0.873603 86.1393 0.873252 86.1387 0.872665C86.1324 0.866453 86.1252 0.860943 86.1176 0.856372C86.1155 0.8552 86.1132 0.854496 86.111 0.853324C86.1044 0.850042 86.0978 0.846877 86.0907 0.844884C86.0882 0.844181 86.0854 0.843712 86.0827 0.843126C86.076 0.841602 86.0692 0.840782 86.0621 0.84043C86.0606 0.84043 86.0593 0.839844 86.0577 0.839844H64.1364C64.1239 0.839844 64.112 0.842305 64.1006 0.845939C64.0989 0.846525 64.0974 0.847346 64.0959 0.848049C64.0802 0.853793 64.0654 0.862116 64.0534 0.874189L64.0532 0.874307L55.8992 9.01221C55.8992 9.01221 55.8992 9.01233 55.8991 9.01233C55.8872 9.02417 55.8791 9.03859 55.8732 9.05382C55.8725 9.05593 55.8714 9.05781 55.8706 9.05992C55.8671 9.07117 55.8648 9.0829 55.8648 9.0952V46.6142C55.927 46.4641 56.0041 46.3135 56.0997 46.1603V9.29776L60.3847 11.7569V41.4423C60.4621 41.3172 60.5406 41.191 60.6196 41.0641V11.8645L61.5093 12.2323V39.6524C61.5491 39.5903 61.5883 39.5294 61.6268 39.4697C61.6667 39.4077 61.7059 39.3472 61.7442 39.2881V12.2025L63.5294 10.421C64.1545 10.7692 64.7286 11.1754 65.2434 11.6433C67.3794 13.5849 68.5576 16.5494 68.7462 20.4556C69.1366 20.8448 69.3852 21.6799 69.413 22.6984C69.4435 23.8205 69.2121 25.0093 68.7615 26.0457C68.5579 26.514 68.4432 26.9999 68.3747 27.4722C68.3834 27.4756 68.3916 27.4798 68.3992 27.4853C68.4329 27.5096 68.4515 27.5498 68.4477 27.5912C68.4457 27.6147 68.2598 30.0011 70.1877 35.0131C70.408 35.5862 70.4411 36.2421 70.3674 36.9042C78.0916 32.8076 79.2009 22.9373 80.0183 15.6566C80.5069 11.3042 80.9016 7.79898 82.51 6.68855H82.925L82.9478 6.71141C81.1728 7.48835 80.765 11.1101 80.2516 15.6828C79.4231 23.064 78.2978 33.0876 70.3287 37.1909C70.2489 37.704 70.112 38.2136 69.9539 38.6848C73.9058 38.311 76.8327 36.8599 78.8994 34.249C80.7324 31.9336 81.6647 29.0523 82.5663 26.2661C83.8148 22.4079 84.9959 18.7632 88.4498 17.5196V17.7701C85.1655 19.0035 84.0102 22.567 82.7899 26.3382C81.0081 31.8445 78.9885 38.0845 69.9341 38.9225L72.9586 48.8738C72.9717 48.9171 72.9636 48.9638 72.9367 49.0001C72.9098 49.0364 72.8671 49.0576 72.822 49.0576H61.9607C61.8875 49.2912 61.8156 49.5207 61.7442 49.7487V48.8012C61.7003 48.9436 61.6614 49.0845 61.6268 49.2241C61.5798 49.413 61.541 49.5992 61.5093 49.7822V51.0015L61.3921 51.05C61.3908 51.1358 61.3908 51.2206 61.3922 51.3037L61.5993 51.218L67.082 56.6898L66.7134 57.5778L63.7114 54.5819L61.4419 52.3168C61.4492 52.4311 61.4573 52.5496 61.4659 52.6722L66.6076 57.8039L64.3601 61.6597L64.1116 62.0862L62.5998 60.5773C62.6446 60.7421 62.6888 60.8969 62.7321 61.0409L64.0532 62.3595L64.0534 62.3597C64.0632 62.3695 64.0751 62.3767 64.0873 62.3823C64.0904 62.3837 64.0934 62.385 64.0966 62.3861C64.1093 62.3908 64.1227 62.394 64.1364 62.394H86.0577C86.0714 62.394 86.0848 62.3908 86.0976 62.3861C86.1007 62.385 86.1038 62.3837 86.1068 62.3823C86.1191 62.3767 86.1309 62.3695 86.1407 62.3597L86.1408 62.3595L94.2949 54.2215L94.295 54.2214C94.3067 54.2097 94.315 54.1953 94.3208 54.1799C94.3215 54.1779 94.3226 54.176 94.3232 54.1739C94.3268 54.1626 94.3293 54.151 94.3293 54.1386V9.0952C94.3293 9.0829 94.3268 9.07117 94.3232 9.05992ZM36.4272 30.3107C36.6695 27.892 37.8835 26.3835 40.4867 25.2667C41.7948 24.7053 43.1692 24.4612 44.3569 24.5795L44.3803 24.3463C43.1533 24.224 41.7379 24.4745 40.394 25.0512C37.7017 26.2063 36.4453 27.7723 36.1937 30.285L35.8494 33.158L36.0827 33.1859L36.4272 30.3107ZM40.366 30.0525C39.7604 30.0827 39.2868 29.9406 39.0396 29.8435C39.8323 29.3253 41.2012 28.6932 43.4872 28.2711C42.5469 29.3819 41.4728 29.9964 40.366 30.0525ZM37.8429 30.6215L38.0482 30.7353C38.0526 30.7275 38.238 30.4167 38.812 30.0004C39.2529 30.2028 41.5807 31.0749 43.8414 28.2087C44.2413 28.1414 44.6677 28.0805 45.1221 28.0275L45.0949 27.7946C39.0836 28.4954 37.8907 30.5351 37.8429 30.6215ZM36.8272 38.2258C35.8626 37.8189 35.3833 38.768 35.3833 38.768C35.3833 38.768 34.6635 37.6649 33.7987 38.4662C32.9341 39.2675 32.3586 39.0093 32.3586 39.0093C32.7711 39.2521 32.7198 39.1544 33.6633 40.0366C34.7662 41.068 36.4847 40.6421 37.1239 40.3146C37.8801 39.9275 38.0349 39.1179 38.9976 38.6079C38.4068 38.7249 37.792 38.6325 36.8272 38.2258ZM53.1502 51.6115L49.9685 36.5629L54.5424 51.6115H53.1502ZM49.3459 51.6115V35.9136L51.0348 51.6102L51.2684 51.5853L49.5727 35.8262L52.9101 51.6115H49.3459ZM48.9041 35.8267L47.2085 51.5853L47.442 51.6103L49.111 36.0985V51.6115H45.5667L48.9041 35.8267ZM44.58 49.4222C45.5977 46.1745 46.7546 42.4858 48.0646 38.3128C48.1451 38.0567 48.2229 37.8024 48.2997 37.549L45.3268 51.6116H43.9146L44.58 49.4222ZM26.9964 29.8903C27.9515 29.9115 29.3526 30.1147 30.9909 30.8843C30.7418 30.9599 30.3271 31.0554 29.8198 31.0554C29.8143 31.0554 29.8087 31.0553 29.803 31.0553C28.7571 31.051 27.8142 30.6592 26.9964 29.8903ZM38.0034 69.6873C32.3468 69.6566 30.2271 66.6547 28.1784 63.7501C26.3955 61.2225 24.5567 58.6203 20.3997 58.0932C21.4252 57.8965 22.7574 57.447 24.2755 56.4764C27.915 54.1496 31.0925 49.846 33.7207 43.6851C34.4696 43.9953 35.2281 44.1084 36.0044 44.1673C39.9336 44.4647 42.9366 42.1869 45.4626 36.9967L45.2513 36.8944C42.7729 41.9869 39.838 44.2238 36.0222 43.9336C33.0021 43.7043 30.2559 42.6169 27.2278 31.5858C27.0924 31.0925 26.9782 30.5994 26.8856 30.107C27.9411 31.071 29.0405 31.2865 29.802 31.2897C29.8083 31.2897 29.8141 31.2899 29.8202 31.2899C30.5677 31.2899 31.1203 31.0966 31.2896 31.0295C31.6072 31.1895 31.933 31.3709 32.2656 31.5764L32.3892 31.377C30.0225 29.9149 28.0132 29.6428 26.8049 29.646C26.581 28.2583 26.5274 26.8775 26.6445 25.5147C27.7097 25.3933 29.0053 25.5912 30.5004 26.1045C33.4043 27.1015 34.7039 28.8016 34.4741 31.2985L33.8921 35.9879C33.8867 36.0317 33.9062 36.0747 33.9428 36.0994C33.9791 36.1241 34.0265 36.1264 34.0653 36.105L35.5179 35.3077L35.4045 35.1023L34.1535 35.7891L34.7077 31.3237C34.9459 28.7363 33.5562 26.9056 30.5769 25.883C29.0714 25.366 27.7582 25.1624 26.6667 25.2765C26.7204 24.7438 26.8 24.2141 26.9061 23.6878C27.0838 22.8048 27.3375 21.934 27.6612 21.0899C27.9221 20.7732 31.6186 16.3386 34.4912 15.5669C37.9807 16.3316 41.4814 18.7731 43.2605 20.1628C45.9127 22.2347 47.879 24.3708 48.4505 25.4103C48.4762 25.4571 48.5305 25.4803 48.5822 25.4676C48.6341 25.4545 48.6705 25.4083 48.671 25.355C48.6785 24.4906 48.8996 23.8327 49.2936 23.5022C49.5273 23.3063 49.8194 23.2312 50.1384 23.2835C50.2388 23.3001 50.336 23.3525 50.4272 23.4393C50.7742 23.7692 51.0058 24.566 51.0318 25.5189C51.0612 26.604 50.8375 27.7536 50.4017 28.7559C49.9577 29.7769 49.9161 30.8576 49.8826 31.7258C49.8393 32.8499 49.7864 33.4917 49.2051 33.6092C48.8329 33.6847 48.5479 33.634 48.3582 33.4595C47.9893 33.1204 48.0683 32.4127 48.0692 32.4056L47.836 32.3776C47.832 32.4113 47.7411 33.2102 48.1982 33.6312C48.4106 33.8269 48.7003 33.9055 49.0621 33.868L44.3536 49.3594C40.0342 63.1438 38.2355 68.9388 38.0034 69.6873ZM49.4076 33.9094L49.3846 33.8008C50.0444 33.5732 50.0779 32.7558 50.1173 31.7348C50.15 30.8862 50.1907 29.83 50.6171 28.8492C51.5748 26.6465 51.3937 24.0565 50.6001 23.2801C50.4132 19.3762 49.2375 16.414 47.1051 14.4757C45.6277 13.1327 42.8647 11.581 38.0838 11.8131C35.1019 11.9584 31.8083 14.0326 29.488 17.2265C28.1115 19.1213 27.1391 21.3396 26.6757 23.6417C26.5646 24.1933 26.4819 24.7487 26.4276 25.3071C26.4105 25.3096 26.3935 25.3123 26.3767 25.315L26.4089 25.5121C26.293 26.8779 26.346 28.2611 26.5678 29.6511C25.9819 29.6734 25.6344 29.7588 25.5942 29.7693L25.6532 29.9962C25.6629 29.9936 26.0081 29.9088 26.6078 29.8914C26.7084 30.4717 26.8383 31.0527 26.9974 31.6344C27.0071 31.9839 27.1391 38.9704 23.0301 41.6358C20.7717 43.1009 19.5206 45.8115 19.8427 48.5411C20.1161 50.8593 21.4696 52.614 23.5561 53.3553C25.4003 54.0102 27.2299 53.2186 28.1531 52.691C26.8907 54.1822 25.5541 55.3805 24.1487 56.279C21.8025 57.7791 19.9205 58.0057 18.9536 57.9976C18.9175 57.9973 18.8826 57.9959 18.8462 57.9958C18.8335 57.9957 18.8217 57.9951 18.8089 57.9951C14.1396 57.9951 10.7376 61.2 8.70579 63.8885C6.51165 66.792 5.40008 69.7357 5.38904 69.7651L5.33008 69.9232H31.2946H38.0895C38.141 69.9232 38.1866 69.8897 38.2017 69.8406C38.2212 69.7778 39.7679 64.7857 43.8207 51.846H54.7007C54.7379 51.846 54.7728 51.8284 54.795 51.7986C54.8172 51.7688 54.8239 51.7303 54.8131 51.6948L49.4076 33.9094ZM49.2285 52.9198C48.5214 52.9198 47.9484 53.4917 47.9484 54.1973C47.9484 54.9029 48.5214 55.475 49.2285 55.475C49.9355 55.475 50.5086 54.9029 50.5086 54.1973C50.5086 53.4917 49.9355 52.9198 49.2285 52.9198ZM62.0476 62.9191L62.7399 69.6888H56.293V62.9191H56.0581V69.806C56.0581 69.8708 56.1106 69.9232 56.1755 69.9232H62.8699C62.9031 69.9232 62.9348 69.9091 62.957 69.8845C62.9794 69.8599 62.99 69.8271 62.9868 69.794L62.2838 62.9191H62.0476ZM64.0926 35.467C63.8248 36.0782 63.0964 37.6554 62.0722 39.2151C61.9698 39.3713 61.8594 39.5415 61.7443 39.7209C61.7058 39.7812 61.6665 39.8424 61.6268 39.9045C61.5881 39.9652 61.549 40.0268 61.5094 40.0891C61.2211 40.543 60.9135 41.0351 60.6197 41.5089C60.54 41.6373 60.4616 41.7641 60.3848 41.8885C60.0057 42.502 59.6681 43.0543 59.4517 43.4092C59.7404 43.2383 60.0511 43.0608 60.3848 42.8763C60.4108 42.8618 60.4363 42.8476 60.4628 42.833C60.5158 42.8038 60.5674 42.7754 60.6197 42.7465C60.9309 42.5748 61.2276 42.4102 61.5094 42.2529C61.5488 42.2308 61.5878 42.2091 61.6268 42.1871C61.6663 42.1651 61.7055 42.1432 61.7443 42.1214C62.484 41.7064 63.1193 41.3408 63.6632 41.0144C63.5162 40.9594 63.375 40.8596 63.2664 40.7225C62.9738 40.3528 62.9197 39.7045 63.6455 38.9944C64.7951 37.8695 64.3265 36.1217 64.0926 35.467ZM67.7616 30.3872C67.773 30.5373 67.7872 30.6888 67.8034 30.8416C67.9067 31.8066 68.1097 32.827 68.4186 33.9359C68.4664 34.1079 68.5164 34.2819 68.5695 34.4582L68.5815 34.4981C68.7008 34.8942 68.7564 35.081 68.6405 35.7036C68.7766 35.965 68.9199 36.236 69.0733 36.5202C69.4915 37.2957 69.6833 38.0649 69.6503 38.8239C69.6963 38.6949 69.741 38.5626 69.7837 38.4276C69.8964 38.0719 69.9948 37.6986 70.0636 37.3226C70.0809 37.2276 70.0959 37.1328 70.1092 37.0378C70.2053 36.3533 70.1905 35.6744 69.9684 35.0971C68.8032 32.068 68.4011 30.0085 68.2679 28.8189C68.2136 28.3345 68.2037 27.9935 68.2053 27.7914C67.7835 28.1239 67.6505 28.9244 67.7616 30.3872ZM65.893 29.274C65.5844 29.6418 65.1974 30.59 65.5479 31.756C65.7951 32.5783 66.0427 33.1709 66.4031 33.8804C66.7402 34.496 67.1253 35.2079 67.5474 35.9897C67.6323 36.1471 67.716 36.302 67.7979 36.4537C67.9001 36.6416 68.0075 36.8398 68.1207 37.0502C68.2312 37.2542 68.3363 37.4474 68.4339 37.6257C68.5452 37.829 68.6253 38.0307 68.6785 38.2295C68.7663 38.5578 68.7805 38.8788 68.7399 39.1879C68.6012 40.245 67.8211 41.1664 67.1408 41.7854L67.3545 42.0798L67.4397 42.197L67.5049 42.2868C67.5371 42.2573 67.5691 42.2273 67.601 42.197C67.642 42.1585 67.6825 42.1194 67.7229 42.0798C67.9177 41.8886 68.1075 41.6858 68.2854 41.4694C68.4693 41.2458 68.628 41.0203 68.767 40.7937C68.7905 40.7555 68.8133 40.7171 68.8355 40.6788C68.9481 40.4844 69.044 40.2892 69.1237 40.0928C69.5823 38.9632 69.4991 37.8042 68.8663 36.6314C68.7511 36.4176 68.6416 36.2119 68.5361 36.0111C66.695 32.5081 66.3023 30.9236 65.984 29.6378C65.9533 29.5138 65.9235 29.3931 65.893 29.274ZM62.2637 60.2419C61.953 58.9995 61.6302 57.2506 61.4105 54.858C61.3236 53.9116 61.2577 53.0961 61.2132 52.4199C61.2049 52.2975 61.1977 52.1799 61.1911 52.0665C61.18 51.8807 61.171 51.7068 61.1641 51.5462C61.162 51.4981 61.1605 51.449 61.1592 51.4V51.3999C61.1569 51.3171 61.1556 51.2331 61.1558 51.1475C61.1575 50.4293 61.2493 49.6167 61.5093 48.7625C61.5448 48.6457 61.5847 48.5277 61.6267 48.4095C61.6635 48.3063 61.7024 48.2028 61.7442 48.0987C62.2667 46.8012 63.2048 45.4419 64.816 44.1949C64.8723 44.1513 64.9254 44.1103 64.9385 44.0972C64.97 44.0657 65.0305 44.0296 65.2171 43.9203C65.4995 43.7548 65.958 43.4849 66.4711 43.1191C66.5388 43.0708 66.6073 43.0208 66.6767 42.969C66.7279 42.9311 66.7789 42.8928 66.8307 42.8529L66.8134 42.8291L66.7524 42.745L66.6772 42.6415L66.602 42.5379L66.4601 42.3428C66.2352 42.5085 66.0855 42.6014 66.0781 42.606L66.0168 42.5059L65.9556 42.4059C65.9576 42.4046 66.0065 42.3743 66.0865 42.3205C66.1593 42.2716 66.2582 42.2028 66.3764 42.1151C66.3846 42.0993 66.3954 42.0848 66.4102 42.0742L66.6721 41.8847C66.9642 41.6469 67.3046 41.3377 67.6131 40.9744C68.5756 39.8408 68.7824 38.752 68.2276 37.7381C68.1504 37.5969 68.0677 37.445 67.9822 37.2876C67.9659 37.2574 67.9501 37.2286 67.9335 37.1979H67.9333C67.9267 37.1856 67.92 37.1731 67.9134 37.1608C67.8104 36.9709 67.7026 36.7714 67.5914 36.5659C67.3825 36.1817 67.1949 35.8409 67.0226 35.5275C66.6853 34.9146 66.4177 34.4281 66.1932 33.9863C65.6415 32.9796 65.1428 32.0931 64.9221 31.7761C64.7363 32.129 64.6725 32.9794 64.9756 33.8669C65.1173 34.2814 65.4464 34.9233 65.7946 35.6029C66.0868 36.1724 66.3885 36.7613 66.6207 37.2918C67.1555 38.6066 66.9086 39.2978 64.1924 40.9709C64.1544 40.9942 64.1153 41.018 64.0764 41.0418C63.4371 41.432 62.6664 41.8754 61.7442 42.3908C61.7052 42.4126 61.6663 42.4344 61.6267 42.4564C61.588 42.478 61.5485 42.5 61.5093 42.5218C61.2264 42.6794 60.9302 42.8433 60.6196 43.0144C60.605 43.0225 60.5909 43.0302 60.5762 43.0383C60.5114 43.0741 60.4477 43.1095 60.3846 43.1445C57.5982 44.6971 56.5157 45.7148 56.0996 46.6854C55.957 47.0177 55.8925 47.3448 55.8647 47.6856C55.8405 47.981 55.8436 48.2871 55.8471 48.6164C55.852 49.0803 55.8577 49.6064 55.7875 50.2075C55.6536 53.1399 55.2279 61.5633 55.171 62.6847H56.058H56.2929H62.0236H62.2599H63.0932C62.9532 62.4048 62.6799 61.7818 62.381 60.6906C62.3422 60.5492 62.303 60.3995 62.2637 60.2419Z" fill="white"/>
</mask>
<g mask="url(#mask0_9908_6677)">
</g>
</svg>
