<svg viewBox="0 0 48 27" fill="none" xmlns="http://www.w3.org/2000/svg">
<path fill-rule="evenodd" clip-rule="evenodd" d="M4.43695 17.455C4.43842 17.4328 4.44106 17.4105 4.44306 17.3882C4.44697 17.3424 4.45118 17.2967 4.45698 17.2509C4.46046 17.2244 4.46499 17.198 4.46911 17.1716C4.47543 17.1302 4.48218 17.0888 4.49019 17.0474C4.49567 17.0195 4.50179 16.9916 4.50801 16.9638C4.51687 16.9239 4.52625 16.884 4.53658 16.8443C4.54396 16.816 4.55166 16.7879 4.55977 16.7596C4.57105 16.72 4.58339 16.6804 4.59625 16.641C4.60532 16.6133 4.61439 16.5854 4.62419 16.5577C4.63853 16.5172 4.65403 16.477 4.66984 16.4366C4.68028 16.4103 4.69019 16.3839 4.70126 16.3576C4.71961 16.3141 4.73943 16.2707 4.75956 16.2273C4.77011 16.2046 4.77991 16.1817 4.79098 16.1589C4.81945 16.1004 4.84981 16.0421 4.88165 15.9839C4.88566 15.9766 4.88903 15.9691 4.89304 15.9619C4.92931 15.8965 4.96789 15.8314 5.00827 15.7664C5.02103 15.7457 5.03516 15.7252 5.04844 15.7046C5.07691 15.6604 5.10579 15.616 5.13626 15.5719C5.15345 15.5469 5.17179 15.5221 5.18961 15.4973C5.21797 15.4577 5.24675 15.418 5.2768 15.3786C5.29673 15.3523 5.3176 15.3261 5.33827 15.2999C5.36821 15.262 5.39857 15.2241 5.42999 15.1864C5.45213 15.1598 5.47469 15.1334 5.49746 15.107C5.52973 15.0695 5.56294 15.0321 5.59657 14.9948C5.62019 14.9689 5.6437 14.9428 5.66794 14.917C5.70347 14.879 5.74006 14.8412 5.77707 14.8035C5.80131 14.7786 5.82535 14.7538 5.85023 14.7292C5.89082 14.689 5.93289 14.6489 5.97527 14.6089C5.99836 14.5872 6.02061 14.5654 6.04412 14.5438C6.09894 14.4933 6.15545 14.4431 6.21302 14.393C6.22419 14.3832 6.23484 14.3734 6.24622 14.3636C6.2438 14.3671 6.24169 14.3708 6.23937 14.3744C6.19668 14.4371 6.15651 14.5001 6.11855 14.5635C6.11033 14.5772 6.10316 14.5911 6.09515 14.6048C6.06594 14.6551 6.03811 14.7056 6.01186 14.7562C6.001 14.7774 5.99067 14.7987 5.98023 14.8199C5.95809 14.865 5.93711 14.9103 5.9175 14.9557C5.90833 14.9766 5.89905 14.9976 5.8904 15.0186C5.86826 15.0726 5.84791 15.1269 5.82915 15.1813C5.82535 15.1924 5.82082 15.2035 5.81713 15.2145C5.79541 15.2799 5.77643 15.3455 5.75977 15.4113C5.75514 15.4292 5.75166 15.4472 5.74744 15.4651C5.73595 15.5137 5.72582 15.5625 5.71708 15.6114C5.71307 15.6337 5.70949 15.6562 5.70611 15.6785C5.69894 15.7257 5.69325 15.7728 5.6885 15.8199C5.6866 15.8406 5.68408 15.8611 5.6825 15.8818C5.67754 15.9485 5.67416 16.0155 5.67416 16.0826C5.67416 17.947 7.61481 19.6756 11.1384 20.9499C14.578 22.194 19.1458 22.8791 24.0002 22.8791C28.8546 22.8791 33.4223 22.194 36.8618 20.9499C40.3855 19.6756 42.326 17.947 42.326 16.0826C42.326 16.0136 42.3225 15.9446 42.3171 15.8758C42.316 15.8632 42.3152 15.8508 42.3141 15.8383C42.3079 15.7722 42.2993 15.7062 42.2882 15.6403C42.2861 15.6275 42.2835 15.6149 42.2812 15.6022C42.2688 15.534 42.2544 15.4661 42.2366 15.3983C42.2362 15.3969 42.2357 15.3954 42.2354 15.3938C42.2178 15.327 42.1969 15.2607 42.1741 15.1944C42.1699 15.1819 42.1659 15.1694 42.1614 15.1571C42.1424 15.1034 42.122 15.05 42.0995 14.9966C42.1121 15.0104 42.124 15.0242 42.1364 15.0381C42.1665 15.0719 42.1966 15.1057 42.2256 15.1397C42.2425 15.1595 42.2588 15.1794 42.2752 15.1993C42.3013 15.2305 42.327 15.2617 42.3518 15.293C42.3685 15.314 42.3849 15.3353 42.4012 15.3563C42.4246 15.3867 42.4478 15.4171 42.4703 15.4475C42.4862 15.4692 42.5019 15.4908 42.5173 15.5123C42.5391 15.5428 42.5605 15.5733 42.5814 15.604C42.5959 15.6254 42.6105 15.6469 42.6247 15.6684C42.6454 15.6997 42.6653 15.731 42.6849 15.7625C42.6979 15.7833 42.7112 15.8041 42.7237 15.825C42.744 15.8583 42.763 15.8918 42.7821 15.9252C42.793 15.9442 42.8041 15.9631 42.8146 15.9821C42.8367 16.0224 42.8577 16.063 42.8784 16.1037C42.8845 16.1156 42.891 16.1276 42.897 16.1396C42.9232 16.1924 42.9479 16.2453 42.9713 16.2984C42.9771 16.3112 42.982 16.3242 42.9875 16.337C43.0047 16.3772 43.0216 16.4174 43.0372 16.4577C43.0445 16.4768 43.0513 16.4961 43.0584 16.5154C43.071 16.5495 43.0834 16.5835 43.0948 16.6178C43.102 16.6391 43.1085 16.6604 43.1152 16.6818C43.1254 16.7141 43.1352 16.7462 43.1444 16.7786C43.1506 16.8008 43.1565 16.8232 43.1623 16.8454C43.1706 16.8773 43.1784 16.9089 43.1857 16.9408C43.1909 16.9632 43.1958 16.9857 43.2005 17.0081C43.2071 17.0401 43.2131 17.0722 43.2189 17.1044C43.2228 17.1265 43.2267 17.1486 43.2302 17.1708C43.2354 17.204 43.2396 17.2373 43.2437 17.2705C43.2462 17.2915 43.2493 17.3125 43.2514 17.3336C43.2551 17.37 43.2578 17.4066 43.2602 17.4433C43.2615 17.461 43.2633 17.4789 43.2641 17.4966C43.267 17.5509 43.2686 17.6053 43.2686 17.6598C43.2686 19.7068 41.288 21.6531 37.6917 23.1403C37.3476 23.2824 36.993 23.4188 36.6283 23.549C36.3851 23.6358 36.1376 23.7199 35.8858 23.8013C35.76 23.842 35.633 23.8819 35.5051 23.9212C35.1814 24.0205 34.8494 24.1143 34.5131 24.2047C31.392 25.0447 27.7458 25.4997 23.9261 25.5057C23.7378 25.5054 23.5492 25.5043 23.3607 25.502C22.7949 25.4955 22.2298 25.4801 21.6744 25.4564L21.3309 25.4399C16.6574 25.1926 12.3581 24.2542 9.22482 22.7976C6.13278 21.3599 4.42999 19.5354 4.42999 17.6598C4.42999 17.5914 4.43252 17.5231 4.43695 17.455ZM6.58814 22.6901C10.4187 24.5234 15.6449 25.6869 21.3039 25.9664L21.3039 25.9663C21.304 25.9664 21.3041 25.9664 21.3041 25.9664L21.6514 25.9831C21.6625 25.9836 21.6736 25.9839 21.6847 25.9843C22.4079 26.0168 23.1358 26.0333 23.8492 26.0333L23.9266 26.0329L24.0001 26.0333C30.2417 26.0333 36.1138 24.9875 40.5347 23.0886C45.0263 21.1591 47.5 18.5665 47.5 15.7884C47.5 13.0104 45.0263 10.4178 40.5347 8.48836C37.7115 7.27561 34.2959 6.41161 30.5706 5.94487C30.5851 6.03502 30.5966 6.12589 30.6074 6.21709C30.6178 6.30544 30.626 6.39421 30.6331 6.48351C34.2588 6.9473 37.5795 7.79274 40.3267 8.97281C44.6125 10.8138 46.9729 13.2344 46.9729 15.7884C46.9729 18.3426 44.6125 20.7631 40.3267 22.6041C39.8961 22.789 39.4512 22.966 38.9936 23.1342C39.0487 23.1074 39.1022 23.0802 39.1563 23.0534C39.1899 23.0365 39.2241 23.0199 39.2573 23.0031C39.3444 22.959 39.43 22.9144 39.5147 22.8697C39.5275 22.863 39.5407 22.8562 39.5535 22.8495C39.6513 22.7975 39.7474 22.745 39.842 22.692C39.8669 22.6782 39.8906 22.6641 39.9153 22.6502C39.9837 22.6114 40.052 22.5725 40.1188 22.5333C40.1523 22.5136 40.1848 22.4937 40.2178 22.4739C40.2745 22.44 40.331 22.406 40.3863 22.3719C40.4217 22.35 40.4562 22.328 40.491 22.3061C40.5428 22.2733 40.5944 22.2406 40.6451 22.2075C40.6801 22.1846 40.7148 22.1617 40.7492 22.1388C40.7983 22.1061 40.8468 22.0734 40.8946 22.0405C40.9285 22.0172 40.9621 21.9939 40.9955 21.9705C41.0429 21.9373 41.0894 21.9038 41.1356 21.8702C41.1677 21.847 41.1996 21.8238 41.2312 21.8004C41.2778 21.766 41.3232 21.7312 41.3686 21.6964C41.3979 21.6737 41.4277 21.6511 41.4567 21.6285C41.5043 21.5909 41.5507 21.5533 41.597 21.5156C41.6219 21.4952 41.6473 21.4751 41.6719 21.4547C41.7306 21.4057 41.7879 21.3564 41.8445 21.3068C41.8551 21.2975 41.8663 21.2884 41.8767 21.2791C41.9431 21.2205 42.0075 21.1613 42.0707 21.1021C42.0906 21.0833 42.1095 21.0643 42.1291 21.0456C42.1716 21.0046 42.214 20.9637 42.2549 20.9227C42.2785 20.899 42.3012 20.8751 42.3241 20.8514C42.3597 20.8147 42.395 20.7781 42.4293 20.7412C42.453 20.7157 42.476 20.69 42.4992 20.6643C42.5312 20.6288 42.563 20.5932 42.594 20.5573C42.6167 20.5311 42.639 20.5047 42.6611 20.4783C42.6908 20.4428 42.7199 20.4072 42.7486 20.3714C42.77 20.3448 42.7912 20.318 42.812 20.2911C42.8398 20.2553 42.8668 20.2193 42.8935 20.1831C42.9131 20.1566 42.9328 20.1299 42.9518 20.1032C42.9784 20.0659 43.0041 20.0283 43.0295 19.9907C43.0467 19.9652 43.0643 19.9397 43.0808 19.9142C43.1075 19.8733 43.1327 19.8323 43.158 19.7912C43.1717 19.7686 43.1861 19.7461 43.1995 19.7237C43.2329 19.6671 43.2648 19.6102 43.2955 19.5533C43.2993 19.5462 43.3036 19.5392 43.3074 19.532C43.3415 19.4681 43.3735 19.4038 43.4041 19.3395C43.4142 19.3181 43.4232 19.2966 43.4331 19.2752C43.4528 19.2317 43.4724 19.1882 43.4906 19.1447C43.5013 19.1188 43.511 19.093 43.5212 19.0672C43.5367 19.0276 43.5522 18.9882 43.5664 18.9486C43.5762 18.921 43.5853 18.8935 43.5946 18.8659C43.6074 18.8275 43.6199 18.7889 43.6317 18.7505C43.6401 18.7224 43.648 18.6943 43.6558 18.6661C43.6666 18.6277 43.6766 18.5893 43.6861 18.5508C43.693 18.5225 43.6997 18.4943 43.706 18.4661C43.7147 18.4271 43.7224 18.3881 43.7297 18.349C43.735 18.3211 43.7404 18.2933 43.745 18.2655C43.7517 18.2249 43.7572 18.1841 43.7627 18.1433C43.7661 18.1169 43.77 18.0907 43.773 18.0643C43.7779 18.0193 43.7814 17.9741 43.7847 17.9288C43.7862 17.9067 43.7887 17.8847 43.7898 17.8624C43.7935 17.7951 43.7956 17.7275 43.7956 17.6598C43.7956 17.6022 43.7944 17.5448 43.7916 17.4874C43.7909 17.4701 43.7891 17.4528 43.788 17.4353C43.7857 17.3955 43.7834 17.3555 43.7797 17.3157C43.7783 17.3012 43.7762 17.2869 43.7746 17.2727C43.7702 17.2297 43.7657 17.187 43.7598 17.1443C43.7591 17.1396 43.7581 17.1349 43.7575 17.1301C43.75 17.078 43.7416 17.0259 43.7318 16.974C43.7306 16.9671 43.7289 16.9604 43.7275 16.9534C43.7071 16.8469 43.6822 16.7409 43.6525 16.6353C43.6511 16.6306 43.6495 16.6258 43.6481 16.6211C43.6334 16.5698 43.6179 16.5184 43.6009 16.4672C43.5993 16.4622 43.5973 16.4574 43.5957 16.4524C43.5787 16.4015 43.5608 16.3506 43.5415 16.2999C43.5409 16.2981 43.5402 16.2965 43.5395 16.2947C43.3497 15.796 43.0554 15.3091 42.6598 14.8381L42.6558 14.8334C42.5688 14.73 42.477 14.6274 42.3802 14.5255C42.3766 14.5219 42.373 14.5182 42.3695 14.5145C42.3236 14.4664 42.277 14.4187 42.229 14.371C42.2253 14.3672 42.2211 14.3634 42.2172 14.3596C42.1694 14.3122 42.1208 14.2651 42.0707 14.2181C42.062 14.21 42.0529 14.202 42.0441 14.1937C41.9984 14.1512 41.9523 14.1087 41.9047 14.0663C41.8942 14.057 41.883 14.0477 41.8724 14.0383C41.8261 13.9974 41.7795 13.9566 41.7315 13.9162C41.7169 13.9035 41.7013 13.8912 41.6864 13.8788C41.6417 13.8416 41.597 13.8042 41.5509 13.7672C41.5322 13.752 41.5124 13.7371 41.4935 13.7221C41.4503 13.6879 41.4074 13.6537 41.363 13.6198C41.3396 13.6019 41.3154 13.5842 41.2917 13.5664C41.2507 13.5354 41.2098 13.5044 41.1678 13.4737C41.1405 13.4538 41.1121 13.4341 41.0845 13.4142C41.0449 13.3859 41.0057 13.3575 40.9654 13.3293C40.9335 13.3071 40.9005 13.2852 40.8683 13.2631C40.8306 13.2374 40.7936 13.2117 40.7552 13.1862C40.72 13.1627 40.6837 13.1394 40.6478 13.1161C40.6113 13.0924 40.5755 13.0685 40.5385 13.0449C40.4965 13.0182 40.4535 12.9919 40.4109 12.9653C40.3787 12.9454 40.347 12.9252 40.3144 12.9052C40.2673 12.8764 40.2188 12.848 40.1708 12.8194C40.1413 12.802 40.1127 12.7844 40.083 12.767C40.0306 12.7365 39.9772 12.7063 39.9239 12.676C39.898 12.6613 39.8726 12.6464 39.8464 12.6317C39.7916 12.5968 39.7338 12.5628 39.6774 12.5284C39.6304 12.4997 39.5849 12.4709 39.5368 12.4425C39.4845 12.4116 39.4295 12.3816 39.3758 12.3512C39.3198 12.3193 39.265 12.2871 39.2074 12.2557C39.1584 12.2289 39.1072 12.2029 39.0571 12.1763C38.9925 12.1419 38.9288 12.1074 38.8626 12.0737C38.8181 12.051 38.7716 12.0291 38.7264 12.0067C38.652 11.9699 38.5784 11.9327 38.5021 11.8965C38.464 11.8783 38.4242 11.8608 38.3857 11.843C38.3001 11.8033 38.2151 11.7634 38.1273 11.7244C38.0925 11.7089 38.056 11.6939 38.0208 11.6787C37.9273 11.6379 37.8339 11.5971 37.7379 11.5573C37.7092 11.5454 37.6792 11.5339 37.6502 11.5222C37.5461 11.4794 37.4416 11.4369 37.3345 11.3953C37.3121 11.3866 37.2888 11.3783 37.2664 11.3696C37.1513 11.3255 37.0358 11.2816 36.9177 11.2387C36.9024 11.233 36.8863 11.2278 36.871 11.2222C36.7446 11.1765 36.6172 11.1315 36.4876 11.0873C36.4856 11.0866 36.4836 11.0859 36.4814 11.0852C34.6443 10.4597 32.4704 9.97903 30.1069 9.67223C30.1033 9.68056 30.0993 9.68878 30.0956 9.69711C30.0632 9.77144 30.0304 9.84545 29.9954 9.91841C29.9899 9.92969 29.9843 9.94086 29.979 9.95214C29.943 10.0258 29.9053 10.0986 29.8668 10.1708C29.8607 10.1824 29.8551 10.1943 29.8488 10.2058C32.1109 10.5077 34.2292 10.9764 36.0867 11.589C36.2106 11.63 36.3332 11.6715 36.4547 11.7136L36.4575 11.7145C36.5925 11.7613 36.7256 11.8091 36.8576 11.8574C36.8673 11.8609 36.8772 11.8643 36.8868 11.8679C37.0035 11.9107 37.118 11.9546 37.2322 11.9987C37.2567 12.0081 37.2818 12.0172 37.3061 12.0268C37.41 12.0672 37.5117 12.1087 37.6135 12.1502C37.6469 12.1637 37.681 12.1769 37.7142 12.1906C37.8064 12.2289 37.8964 12.2679 37.987 12.3068C38.0281 12.3246 38.0703 12.3419 38.1111 12.3598C38.1905 12.3946 38.2678 12.4304 38.3458 12.4659C38.3959 12.4887 38.4471 12.511 38.4966 12.5341C38.5662 12.5666 38.6336 12.5997 38.702 12.6327C38.7579 12.6596 38.8148 12.6861 38.87 12.7132C38.9293 12.7428 38.9868 12.7729 39.0452 12.8026C39.1074 12.8343 39.1703 12.8656 39.2314 12.8976C39.2789 12.9226 39.3246 12.9484 39.3714 12.9735C39.4399 13.0106 39.5092 13.0471 39.5762 13.0847C39.6197 13.1124 39.6607 13.1404 39.703 13.1684C39.748 13.198 39.7942 13.2275 39.8378 13.2576C39.8875 13.2916 39.9344 13.3261 39.9822 13.3605C40.0168 13.3851 40.0526 13.4098 40.0862 13.4346C40.1394 13.4741 40.1896 13.5141 40.2405 13.5539C40.2662 13.574 40.2934 13.594 40.3183 13.6141C40.373 13.6582 40.4245 13.7026 40.4762 13.7469C40.4953 13.7632 40.5156 13.7795 40.5343 13.7959C40.5877 13.8428 40.638 13.8902 40.6881 13.9376C40.703 13.9517 40.7191 13.9655 40.7336 13.9796C40.7834 14.0276 40.8301 14.0761 40.8765 14.1245C40.8895 14.1381 40.9038 14.1516 40.9164 14.1652C40.9628 14.2148 41.0061 14.2646 41.049 14.3145C41.0597 14.3272 41.0717 14.3397 41.0824 14.3524C41.125 14.4033 41.1645 14.4544 41.2034 14.5055C41.2125 14.5175 41.2226 14.5292 41.2315 14.541C41.2701 14.5931 41.3056 14.6453 41.3403 14.6976C41.3478 14.7087 41.3562 14.7199 41.3634 14.731C41.3957 14.7808 41.4247 14.8308 41.4535 14.8809C41.4614 14.8947 41.4707 14.9084 41.4783 14.9222C41.5063 14.9728 41.5312 15.0236 41.5556 15.0746C41.562 15.0877 41.5696 15.1009 41.5757 15.1141C41.5986 15.164 41.6184 15.2139 41.6379 15.2639C41.6434 15.2783 41.6504 15.2926 41.6557 15.3069C41.6725 15.3525 41.686 15.3979 41.6997 15.4434C41.7055 15.4625 41.7129 15.4814 41.7181 15.5005C41.7304 15.5449 41.7394 15.5894 41.7489 15.6339C41.7532 15.654 41.7591 15.674 41.7628 15.6943C41.7714 15.7402 41.7765 15.7863 41.782 15.8323C41.7842 15.851 41.788 15.8697 41.7898 15.8885C41.7958 15.9532 41.7988 16.0179 41.7988 16.0827C41.7988 17.6849 39.9338 19.2782 36.6824 20.4542C36.4709 20.5306 36.2551 20.605 36.0351 20.6772C35.815 20.7493 35.5908 20.8193 35.3626 20.8871C34.7637 21.065 34.1374 21.2276 33.4875 21.3746C30.6707 22.0113 27.4089 22.3519 24.0001 22.3519C19.2052 22.3519 14.7012 21.678 11.3177 20.4542C8.06616 19.2782 6.20121 17.6849 6.20121 16.0827C6.20121 14.4854 8.05667 12.8955 11.2917 11.7207C11.7123 11.568 12.1505 11.4237 12.6046 11.2881C14.2142 10.8078 16.0236 10.4378 17.9604 10.1884C17.9595 10.1869 17.9587 10.1853 17.9579 10.1837C17.9151 10.1036 17.8731 10.0231 17.8335 9.94108L17.8311 9.93654C17.7917 9.85504 17.7548 9.77207 17.7188 9.68889C17.718 9.6872 17.7172 9.68562 17.7164 9.68393C14.777 10.0771 12.0821 10.7539 9.83084 11.6815C6.00796 13.2566 3.90275 15.3798 3.90275 17.6598C3.90275 17.7213 3.90453 17.7826 3.9077 17.8439C3.90865 17.8639 3.91054 17.8837 3.91192 17.9036C3.91476 17.9451 3.91782 17.9866 3.92204 18.0281C3.92446 18.0514 3.92741 18.0747 3.93026 18.0981C3.93479 18.136 3.93985 18.1741 3.94576 18.2121C3.94945 18.2364 3.95345 18.2607 3.95767 18.285C3.9642 18.3224 3.97127 18.3597 3.97897 18.3971C3.98382 18.4208 3.98877 18.4447 3.99415 18.4684C4.0029 18.5073 4.0126 18.5461 4.02251 18.5848C4.0282 18.6068 4.03358 18.6287 4.03959 18.6505C4.05203 18.695 4.06553 18.7395 4.07944 18.7839C4.0845 18.7996 4.08883 18.8153 4.0941 18.8311C4.11392 18.8915 4.13521 18.9517 4.15809 19.0118C4.16178 19.0214 4.16611 19.0311 4.1698 19.0408C4.1893 19.0909 4.20965 19.1409 4.23126 19.1907C4.2398 19.2103 4.24908 19.2299 4.25794 19.2496C4.27596 19.2895 4.29431 19.3295 4.31371 19.3693C4.32446 19.3913 4.33553 19.4132 4.34671 19.4351C4.36568 19.4728 4.38529 19.5103 4.40554 19.5478C4.41756 19.5702 4.42989 19.5923 4.44244 19.6146C4.46352 19.6523 4.48535 19.6898 4.5077 19.7274C4.52045 19.7487 4.533 19.7701 4.54618 19.7914C4.57085 19.8313 4.59636 19.8711 4.6223 19.9108C4.63432 19.9293 4.64592 19.9477 4.65825 19.966C4.69262 20.0173 4.72826 20.0683 4.76484 20.1192C4.76959 20.1257 4.77391 20.1323 4.77865 20.1388C4.82103 20.1972 4.865 20.2553 4.91033 20.3131C4.92014 20.3257 4.93068 20.3381 4.94049 20.3506C4.97602 20.3952 5.01207 20.4396 5.04929 20.4839C5.0649 20.5024 5.08102 20.5208 5.09694 20.5393C5.12973 20.5774 5.16305 20.6157 5.19721 20.6537C5.21545 20.6738 5.2339 20.6939 5.25235 20.7141C5.28609 20.7507 5.32035 20.7871 5.35525 20.8235C5.37454 20.8435 5.39373 20.8636 5.41334 20.8835C5.4496 20.9205 5.48682 20.9575 5.52435 20.9942C5.54344 21.013 5.56241 21.0317 5.58171 21.0503C5.6242 21.0909 5.66763 21.1314 5.7116 21.1718C5.72699 21.186 5.74196 21.2002 5.75756 21.2143C5.87881 21.3242 6.00575 21.4328 6.13837 21.5402C6.15567 21.5544 6.17359 21.5683 6.1912 21.5822C6.24012 21.6214 6.28935 21.6604 6.33975 21.6991C6.36316 21.7171 6.38719 21.7351 6.41091 21.7531C6.45677 21.7877 6.50316 21.8223 6.55018 21.8566C6.57633 21.8758 6.6028 21.8948 6.62936 21.9139C6.67596 21.9473 6.7233 21.9807 6.77106 22.0138C6.79805 22.0326 6.82493 22.0514 6.85224 22.0699C6.90253 22.1044 6.95366 22.1384 7.00501 22.1724C7.03084 22.1893 7.05614 22.2063 7.08207 22.2232C7.14185 22.2621 7.2029 22.3008 7.26436 22.3393C7.28271 22.3509 7.30063 22.3625 7.31919 22.3739C7.39995 22.424 7.48229 22.4739 7.56579 22.5233C7.57991 22.5315 7.59436 22.5398 7.60849 22.548C7.66869 22.5833 7.7291 22.6187 7.79067 22.6537C7.45646 22.5121 7.1311 22.3656 6.81566 22.2148C3.08292 20.4284 1.02715 18.1462 1.02715 15.7884C1.02715 13.2344 3.38751 10.8138 7.67343 8.97281C10.3741 7.81266 13.629 6.97597 17.1832 6.50734C17.1898 6.41793 17.1976 6.32916 17.2078 6.24081C17.2181 6.14951 17.2293 6.05821 17.2433 5.96807C13.5902 6.43997 10.2417 7.29585 7.46542 8.48836C2.9737 10.4178 0.500001 13.0104 0.500001 15.7884C0.500001 18.3604 2.66215 20.8114 6.58814 22.6901ZM18.6045 6.07794C18.6205 5.98695 18.6391 5.89639 18.6597 5.80614C18.8779 4.85537 19.3559 3.95258 20.0941 3.2112C21.1457 2.15501 22.5266 1.62269 23.9099 1.62269C25.2003 1.62269 26.4923 2.08563 27.5215 3.01858C27.5846 3.07562 27.6468 3.13413 27.7076 3.19465C28.4491 3.93287 28.9289 4.83555 29.1492 5.78674C29.1701 5.87688 29.1885 5.96745 29.2047 6.05843C29.2205 6.14742 29.234 6.23661 29.2454 6.32612C29.3827 7.4073 29.1943 8.52243 28.6772 9.50988C28.6742 9.51568 28.6707 9.52148 28.6675 9.52738C28.6264 9.6053 28.5832 9.68237 28.538 9.75849C28.5335 9.76587 28.5287 9.77325 28.5243 9.78063C28.4776 9.85822 28.429 9.93487 28.378 10.0106C28.3729 10.0182 28.3675 10.0256 28.3622 10.0333C28.1769 10.3061 27.965 10.5662 27.7239 10.8082C26.7094 11.8273 25.3586 12.3902 23.9206 12.3933L23.9088 12.3933C22.4751 12.3933 21.1267 11.8365 20.1104 10.8246C20.0496 10.7641 19.991 10.7021 19.9337 10.6397L19.9339 10.6396L19.9336 10.6395C19.7542 10.443 19.5922 10.2369 19.447 10.0231C19.4457 10.0212 19.4443 10.0194 19.443 10.0174C19.389 9.93771 19.3378 9.85675 19.2885 9.77483C19.2875 9.77303 19.2865 9.77103 19.2854 9.76924C19.2366 9.68806 19.1907 9.60582 19.1467 9.52285C19.1457 9.52095 19.1448 9.51916 19.1438 9.51726C18.6226 8.53118 18.4304 7.42185 18.5641 6.34552C18.5753 6.25601 18.589 6.16692 18.6045 6.07794ZM18.2657 9.61963C18.3044 9.70302 18.3451 9.78526 18.3872 9.86665C18.3882 9.86834 18.3891 9.87023 18.3901 9.87192C18.4327 9.95394 18.4772 10.0345 18.5232 10.1143C18.5243 10.1161 18.5254 10.1179 18.5265 10.1198C19.6036 11.9767 21.612 13.2293 23.9089 13.2293C26.1999 13.2293 28.204 11.9834 29.2831 10.1344C29.2891 10.1242 29.2948 10.114 29.3007 10.1038C29.343 10.0304 29.3839 9.95616 29.4232 9.88099C29.4284 9.87118 29.4334 9.86127 29.4385 9.85136C29.4768 9.77724 29.5138 9.7025 29.5491 9.62659C29.5524 9.61942 29.5556 9.61214 29.5589 9.60476L29.559 9.60476C29.9233 8.81436 30.1283 7.93592 30.1283 7.01003C30.1283 6.81035 30.1179 6.6132 30.0994 6.41836C30.0909 6.32885 30.0799 6.24008 30.0677 6.15173C30.0549 6.06032 30.0401 5.96976 30.0235 5.87962C29.4901 2.98832 26.9522 0.790743 23.9089 0.790743C20.8584 0.790742 18.3157 2.99897 17.7907 5.9006C17.7744 5.99085 17.7599 6.08162 17.7475 6.17313C17.7356 6.2617 17.725 6.35057 17.7168 6.44019C17.6997 6.62796 17.6896 6.81783 17.6896 7.01003C17.6896 7.93971 17.8962 8.82173 18.2636 9.61467L18.2657 9.61963ZM19.4366 9.11442C19.4669 9.17954 19.4986 9.24376 19.5316 9.30732C19.5323 9.30864 19.533 9.31012 19.5338 9.31144C19.567 9.37549 19.6018 9.43839 19.6378 9.50071C19.6386 9.50211 19.6394 9.50351 19.6403 9.50499C20.4814 10.9551 22.0498 11.9332 23.8434 11.9332C25.6324 11.9332 27.1974 10.9603 28.0401 9.51644C28.0448 9.50845 28.0492 9.50047 28.0538 9.49248C28.0868 9.43518 28.1188 9.37722 28.1495 9.31852C28.1535 9.31086 28.1575 9.30312 28.1614 9.29538C28.1913 9.2375 28.2202 9.17913 28.2478 9.11985C28.2504 9.11425 28.2529 9.10857 28.2555 9.10281L28.2555 9.10281C28.5401 8.48558 28.7001 7.7996 28.7001 7.07658C28.7001 6.92065 28.692 6.76669 28.6776 6.61454C28.6709 6.54464 28.6623 6.47532 28.6528 6.40633C28.6428 6.33495 28.6312 6.26423 28.6183 6.19383C28.2018 3.936 26.2199 2.21991 23.8434 2.21991C21.4613 2.21991 19.4757 3.94432 19.0657 6.21022C19.053 6.28069 19.0417 6.35158 19.032 6.42304C19.0227 6.4922 19.0144 6.5616 19.008 6.63158C18.9947 6.77821 18.9868 6.92649 18.9868 7.07658C18.9868 7.80257 19.1481 8.49134 19.435 9.11055L19.4366 9.11442Z" fill="#1C1792"/>
</svg>
