<svg width="556" height="378" viewBox="0 0 556 378" fill="none" xmlns="http://www.w3.org/2000/svg">
<path fill-rule="evenodd" clip-rule="evenodd" d="M50.3313 356.614C50.8491 356.252 51.4127 355.894 52.0069 355.547C52.4969 355.261 53.0226 354.977 53.6141 354.681C53.7581 354.609 53.9024 354.536 54.049 354.466C56.8835 353.096 60.2334 351.985 63.7365 351.254C64.3467 351.128 64.9612 351.016 65.5717 350.911L66.3819 350.778C71.1613 350.057 75.7082 350.139 79.1848 351.007C82.5268 351.843 84.5806 353.323 84.9653 355.18C84.9784 355.245 84.9897 355.311 84.9992 355.377L85.3166 355.333L85.0066 355.444L85.0214 355.578L85.3412 355.552L85.0259 355.658L85.031 355.781L85.3517 355.775L85.0314 355.868L85.0136 356.2L85.3324 356.227L85.0047 356.277L84.9442 356.629L85.2567 356.7L84.928 356.703C84.9126 356.767 84.8953 356.831 84.8717 356.916C84.8501 356.988 84.8259 357.062 84.7903 357.162L84.7225 357.343C84.7212 357.325 84.7189 357.307 84.717 357.289L84.7091 357.22C84.6989 357.139 84.6857 357.06 84.6691 356.98C84.2318 354.868 81.7799 353.361 77.7639 352.737C73.9454 352.143 69.096 352.385 64.1073 353.419C59.1198 354.452 54.5721 356.157 51.3034 358.22C47.983 360.316 46.3289 362.588 46.6156 364.644C46.5836 364.602 46.5509 364.556 46.4975 364.477L46.4164 364.354L46.372 364.381L46.3315 364.337L46.3795 364.292L46.343 364.23L46.2711 364.271L46.2379 364.236L46.3118 364.171L46.2644 364.083L46.1506 364.142L46.1232 364.112L46.2338 364.02L46.0743 363.628L45.7707 363.732L46.054 363.566L46.0106 363.417C45.9976 363.365 45.9853 363.313 45.9739 363.26C45.553 361.229 47.1008 358.868 50.3313 356.614ZM73.6354 366.639L73.5389 367.032C73.4818 366.933 73.429 366.832 73.3673 366.736L73.6354 366.639ZM85.0151 357.471L84.7297 357.442C84.7282 357.413 84.7257 357.382 84.7234 357.353L85.0151 357.471ZM84.4606 352.044C84.7476 352.171 85.023 352.302 85.2842 352.441L84.4606 352.044ZM84.1489 358.983L84.1486 358.983L84.1489 358.983ZM73.131 366.371C73.071 366.287 73.0082 366.205 72.9405 366.12C72.8754 366.038 72.809 365.959 72.7355 365.875C72.3145 365.392 71.8359 364.978 71.3175 364.638C69.8459 363.671 68.0526 363.3 66.3252 363.658C63.9964 364.141 62.0824 365.889 61.3173 368.26C61.2889 368.351 61.2614 368.442 61.2266 368.571C61.203 368.661 61.1803 368.75 61.1541 368.87C61.1513 368.881 61.1498 368.894 61.1476 368.905L61.1238 368.904C61.1339 368.857 61.1444 368.805 61.1587 368.742C61.1779 368.661 61.2001 368.58 61.2341 368.456L61.3477 368.027L60.1554 368.096L57.1013 368.12L53.9518 367.853C53.845 367.838 53.7386 367.821 53.6304 367.804L52.7427 367.648L50.5449 367.082L49.2257 366.411L49.05 366.678L49.1655 366.368C49.1127 366.332 49.0614 366.297 49.0119 366.262L48.8234 366.521L48.9352 366.202C48.8948 366.172 48.8542 366.142 48.798 366.094L48.5938 365.911C48.5529 365.873 48.5125 365.834 48.4627 365.781L48.2975 365.59C48.2657 365.551 48.2336 365.512 48.1894 365.448L47.9255 364.968L47.6066 365.03L47.8968 364.886L47.8634 364.792C47.8452 364.733 47.8308 364.674 47.8183 364.616C47.4958 363.06 48.9966 361.103 51.9371 359.248C55.0879 357.259 59.4974 355.61 64.352 354.604C69.2057 353.598 73.9072 353.359 77.5907 353.932C81.0251 354.467 83.1808 355.666 83.5035 357.221C83.8248 358.771 82.3325 360.722 79.4089 362.574C78.8246 362.944 78.1905 363.305 77.5249 363.649C77.3039 363.763 77.0766 363.875 76.8477 363.986C75.6833 364.551 74.4096 365.078 73.0623 365.553L72.7272 365.725L72.9216 366.06C72.9806 366.133 73.0388 366.205 73.0975 366.285C73.1449 366.349 73.1904 366.414 73.2426 366.49L73.3101 366.647C73.2499 366.556 73.196 366.461 73.131 366.371ZM50.4017 367.975L50.3894 368.282L50.2903 368.275L50.4017 367.975ZM42.1922 361.916L42.1874 361.92L42.1869 361.927C41.4144 363.397 41.1496 364.862 41.4395 366.263C41.5342 366.718 41.6913 367.154 41.8956 367.574C42.5507 368.921 43.7525 370.083 45.4531 371.01L45.4544 371.012L45.4563 371.012C46.803 371.747 48.4583 372.337 50.3905 372.757C51.0885 372.909 51.821 373.033 52.5749 373.138L52.5878 373.142L52.607 373.143C54.4472 373.396 56.4369 373.506 58.5154 373.469L61.763 373.649C63.1578 376.412 66.174 377.946 69.1585 377.327C72.3473 376.666 74.5908 373.745 74.4925 370.381C74.4897 370.278 74.4847 370.174 74.4763 370.071C74.4713 369.993 74.4635 369.917 74.4555 369.841L74.4742 369.839C74.4763 369.86 74.4791 369.881 74.4815 369.901C74.4898 369.995 74.4992 370.09 74.5041 370.183L74.5263 370.611L74.9307 370.469C75.6295 370.223 76.3095 369.959 76.9784 369.687L76.9936 369.687L77.0139 369.673C79.8107 368.535 82.3305 367.187 84.3795 365.714C88.6483 362.645 90.6479 359.265 90.012 356.196C89.6693 354.54 88.5681 353.095 86.8124 351.942C85.552 351.114 83.9533 350.437 82.057 349.94C77.7153 348.804 72.0994 348.673 66.2383 349.574L65.8284 349.638C65.0759 349.757 64.3159 349.896 63.568 350.051L63.4162 350.082C57.0064 351.411 51.2023 353.777 47.0716 356.746C44.7553 358.41 43.1141 360.168 42.1922 361.916ZM48.899 82.1005C47.9112 83.9179 45.5171 93.1698 42.7455 103.883C35.9341 130.207 25.6426 169.987 15.7675 183.446C11.4921 189.274 11.5963 191.654 11.9698 192.028C12.7157 192.771 17.0873 192.139 23.7807 187.242C29.0953 183.356 34.2846 177.913 38.3965 171.919C46.2046 160.53 54.0655 146.476 59.9644 133.358C64.5718 123.112 67.7673 113.956 69.2557 106.771C63.9888 104.015 60.8307 102.18 60.7975 102.161L62.4102 99.3895C62.4416 99.407 65.1911 101.004 69.8393 103.454C70.2193 100.789 70.3068 98.5135 70.0885 96.6844L73.2725 96.3039C73.5551 98.6648 73.4079 101.595 72.843 105.018C87.1 112.348 113.898 124.85 140.363 130.367L139.708 133.507C135.923 132.718 132.134 131.784 128.374 130.75C128.529 144.293 137.234 192.259 137.328 192.77L134.174 193.345C133.79 191.238 125.228 144.061 125.171 130.401L62.4944 135.537C56.5669 148.572 48.7811 162.443 41.041 173.732C36.4078 180.488 31.5281 185.19 27.7367 188.243C30.5805 189.638 33.5445 191.012 36.3813 192.311C37.841 192.978 39.5841 193.771 41.5619 194.67C61.8589 203.899 103.472 222.823 125.263 236.666C125.749 234.508 126.269 230.809 125.465 226.74C123.659 217.622 116.388 211.341 103.851 208.071C96.0862 206.047 90.5761 203.345 86.5135 199.566C83.7963 197.04 81.9981 194.344 80.0959 191.49C75.4913 184.584 70.2737 176.755 49.0692 169.238C48.3281 168.973 47.8867 168.211 48.0273 167.437C48.1703 166.663 48.8527 166.105 49.64 166.123C66.6665 166.491 112.328 166.312 119.055 161.123L121.013 163.663C113.901 169.148 76.1374 169.565 58.3118 169.446C73.8432 176.329 78.546 183.385 82.7638 189.712C84.4021 192.169 85.9641 194.499 88.0781 196.612L119.592 188.424L120.399 191.527L91.0709 199.148C94.4743 201.581 98.8756 203.461 104.659 204.968C108.866 206.066 113.537 207.79 117.66 210.498C122.535 213.699 126.642 218.272 128.313 224.809C174.177 224.17 240.262 206.771 246.219 205.178C249.77 200.207 253.329 196.058 256.211 192.967C267.189 181.196 280.052 172.093 287.22 170.846C280.084 170.719 272.748 170.39 265.269 169.841C226.649 167.007 193.286 159.237 176.996 149.4C176.677 151.463 176.331 153.634 175.951 155.927C172.76 175.151 168.787 193.511 168.748 193.694L165.614 193.014C171.694 164.997 179.818 118.255 175.736 112.102L178.408 110.329C179.326 111.713 181.948 115.667 177.515 145.943C210.008 166.945 320.864 176.613 365.373 156.822L366.676 159.752C349.496 167.391 321.325 171.315 288.732 170.873L288.754 173.902C283.73 173.936 270.757 182.072 258.557 195.153C250.484 203.811 236.938 220.974 233.959 241.183C239.574 238.156 242.966 236.386 243.148 236.292L244.627 239.138C243.62 239.66 143.669 291.797 111.255 325.535C93.9892 343.508 91.7459 353.508 92.905 358.732C93.6182 361.946 95.6879 363.557 96.8042 364.217C107.529 356.329 223.768 271.689 313.128 241.212C351.191 228.23 381.399 211.713 405.48 190.715C426.233 172.62 438.988 154.292 450.242 138.122C452.332 135.119 454.304 132.283 456.29 129.503C478.155 98.8946 546.43 -7.42145 555.04 -20.8421L446.064 -86.6319L341.274 95C348.196 96.9487 354.173 99.2819 358.586 102.082L356.868 104.79C343.008 95.9957 307.776 90.1325 260.202 88.7043C222.395 87.5689 182.584 89.6997 171.458 93.4545C149.595 100.833 128.093 92.8392 126.53 92.2367C103.144 85.1127 64.8058 73.9727 61.3077 74.3502L61.1821 74.3791C57.0889 75.2819 51.9935 76.4068 48.899 82.1005ZM94.2084 236.889C109.108 243.285 120.725 248.788 124.442 250.57C125.751 248.445 128.126 243.618 125.161 240.414C104.084 226.624 59.3631 206.287 40.234 197.589C38.2536 196.689 36.51 195.896 35.0476 195.226C31.7034 193.696 28.1858 192.06 24.8758 190.402C19.3121 194.302 12.6355 197.237 9.70111 194.294C7.61552 192.206 8.48177 188.356 12.2631 182.846C10.7692 181.691 9.4768 180.528 8.36313 179.333C5.25006 182.651 -1.41069 190.825 0.647728 198.172C2.30946 204.11 9.32104 208.529 21.4802 211.304C30.6357 213.394 41.4946 216.642 53.7573 220.958C66.0632 225.29 79.6737 230.65 94.2084 236.889ZM50.8944 335.532C50.7751 335.15 50.803 334.738 50.972 334.375C52.2808 331.577 54.3294 321.533 56.6646 289.577C58.0695 270.341 58.9014 252.123 58.9093 251.941L62.1124 252.087C62.104 252.283 62.0811 252.78 62.0464 253.525C64.5267 251.488 68.8481 248.742 76.3289 244.858C81.3849 242.234 86.4118 239.865 89.5894 238.405C76.5924 232.892 64.3839 228.114 53.2423 224.177C51.5317 224.853 45.5476 227.494 40.194 233.23C31.8384 242.183 28.8967 254.089 31.4509 268.616C39.7232 315.667 39.6179 327.811 39.5065 340.667C39.4624 345.789 39.4163 351.069 39.9081 358.775C50.6267 353.009 53.1949 342.892 50.8944 335.532ZM28.8225 142.633C20.8612 143.753 13.7754 147.909 9.56475 154.043C6.02135 159.204 5.01734 165.093 6.73981 170.629C7.31586 172.482 8.27788 174.227 9.67888 175.966C10.8472 177.415 12.3057 178.813 14.1007 180.213C19.0053 172.675 24.1525 158.151 28.8225 142.633Z" fill="#1C1794"/>
</svg>
