<svg width="46" height="47" viewBox="0 0 46 47" fill="none" xmlns="http://www.w3.org/2000/svg">
<path fill-rule="evenodd" clip-rule="evenodd" d="M24.8107 32.7587L24.8068 32.7548L24.3134 32.2523L24.3102 32.2491L22.7873 30.6982L21.2913 32.2216L21.2829 32.2301L20.8005 32.7215L20.7925 32.7295L19.6384 33.9048L18.7574 34.8019L19.027 35.0764L19.7923 35.8558L20.3351 36.4086L22.7873 38.9057L25.2106 36.4381L25.7461 35.8925L26.7831 34.8367L26.8172 34.8019L26.6259 34.607L24.8107 32.7587ZM39.9739 19.5513C36.2598 17.7413 31.1927 16.5925 25.7057 16.3165H25.7055L25.3689 16.3C25.3658 16.2999 25.3626 16.2999 25.3595 16.2997C24.6529 16.267 23.9392 16.2505 23.2379 16.2505L23.1629 16.2508L23.0917 16.2505C17.04 16.2505 11.3464 17.283 7.06005 19.158C2.70508 21.063 0.306641 23.6229 0.306641 26.3657C0.306641 29.1086 2.70508 31.6684 7.06005 33.5735C9.67643 34.7179 12.8176 35.5477 16.2439 36.0213C16.2134 35.8451 16.1889 35.667 16.1723 35.4865C12.8471 35.0165 9.80155 34.2062 7.26174 33.0951C3.1063 31.2774 0.817752 28.8875 0.817752 26.3657C0.817752 23.844 3.1063 21.454 7.26174 19.6363C7.67942 19.4536 8.11039 19.2792 8.55434 19.1129C8.50476 19.1375 8.45651 19.1624 8.40755 19.1871C8.37044 19.2061 8.33282 19.2247 8.29613 19.2437C8.2214 19.2823 8.14801 19.3213 8.07502 19.3603C8.05325 19.372 8.03086 19.3835 8.00919 19.3952C7.91596 19.4458 7.82427 19.4968 7.73401 19.5481C7.70354 19.5654 7.6741 19.583 7.64405 19.6005C7.58415 19.6351 7.52445 19.6697 7.46598 19.7047C7.42959 19.7265 7.39422 19.7484 7.35844 19.7703C7.30753 19.8014 7.25673 19.8325 7.20685 19.8638C7.16953 19.8873 7.13304 19.911 7.09624 19.9345C7.04932 19.9648 7.0026 19.995 6.95671 20.0254C6.92001 20.0499 6.88372 20.0743 6.84764 20.0988C6.80297 20.1291 6.7587 20.1595 6.71495 20.1901C6.67969 20.2148 6.64462 20.2395 6.60997 20.2643C6.56683 20.2952 6.52431 20.3264 6.48209 20.3575C6.44856 20.3823 6.41503 20.4069 6.38212 20.4319C6.34 20.4637 6.29891 20.4957 6.25771 20.5278C6.22643 20.5523 6.19474 20.5768 6.16397 20.6014C6.12155 20.6354 6.08025 20.6697 6.03896 20.7039C6.01125 20.7268 5.98304 20.7495 5.95595 20.7726C5.90566 20.8152 5.8569 20.8581 5.80855 20.9011C5.79168 20.9161 5.7742 20.9307 5.75754 20.9457C5.69416 21.0029 5.63252 21.0603 5.57231 21.118C5.54941 21.1398 5.52785 21.1619 5.50546 21.1838C5.46784 21.2208 5.43002 21.2578 5.39363 21.2951C5.36879 21.3205 5.34497 21.346 5.32085 21.3715C5.28834 21.4056 5.25593 21.4398 5.22455 21.4741C5.20012 21.5009 5.17651 21.5277 5.15279 21.5546C5.12315 21.5881 5.09361 21.6216 5.06508 21.6553C5.04178 21.6826 5.01909 21.7101 4.99649 21.7375C4.96889 21.7712 4.9418 21.8048 4.91523 21.8386C4.89345 21.8662 4.87199 21.8938 4.85083 21.9216C4.82497 21.9558 4.79972 21.99 4.77488 22.0243C4.75494 22.0517 4.73501 22.0792 4.71569 22.1067C4.69085 22.1423 4.66703 22.1779 4.64332 22.2136C4.62573 22.2402 4.60774 22.2666 4.59077 22.2931C4.56604 22.3318 4.54263 22.3707 4.51922 22.4094C4.50491 22.4333 4.48988 22.4571 4.47598 22.481C4.44541 22.5337 4.41628 22.5866 4.38817 22.6396C4.38275 22.6498 4.37672 22.6599 4.37141 22.6701C4.33859 22.7328 4.30772 22.7958 4.27828 22.8591C4.26785 22.8814 4.25865 22.9038 4.24864 22.926C4.23003 22.9678 4.21153 23.0095 4.19446 23.0515C4.18373 23.0776 4.17401 23.1037 4.164 23.1299C4.14907 23.1683 4.13445 23.2068 4.12086 23.2453C4.11115 23.2728 4.10225 23.3002 4.09316 23.3277C4.08079 23.3653 4.06873 23.403 4.05758 23.4408C4.0492 23.4688 4.04143 23.4968 4.03377 23.5248C4.02344 23.5626 4.01383 23.6003 4.00463 23.638C3.99788 23.6661 3.99134 23.6941 3.98521 23.7222C3.97693 23.7605 3.96937 23.7989 3.96231 23.8374C3.9571 23.865 3.95199 23.8926 3.94749 23.9201C3.94095 23.9601 3.93553 24.0003 3.93042 24.0405C3.92694 24.0665 3.92316 24.0925 3.9204 24.1186C3.9156 24.1631 3.91222 24.2078 3.90905 24.2523C3.90742 24.2743 3.90517 24.296 3.90405 24.318C3.90047 24.3844 3.89832 24.4511 3.89832 24.518C3.89832 24.5748 3.89965 24.6316 3.90221 24.6882C3.90343 24.7157 3.90599 24.7428 3.90783 24.7701C3.90977 24.7993 3.9112 24.8286 3.91376 24.8577C3.91733 24.8956 3.92224 24.9334 3.92674 24.9711C3.92909 24.9896 3.93062 25.0082 3.93318 25.0266C3.93911 25.0698 3.94647 25.1128 3.95393 25.1558C3.95618 25.1688 3.95771 25.1818 3.96017 25.1948C4.16533 26.3121 4.87976 27.3806 6.06809 28.3558C6.06952 28.3569 6.07095 28.3582 6.07238 28.3594C6.12942 28.4061 6.18769 28.4526 6.24688 28.4989C6.24953 28.5009 6.25209 28.5031 6.25464 28.505C6.3077 28.5465 6.36208 28.5876 6.41687 28.6287C6.42617 28.6357 6.43517 28.6427 6.44447 28.6497C6.4965 28.6885 6.54986 28.7269 6.60343 28.7653C6.6161 28.7743 6.62837 28.7835 6.64105 28.7927C6.69032 28.8275 6.74071 28.8622 6.79121 28.8969C6.8093 28.9093 6.82678 28.9217 6.84498 28.9341C6.89098 28.9655 6.93831 28.9964 6.98543 29.0274C7.00905 29.0429 7.03205 29.0586 7.05597 29.0741C7.09961 29.1025 7.14469 29.1307 7.18936 29.1589C7.21758 29.1767 7.24518 29.1947 7.2738 29.2125C7.31489 29.238 7.35721 29.2633 7.39913 29.2887C7.43235 29.3089 7.46506 29.3292 7.49869 29.3493C7.53713 29.3721 7.57658 29.3947 7.61553 29.4173C7.65284 29.4391 7.68954 29.461 7.72736 29.4825C7.78113 29.5174 7.83786 29.5514 7.89327 29.5858C7.93814 29.6137 7.98159 29.6418 8.02748 29.6694C8.07962 29.7006 8.13431 29.7311 8.18767 29.7618C8.24072 29.7925 8.29245 29.8234 8.34683 29.8537C8.39641 29.8814 8.44833 29.9083 8.49904 29.9355C8.55965 29.9682 8.61915 30.0011 8.68109 30.0334C8.72781 30.0575 8.77667 30.0811 8.82421 30.105C8.89269 30.1396 8.96037 30.1743 9.03049 30.2083C9.0724 30.2287 9.11625 30.2482 9.15888 30.2684C9.23677 30.3051 9.31416 30.3421 9.39399 30.3781C9.43294 30.3958 9.47362 30.4128 9.51308 30.4303C9.59864 30.4682 9.68379 30.5062 9.7715 30.5431C9.80482 30.5573 9.83958 30.5708 9.87321 30.5849C9.96889 30.6246 10.0645 30.6643 10.1625 30.703C10.1901 30.714 10.2187 30.7244 10.2464 30.7353C10.3521 30.7764 10.4582 30.8176 10.5667 30.8578C10.5877 30.8656 10.6096 30.873 10.6308 30.8808C10.7472 30.9236 10.8644 30.966 10.9837 31.0073C10.9941 31.0109 11.005 31.0145 11.0154 31.018C11.1462 31.0632 11.2784 31.1078 11.4127 31.1514C11.4164 31.1526 11.4201 31.1538 11.4238 31.1549C12.9642 31.6547 14.7274 32.0517 16.6284 32.3292C16.632 32.3199 16.6355 32.3105 16.6393 32.3012C16.7033 32.1434 16.7735 31.989 16.8488 31.8376C16.8552 31.8246 16.8617 31.8116 16.8683 31.7986C16.8034 31.7889 16.7379 31.7797 16.6732 31.7697C16.5932 31.7572 16.5142 31.7438 16.4345 31.7309C16.3435 31.7162 16.252 31.7019 16.1614 31.6866C16.0724 31.6715 15.9845 31.6555 15.896 31.6398C15.8161 31.6258 15.7357 31.6122 15.6562 31.5975C15.5507 31.5783 15.4465 31.5578 15.3419 31.5378C15.2805 31.5259 15.2185 31.5146 15.1574 31.5025C15.0393 31.4792 14.9227 31.4547 14.8057 31.4305C14.7591 31.4207 14.7118 31.4114 14.6654 31.4015C14.5482 31.3766 14.4323 31.3506 14.3164 31.3247C14.2711 31.3145 14.2252 31.3049 14.18 31.2946C14.0476 31.2643 13.9164 31.233 13.7857 31.2014C13.7583 31.1949 13.7304 31.1886 13.703 31.182C13.5635 31.148 13.4255 31.113 13.2882 31.0775C13.2701 31.0728 13.2514 31.0683 13.2333 31.0636C13.1035 31.0298 12.9753 30.995 12.8475 30.9599C12.8222 30.953 12.7964 30.9463 12.7711 30.9394C12.6356 30.9019 12.5014 30.8631 12.3681 30.8241C12.3516 30.8193 12.3347 30.8147 12.3183 30.8098C12.1899 30.7719 12.063 30.733 11.9369 30.6939C11.9159 30.6873 11.8945 30.681 11.8736 30.6745C11.7489 30.6355 11.626 30.5953 11.5037 30.555C11.482 30.5478 11.4598 30.5411 11.4383 30.5338C11.3187 30.4941 11.201 30.4533 11.0836 30.4122C11.06 30.404 11.0359 30.3961 11.0124 30.3878C10.8923 30.3454 10.7738 30.3019 10.6561 30.2581C10.6364 30.2509 10.6162 30.2439 10.5965 30.2366C10.4844 30.1945 10.3742 30.1516 10.2643 30.1083C10.2399 30.0988 10.2148 30.0895 10.1905 30.0798C10.0853 30.0381 9.98208 29.9953 9.87904 29.9524C9.85123 29.9408 9.82271 29.9297 9.79511 29.918C9.69851 29.8774 9.60406 29.8358 9.5095 29.7942C9.47669 29.7797 9.44296 29.7658 9.41035 29.7512C9.32172 29.7115 9.23514 29.6709 9.14835 29.6306C9.11145 29.6134 9.07353 29.5966 9.03693 29.5792C8.95301 29.5394 8.87143 29.4987 8.78935 29.4583C8.75152 29.4396 8.71258 29.4213 8.67517 29.4024C8.59891 29.3639 8.5249 29.3247 8.45028 29.2857C8.40867 29.2639 8.36594 29.2426 8.32485 29.2205C8.25462 29.183 8.18665 29.1445 8.11795 29.1064C8.07533 29.0826 8.03168 29.0593 7.98966 29.0354C7.95961 29.0158 7.9315 28.9962 7.90216 28.9766C7.84584 28.9391 7.789 28.9019 7.73492 28.864C7.70191 28.841 7.67104 28.8174 7.63884 28.7942C7.59028 28.7594 7.5408 28.7244 7.49419 28.6891C7.45841 28.662 7.42509 28.6346 7.39044 28.6075C7.34985 28.5755 7.30804 28.5438 7.269 28.5118C7.2326 28.4819 7.19877 28.4516 7.16381 28.4216C7.12916 28.3918 7.09317 28.3622 7.05975 28.3324C7.02336 28.2998 6.98983 28.2669 6.95497 28.2342C6.92563 28.2064 6.89486 28.1788 6.86645 28.151C6.83169 28.1168 6.79969 28.0822 6.76668 28.0479C6.74102 28.0211 6.71403 27.9947 6.6894 27.9678C6.65495 27.9304 6.62346 27.8926 6.59106 27.855C6.57051 27.831 6.54843 27.8072 6.5287 27.7832C6.49589 27.7434 6.46614 27.7033 6.43568 27.6633C6.41881 27.6412 6.40041 27.6191 6.38416 27.597C6.35401 27.5554 6.32671 27.5136 6.29891 27.4719C6.28501 27.4511 6.26957 27.4304 6.25638 27.4095C6.22929 27.3671 6.20527 27.3242 6.18084 27.2815C6.16919 27.2613 6.1562 27.2412 6.14516 27.2209C6.12053 27.1757 6.09906 27.1305 6.07739 27.0852C6.06891 27.0673 6.05889 27.0494 6.05071 27.0315C6.02986 26.9855 6.01217 26.9392 5.99429 26.8931C5.98764 26.8757 5.97946 26.8585 5.97313 26.8411C5.95759 26.798 5.94512 26.7547 5.93213 26.7116C5.9259 26.691 5.91823 26.6706 5.91261 26.6501C5.90106 26.6077 5.89278 26.5651 5.88378 26.5228C5.87928 26.5013 5.87305 26.4801 5.86927 26.4586C5.86109 26.4137 5.85608 26.3687 5.85087 26.3236C5.84862 26.3047 5.84484 26.2858 5.8432 26.267C5.83737 26.2031 5.83441 26.1392 5.83441 26.0751C5.83441 24.4933 7.64252 22.9201 10.7952 21.759C14.0758 20.5507 18.4427 19.8853 23.0917 19.8853C27.7406 19.8853 32.1076 20.5507 35.3882 21.759C38.5408 22.9201 40.3489 24.4933 40.3489 26.0751C40.3489 27.6523 38.55 29.222 35.4134 30.3818C35.0056 30.5327 34.5806 30.6751 34.1405 30.8089C33.7453 30.929 33.3369 31.0418 32.918 31.1478C32.9029 31.1516 32.8883 31.1557 32.8731 31.1596C32.817 31.1737 32.7588 31.1867 32.7021 31.2005C32.5231 31.2444 32.3432 31.2876 32.1603 31.3289C31.0585 31.5774 29.8882 31.7792 28.6674 31.9305C28.6682 31.9323 28.6691 31.934 28.6699 31.9356C28.7463 32.096 28.8151 32.2606 28.8791 32.4278L28.8812 32.4333C31.8491 32.0519 34.5701 31.3689 36.8298 30.4207C40.5364 28.8655 42.5777 26.7691 42.5777 24.518C42.5777 24.4573 42.5758 24.3967 42.5729 24.3361C42.5718 24.3166 42.5701 24.2969 42.5688 24.2773C42.566 24.2363 42.5631 24.1954 42.559 24.1545C42.5566 24.1315 42.5537 24.1084 42.551 24.0851C42.5465 24.0478 42.5416 24.0102 42.5361 23.9729C42.5324 23.9489 42.5284 23.9247 42.5243 23.9007C42.5181 23.8638 42.5111 23.8272 42.5038 23.7903C42.499 23.7667 42.4942 23.7429 42.4889 23.7192C42.4806 23.6812 42.4713 23.6433 42.4616 23.6054C42.456 23.5834 42.4508 23.5615 42.4449 23.5397C42.433 23.4962 42.4201 23.4528 42.4066 23.4094C42.4016 23.3934 42.3973 23.3772 42.392 23.3613C42.3729 23.3019 42.3524 23.2426 42.3302 23.1835C42.3262 23.1727 42.3215 23.1619 42.3174 23.1512C42.2989 23.1031 42.2798 23.055 42.2594 23.007C42.2508 22.9867 42.2414 22.9666 42.2325 22.9464C42.2153 22.9079 42.1979 22.8693 42.1795 22.8308C42.1689 22.8086 42.1576 22.7863 42.1466 22.7641C42.1284 22.7275 42.1099 22.6912 42.0906 22.6548C42.0785 22.6321 42.0664 22.6095 42.0539 22.587C42.0339 22.5506 42.0131 22.5142 41.9919 22.4781C41.9792 22.4563 41.9664 22.4344 41.9532 22.4126C41.9301 22.3742 41.906 22.3359 41.8813 22.2978C41.8691 22.2787 41.8572 22.2594 41.8446 22.2403C41.8126 22.1919 41.7795 22.1436 41.7456 22.0955C41.7397 22.0868 41.734 22.0783 41.7278 22.0697C41.6871 22.0126 41.6449 21.9557 41.6012 21.899C41.5904 21.8849 41.5789 21.8709 41.5678 21.8568C41.5348 21.8146 41.5014 21.7726 41.4668 21.7307C41.4507 21.7113 41.434 21.6919 41.4177 21.6724C41.3868 21.636 41.3556 21.5994 41.3235 21.5632C41.3051 21.5423 41.2863 21.5215 41.2675 21.5008C41.2358 21.4657 41.2035 21.4307 41.1708 21.3958C41.1513 21.3752 41.1316 21.3545 41.1117 21.3339C41.0776 21.2984 41.0426 21.263 41.0072 21.2277C40.9878 21.2083 40.9686 21.1889 40.9488 21.1695C40.9091 21.1307 40.8682 21.0921 40.8271 21.0536C40.8109 21.0384 40.7948 21.0229 40.7784 21.0077C40.6613 20.8997 40.5388 20.7929 40.4108 20.6873C40.3928 20.6724 40.3741 20.6576 40.3559 20.6429C40.3097 20.6053 40.2631 20.5676 40.2154 20.5305C40.1921 20.5122 40.1683 20.4939 40.1446 20.4757C40.1005 20.4418 40.0562 20.4081 40.011 20.3746C39.9854 20.3554 39.9597 20.3365 39.9337 20.3175C39.8885 20.2845 39.8429 20.2518 39.7968 20.2192C39.7706 20.2006 39.7443 20.182 39.7177 20.1635C39.6689 20.1296 39.6192 20.0959 39.5692 20.0623C39.5446 20.0457 39.5203 20.0291 39.4955 20.0126C39.4357 19.9729 39.3747 19.9337 39.3133 19.8946C39.2976 19.8846 39.2821 19.8743 39.2662 19.8642C39.187 19.8142 39.1065 19.7646 39.0246 19.7153C39.0152 19.7096 39.0056 19.7041 38.9962 19.6984C38.934 19.6612 38.8716 19.6241 38.8079 19.5873C39.132 19.7271 39.4475 19.8718 39.7533 20.0207C43.3725 21.7844 45.3656 24.0378 45.3656 26.3657C45.3656 28.8875 43.0771 31.2774 38.9216 33.0951C36.1988 34.2862 32.8946 35.1317 29.2876 35.5826C29.2683 35.7631 29.2415 35.9411 29.2085 36.1169C32.9192 35.6642 36.3219 34.7989 39.1233 33.5735C43.4783 31.6684 45.8767 29.1086 45.8767 26.3657C45.8767 23.8264 43.7803 21.4062 39.9739 19.5513ZM15.4822 33.6647C15.4822 33.893 15.34 34.0859 15.1719 34.0859C15.0036 34.0859 14.8615 33.893 14.8615 33.6647C14.8615 33.4364 15.0036 33.2435 15.1719 33.2435C15.34 33.2435 15.4822 33.4364 15.4822 33.6647ZM14.3506 33.6651C14.3506 34.1843 14.7192 34.6067 15.1721 34.6067C15.625 34.6067 15.9936 34.1843 15.9936 33.6651C15.9936 33.1459 15.625 32.7234 15.1721 32.7234C14.7192 32.7234 14.3506 33.1459 14.3506 33.6651ZM12.205 32.9634C12.205 33.1849 12.0759 33.3792 11.9286 33.3792C11.7814 33.3792 11.6522 33.1849 11.6522 32.9634C11.6522 32.7419 11.7814 32.5475 11.9286 32.5475C12.0759 32.5475 12.205 32.7419 12.205 32.9634ZM11.1409 32.9632C11.1409 33.4794 11.4942 33.8994 11.9285 33.8994C12.3627 33.8994 12.716 33.4794 12.716 32.9632C12.716 32.4469 12.3627 32.0268 11.9285 32.0268C11.4942 32.0268 11.1409 32.4469 11.1409 32.9632ZM9.11579 32.0014C9.09238 32.209 8.946 32.3692 8.79798 32.3526C8.71058 32.3423 8.65497 32.2751 8.62962 32.236C8.57718 32.1553 8.55428 32.0463 8.56655 31.937C8.57902 31.8279 8.62563 31.7271 8.69453 31.6606C8.72509 31.631 8.78541 31.5846 8.86228 31.5846C8.86953 31.5846 8.877 31.5851 8.88446 31.5859C8.97186 31.5961 9.02747 31.6633 9.05282 31.7024C9.10516 31.7832 9.12816 31.8921 9.11579 32.0014ZM8.94282 31.0685C8.72867 31.0433 8.50971 31.1214 8.34288 31.2823C8.18587 31.4339 8.08497 31.6451 8.05881 31.8773C8.03253 32.1093 8.08375 32.3384 8.20284 32.5223C8.32949 32.7177 8.52504 32.8442 8.7394 32.8692C8.76639 32.8724 8.79317 32.8739 8.81964 32.8739C9.21893 32.8739 9.57088 32.5259 9.62342 32.0603C9.64969 31.8283 9.59848 31.5993 9.47929 31.4153C9.35273 31.22 9.15718 31.0936 8.94282 31.0685ZM6.38741 30.694C6.36227 30.9162 6.21599 31.0903 6.06654 31.0717C5.9177 31.0542 5.81313 30.8519 5.83817 30.6296C5.85156 30.5116 5.90032 30.4027 5.97198 30.3308C6.00275 30.2998 6.06347 30.2508 6.13891 30.2508C6.14555 30.2508 6.1523 30.2511 6.15915 30.252C6.24379 30.262 6.29868 30.3314 6.32383 30.3719C6.3775 30.4585 6.4007 30.5759 6.38741 30.694ZM6.75598 30.0942C6.63015 29.8913 6.43388 29.7605 6.21758 29.7352C6.00179 29.7101 5.78099 29.7919 5.61314 29.9604C5.45766 30.1165 5.35728 30.3331 5.3306 30.5706C5.27284 31.0815 5.57675 31.5383 6.00823 31.589C6.03429 31.5921 6.06036 31.5936 6.08622 31.5936C6.48663 31.5936 6.84103 31.2339 6.89521 30.7536C6.92199 30.5163 6.87262 30.2821 6.75598 30.0942ZM3.9092 28.8976C3.87485 29.1208 3.72806 29.2562 3.61654 29.2391C3.54836 29.2282 3.50471 29.1653 3.48477 29.1287C3.43949 29.0457 3.42324 28.9343 3.44031 28.823C3.45748 28.7118 3.50634 28.6106 3.57442 28.5456C3.60121 28.52 3.65273 28.4799 3.71242 28.4799C3.71917 28.4799 3.72602 28.4804 3.73297 28.4816C3.80115 28.4924 3.8448 28.5554 3.86473 28.5919C3.91002 28.675 3.92627 28.7865 3.9092 28.8976ZM3.81193 27.9672C3.60503 27.9337 3.39129 28.0065 3.22467 28.1659C3.07297 28.3107 2.97013 28.5155 2.93538 28.7424C2.90042 28.9692 2.93691 29.1961 3.03791 29.3813C3.14892 29.5848 3.33098 29.7202 3.53757 29.7531C3.57048 29.7584 3.6033 29.7609 3.63591 29.7609C4.00667 29.7609 4.34451 29.4305 4.41402 28.9779C4.44898 28.7511 4.41249 28.5242 4.31149 28.339C4.20048 28.1356 4.01842 28.0001 3.81193 27.9672ZM2.26506 26.5946C2.24042 26.7546 2.12011 26.8736 2.0002 26.855C1.88122 26.8359 1.80138 26.6847 1.82602 26.5246C1.839 26.4404 1.87917 26.3638 1.93642 26.3147C1.96064 26.294 2.00736 26.2623 2.06562 26.2623C2.0739 26.2623 2.08229 26.2628 2.09098 26.2642C2.1609 26.2754 2.20362 26.3293 2.22284 26.3604C2.26261 26.4249 2.27794 26.5102 2.26506 26.5946ZM2.16985 25.7504C1.97256 25.7187 1.7675 25.7797 1.60722 25.917C1.45491 26.0476 1.3532 26.2349 1.321 26.4445C1.25241 26.8909 1.52166 27.3058 1.92114 27.3695C1.956 27.3752 1.99065 27.3779 2.025 27.3779C2.38462 27.3779 2.70744 27.0829 2.76989 26.6754H2.77C2.8022 26.4659 2.76151 26.2558 2.65571 26.0841C2.54429 25.9033 2.36724 25.7818 2.16985 25.7504ZM30.7016 33.6647C30.7016 33.4364 30.8438 33.2435 31.0119 33.2435C31.1802 33.2435 31.3223 33.4364 31.3223 33.6647C31.3223 33.893 31.1802 34.0859 31.0119 34.0859C30.8438 34.0859 30.7016 33.893 30.7016 33.6647ZM31.8333 33.6651C31.8333 33.1459 31.4647 32.7234 31.0118 32.7234C30.5589 32.7234 30.1903 33.1459 30.1903 33.6651C30.1903 34.1843 30.5589 34.6067 31.0118 34.6067C31.4647 34.6067 31.8333 34.1843 31.8333 33.6651ZM33.979 32.9634C33.979 32.7419 34.1082 32.5475 34.2554 32.5475C34.4027 32.5475 34.5317 32.7419 34.5317 32.9634C34.5317 33.1888 34.4051 33.3792 34.2554 33.3792C34.1082 33.3792 33.979 33.1849 33.979 32.9634ZM35.0427 32.9632C35.0427 32.4469 34.6894 32.0268 34.2553 32.0268C33.821 32.0268 33.4677 32.4469 33.4677 32.9632C33.4677 33.4794 33.821 33.8994 34.2553 33.8994C34.6894 33.8994 35.0427 33.4794 35.0427 32.9632ZM37.1309 31.7024C37.1562 31.6634 37.2118 31.5961 37.2992 31.5859C37.3069 31.585 37.3142 31.5846 37.3215 31.5846C37.3983 31.5846 37.4586 31.631 37.4891 31.6606C37.5581 31.727 37.6048 31.8279 37.6171 31.937C37.6294 32.0463 37.6064 32.1553 37.5542 32.236C37.5288 32.2751 37.4732 32.3423 37.3858 32.3526C37.2333 32.3684 37.0913 32.209 37.0679 32.0014C37.0556 31.8921 37.0785 31.7832 37.1309 31.7024ZM37.3638 32.8741C37.3904 32.8741 37.4173 32.8725 37.4441 32.8694C37.6585 32.8443 37.8541 32.7178 37.9807 32.5224C38.0998 32.3385 38.151 32.1095 38.1249 31.8775C38.0987 31.6452 37.9977 31.434 37.8407 31.2825C37.6739 31.1216 37.4556 31.0429 37.2409 31.0686C37.0265 31.0937 36.8308 31.2201 36.7042 31.4155C36.5851 31.5994 36.5339 31.8284 36.5602 32.0605C36.6127 32.5261 36.9646 32.8741 37.3638 32.8741ZM40.0246 30.252C40.1094 30.242 40.1782 30.2971 40.2117 30.3308C40.2833 30.4028 40.3321 30.5118 40.3455 30.6298C40.3705 30.852 40.266 31.0543 40.1171 31.0718C39.9672 31.0903 39.8214 30.9163 39.7963 30.694C39.7712 30.4719 39.8758 30.2695 40.0246 30.252ZM40.0977 31.5936C40.1235 31.5936 40.1496 31.5921 40.1758 31.5891C40.6071 31.5384 40.9112 31.0815 40.8533 30.5705C40.8265 30.3332 40.7261 30.1165 40.5708 29.9604C40.4029 29.792 40.1827 29.71 39.9664 29.7352C39.535 29.7857 39.2309 30.2425 39.2887 30.7536V30.7537C39.3429 31.2339 39.6974 31.5936 40.0977 31.5936ZM42.4509 28.4815C42.5191 28.4707 42.5795 28.5171 42.6095 28.5455C42.6776 28.6106 42.7264 28.7117 42.7434 28.8229C42.7605 28.9342 42.7444 29.0456 42.6991 29.1287C42.679 29.1652 42.6355 29.2282 42.5673 29.239C42.4563 29.2564 42.3089 29.1209 42.2745 28.8977C42.2403 28.6745 42.34 28.4992 42.4509 28.4815ZM42.548 29.7609C42.5806 29.7609 42.6134 29.7584 42.6462 29.7531C42.8528 29.7202 43.035 29.5848 43.1459 29.3814C43.247 29.1961 43.2835 28.9691 43.2485 28.7424C43.2136 28.5155 43.1109 28.3107 42.9592 28.1658C42.7926 28.0066 42.578 27.9336 42.3721 27.9672C41.9643 28.0321 41.6942 28.4854 41.7698 28.9779V28.978C41.8394 29.4305 42.1772 29.7609 42.548 29.7609ZM43.9609 26.3605C43.9801 26.3294 44.0228 26.2755 44.093 26.2643C44.1017 26.263 44.1101 26.2623 44.1182 26.2623C44.1765 26.2623 44.2232 26.2941 44.2475 26.3149C44.3046 26.3639 44.3449 26.4404 44.3578 26.5247C44.3824 26.6848 44.3026 26.8361 44.1838 26.8551C44.0649 26.8736 43.9434 26.755 43.9188 26.5948V26.5947C43.9058 26.5102 43.9212 26.425 43.9609 26.3605ZM44.1588 27.3778C44.1931 27.3778 44.2278 27.3751 44.2627 27.3695C44.6622 27.3058 44.9314 26.8909 44.8627 26.4446C44.8306 26.235 44.729 26.0476 44.5766 25.9169C44.4163 25.7796 44.2115 25.7187 44.0141 25.7504C43.8167 25.7818 43.6394 25.9033 43.5281 26.084C43.4222 26.2558 43.3816 26.4657 43.4138 26.6753C43.4764 27.0828 43.799 27.3779 44.1588 27.3778ZM26.122 36.3928L22.7871 39.7887L19.411 36.3508L18.8567 35.7864L17.89 34.8018L18.0463 34.6428L18.4403 34.2414L18.9424 33.73L19.3083 33.3575L19.9722 32.6814L19.9829 32.6706L20.4547 32.1902L20.4665 32.1782L22.7871 29.8149L25.1493 32.2202L25.1541 32.2251L25.638 32.7178L25.6431 32.7232L26.6103 33.7081L27.0299 34.1353L27.4683 34.5818L27.6844 34.8018L27.3796 35.1123L26.6684 35.8365L26.122 36.3928ZM28.2495 32.5035C28.18 32.3352 28.1027 32.1713 28.0192 32.0112C28.0183 32.0093 28.0174 32.0074 28.0164 32.0056C27.0108 30.0806 25.021 28.7665 22.7348 28.7665C20.4945 28.7665 18.5392 30.0284 17.5154 31.8901C17.5091 31.9014 17.5025 31.9125 17.4964 31.9237C17.414 32.0757 17.3386 32.232 17.2691 32.3914C17.2654 32.3998 17.2617 32.4079 17.2582 32.4161C17.2581 32.4161 17.2581 32.4161 17.2581 32.4162C16.936 33.1635 16.7559 33.988 16.7559 34.8551C16.7559 35.0972 16.7713 35.3355 16.7985 35.5702C16.8193 35.7509 16.8469 35.9295 16.883 36.105C17.4509 38.8647 19.8587 40.9436 22.7348 40.9436C25.5811 40.9436 27.9676 38.9072 28.5671 36.1905C28.6058 36.0153 28.6368 35.8374 28.6602 35.6569C28.6944 35.3943 28.7138 35.1271 28.7138 34.8551C28.7138 34.0239 28.5489 33.2313 28.2515 32.5088C28.2507 32.507 28.25 32.5052 28.2495 32.5035Z" fill="#1C1794"/>
<path fill-rule="evenodd" clip-rule="evenodd" d="M41.9087 23.5268C41.9428 23.6336 41.9715 23.7408 41.9947 23.8483C42.0178 23.9559 42.0355 24.0636 42.0475 24.1716C42.0603 24.287 42.0668 24.4025 42.0668 24.5182C42.0668 24.5857 42.0642 24.6531 42.0599 24.7203C42.0586 24.7425 42.056 24.7645 42.0541 24.7866C42.0503 24.8317 42.0464 24.8769 42.0405 24.9218C42.0373 24.9481 42.0329 24.9743 42.0289 25.0006C42.0226 25.0414 42.0162 25.082 42.0084 25.1227C42.0031 25.1505 41.997 25.1781 41.991 25.2059C41.9826 25.2451 41.9735 25.2841 41.9636 25.3231C41.9564 25.3513 41.9488 25.3795 41.9408 25.4075C41.9299 25.4462 41.9182 25.4848 41.9058 25.5233C41.8969 25.5512 41.8879 25.5792 41.8782 25.607C41.8646 25.6462 41.8499 25.6853 41.8348 25.7244C41.8244 25.7512 41.8144 25.7779 41.8035 25.8047C41.7862 25.8464 41.7674 25.8882 41.7486 25.9297C41.7377 25.9535 41.7276 25.9772 41.7164 26.0009C41.6904 26.0553 41.6626 26.1095 41.6338 26.1635C41.6281 26.1742 41.6231 26.1849 41.6172 26.1956C41.5825 26.2596 41.5454 26.3233 41.5065 26.387C41.4929 26.4093 41.478 26.4316 41.4638 26.4538C41.4374 26.4956 41.4108 26.5372 41.3827 26.5787C41.3651 26.6048 41.3462 26.6307 41.3279 26.6567C41.3015 26.6944 41.2747 26.732 41.2467 26.7694C41.2263 26.7965 41.2053 26.8237 41.1842 26.8508C41.1563 26.8868 41.1278 26.9228 41.0984 26.9588C41.0761 26.9861 41.0533 27.0135 41.0301 27.0407C40.9999 27.0764 40.969 27.1119 40.9375 27.1474C40.9136 27.1743 40.8895 27.2012 40.865 27.2281C40.8318 27.264 40.7978 27.2998 40.7634 27.3356C40.7385 27.3616 40.7139 27.3874 40.6883 27.4132C40.6507 27.4511 40.6118 27.4888 40.5727 27.5263C40.5486 27.5497 40.5252 27.5729 40.5005 27.5961C40.4507 27.6428 40.3989 27.6892 40.3469 27.7357C40.3329 27.7481 40.3197 27.7606 40.3055 27.7729C40.3082 27.7692 40.3102 27.7653 40.3128 27.7615C40.3538 27.7 40.3926 27.638 40.4291 27.5759C40.4373 27.5618 40.4447 27.5476 40.4527 27.5333C40.4806 27.4843 40.5075 27.4349 40.5325 27.3855C40.5434 27.3644 40.5534 27.3431 40.5637 27.3219C40.5851 27.2776 40.6052 27.233 40.6243 27.1885C40.6331 27.1677 40.6422 27.1468 40.6506 27.1261C40.6721 27.0728 40.6918 27.0194 40.7099 26.9658C40.7137 26.9548 40.7182 26.9436 40.7218 26.9326C40.7428 26.8681 40.7611 26.8033 40.7774 26.7383C40.7818 26.7207 40.7852 26.703 40.7893 26.6854C40.8003 26.6373 40.8103 26.5891 40.8188 26.5408C40.8226 26.5187 40.826 26.4966 40.8293 26.4745C40.8363 26.428 40.8419 26.3814 40.8464 26.3348C40.8484 26.3144 40.8508 26.2942 40.8522 26.2739C40.8571 26.2079 40.8603 26.1418 40.8603 26.0753C40.8603 24.2347 38.9788 22.528 35.5623 21.2697C35.3539 21.1929 35.1411 21.1183 34.9244 21.046C34.7211 20.9781 34.5143 20.9121 34.304 20.8481C31.1508 19.8875 27.2287 19.365 23.0919 19.365C18.3852 19.365 13.9565 20.0414 10.6216 21.2697C7.20504 22.528 5.32353 24.2347 5.32353 26.0753C5.32353 26.1436 5.32701 26.2116 5.33233 26.2795C5.33325 26.2919 5.33396 26.3044 5.33509 26.3167C5.34101 26.382 5.3495 26.4473 5.36023 26.5123C5.36228 26.5247 5.36473 26.5372 5.36698 26.5497C5.37914 26.6171 5.39294 26.6841 5.41022 26.7511C5.41053 26.7524 5.41104 26.7538 5.41134 26.7552C5.42852 26.8214 5.44896 26.8874 5.47104 26.9533C5.47503 26.965 5.47881 26.9769 5.4829 26.9886C5.5015 27.0418 5.52123 27.0947 5.54301 27.1475C5.53094 27.1339 5.51939 27.1203 5.50733 27.1067C5.4782 27.0733 5.44906 27.0399 5.42105 27.0065C5.40449 26.9866 5.38855 26.9668 5.3724 26.9469C5.34745 26.9164 5.32261 26.8858 5.29869 26.8551C5.28224 26.8341 5.26629 26.8131 5.25034 26.792C5.22785 26.7623 5.20557 26.7325 5.1839 26.7027C5.16826 26.6811 5.15282 26.6595 5.13769 26.6379C5.11684 26.6082 5.0965 26.5783 5.07657 26.5487C5.06205 26.527 5.04753 26.5054 5.03353 26.4837C5.0139 26.4533 4.99499 26.423 4.97629 26.3925C4.9633 26.3714 4.95012 26.3504 4.93754 26.3291C4.91863 26.2971 4.90044 26.2649 4.88245 26.2326C4.87151 26.2132 4.86016 26.1936 4.84963 26.1741C4.82909 26.1358 4.80956 26.0975 4.79045 26.0592C4.7836 26.0456 4.77634 26.032 4.76969 26.0185C4.74455 25.9667 4.72073 25.9148 4.69814 25.8628C4.6919 25.8485 4.68638 25.8341 4.68045 25.8196C4.66451 25.7817 4.64877 25.7438 4.63435 25.7058C4.62669 25.6857 4.61984 25.6657 4.61258 25.6455C4.60082 25.6131 4.58917 25.5805 4.57844 25.5478C4.57118 25.526 4.56464 25.5042 4.55789 25.4823C4.54838 25.4512 4.53898 25.4201 4.53039 25.3889C4.52416 25.3665 4.51833 25.3439 4.5125 25.3213C4.50463 25.2906 4.49727 25.2597 4.49022 25.2289C4.48511 25.2063 4.4803 25.1837 4.4756 25.161C4.46926 25.1298 4.46354 25.0987 4.45812 25.0674C4.45424 25.0451 4.45035 25.0229 4.44688 25.0007C4.44197 24.9683 4.43788 24.9357 4.43389 24.9033C4.43134 24.8822 4.42858 24.8612 4.42643 24.8401C4.42275 24.8044 4.4202 24.7687 4.41785 24.7328C4.41652 24.715 4.41488 24.6971 4.41396 24.6792C4.4113 24.6257 4.40967 24.572 4.40967 24.5182C4.40967 22.4971 6.33001 20.5753 9.81702 19.1071C10.2617 18.9198 10.7249 18.7431 11.2048 18.577C11.4448 18.494 11.689 18.4136 11.9371 18.336C12.2242 18.2461 12.5185 18.1613 12.8161 18.0788C13.137 17.9899 13.4623 17.904 13.7944 17.8238C16.613 17.1427 19.8204 16.7769 23.1637 16.7715C23.892 16.7724 24.6267 16.7888 25.3469 16.8203L25.6799 16.8364C30.2112 17.0808 34.3799 18.0073 37.4177 19.4455C39.7893 20.5683 41.3179 21.9301 41.8533 23.3669C41.873 23.4201 41.8916 23.4734 41.9087 23.5268Z" fill="#1C1794"/>
<path fill-rule="evenodd" clip-rule="evenodd" d="M17.5701 23.4097C17.5578 23.4081 17.5455 23.4063 17.5332 23.4048C17.369 23.3839 17.2053 23.3623 17.0426 23.3397C17.0015 23.3339 16.9609 23.3276 16.9199 23.3217C16.7864 23.3028 16.6529 23.2837 16.5205 23.2635C16.4659 23.2552 16.4121 23.2462 16.3577 23.2376C16.2396 23.2191 16.121 23.2006 16.0038 23.1812C15.9433 23.1711 15.8837 23.1604 15.8234 23.15C15.7133 23.1311 15.6029 23.1126 15.4936 23.0929C15.4058 23.0771 15.319 23.0603 15.2316 23.0439C15.1513 23.0288 15.0704 23.0143 14.9906 22.9987C14.8921 22.9796 14.7948 22.9594 14.697 22.9396C14.6293 22.9258 14.5608 22.9126 14.4935 22.8985C14.3911 22.8771 14.2899 22.8547 14.1885 22.8325C14.127 22.8191 14.065 22.8062 14.0039 22.7925C13.8936 22.7679 13.7849 22.7421 13.6758 22.7166C13.6246 22.7046 13.5728 22.693 13.522 22.6809C13.4151 22.6553 13.3096 22.6286 13.2039 22.6021C13.1518 22.5891 13.0991 22.5765 13.0474 22.5633C12.9405 22.5361 12.8353 22.5077 12.7297 22.4795C12.6805 22.4664 12.6304 22.4537 12.5814 22.4403C12.4663 22.409 12.353 22.3767 12.2395 22.3443C12.2012 22.3334 12.1623 22.3229 12.1242 22.3119C12.0109 22.279 11.8993 22.2451 11.7876 22.2113C11.7504 22.2 11.7125 22.1892 11.6753 22.1778C11.5716 22.1458 11.4696 22.1128 11.3672 22.08C11.3236 22.066 11.2791 22.0525 11.2357 22.0383C11.1331 22.0047 11.0323 21.9701 10.9313 21.9357C10.8898 21.9216 10.8474 21.9079 10.8061 21.8934C10.708 21.8595 10.6119 21.8245 10.5153 21.7896C10.4724 21.7742 10.4285 21.759 10.3859 21.7434C10.2964 21.7105 10.2086 21.6766 10.1205 21.6428C10.0725 21.6245 10.0236 21.6067 9.97606 21.5881C9.89093 21.5549 9.80797 21.5208 9.72429 21.487C9.67538 21.4672 9.62543 21.4478 9.57694 21.4278C9.5012 21.3964 9.42742 21.3642 9.35302 21.3323C9.29823 21.3088 9.24241 21.2859 9.18844 21.262C9.12322 21.2336 9.06007 21.2042 8.99589 21.1751C8.93429 21.1473 8.87176 21.1197 8.81129 21.0916C8.75248 21.0642 8.69562 21.0362 8.63784 21.0084C8.57386 20.9777 8.50896 20.9473 8.44601 20.9162C8.39277 20.89 8.34138 20.8628 8.28896 20.8362C8.22323 20.8029 8.15699 20.7698 8.0925 20.736C8.04709 20.7122 8.00355 20.6876 7.95887 20.6635C7.89108 20.627 7.82266 20.5907 7.75631 20.5538C7.7559 20.5535 7.75549 20.5533 7.75508 20.5529C7.71535 20.5277 7.678 20.5021 7.6393 20.4766C7.59225 20.4456 7.54416 20.4148 7.49876 20.3835C7.45718 20.3551 7.41838 20.3263 7.37824 20.2977C7.33727 20.2685 7.29517 20.2395 7.25555 20.2102C7.21314 20.1786 7.17331 20.1466 7.13235 20.1149C7.09767 20.088 7.06166 20.0613 7.02813 20.0343C6.98644 20.0005 6.94733 19.9664 6.90719 19.9325C6.87727 19.9071 6.846 19.8819 6.8169 19.8564C6.77584 19.8202 6.73766 19.7838 6.69845 19.7473C6.67317 19.7237 6.64634 19.7003 6.62188 19.6766C6.58319 19.6392 6.54738 19.6016 6.51085 19.5639C6.48846 19.5409 6.46452 19.5181 6.44296 19.495C6.40602 19.4556 6.37217 19.4157 6.3376 19.3762C6.31893 19.3547 6.2987 19.3334 6.28064 19.3119C6.24608 19.2706 6.2146 19.2292 6.18251 19.1878C6.16704 19.1676 6.14991 19.1475 6.13484 19.1274C6.10275 19.0841 6.07365 19.0405 6.04424 18.997C6.03176 18.9784 6.01783 18.9601 6.00576 18.9416C5.978 18.8986 5.95334 18.8554 5.92816 18.8123C5.91691 18.793 5.90422 18.7738 5.89349 18.7545C5.86872 18.7097 5.84705 18.6648 5.82518 18.62C5.81651 18.6022 5.8063 18.5845 5.79814 18.5667C5.77709 18.521 5.75924 18.4752 5.74129 18.4295C5.73448 18.4123 5.72622 18.3952 5.71993 18.378C5.70404 18.3352 5.69155 18.2923 5.67834 18.2495C5.67226 18.2291 5.66431 18.209 5.65874 18.1886C5.64718 18.1466 5.63872 18.1044 5.62974 18.0624C5.6251 18.0412 5.61891 18.0201 5.61499 17.9989C5.60673 17.9542 5.60178 17.9097 5.59641 17.8649C5.59425 17.8464 5.59043 17.8276 5.58857 17.8089C5.58269 17.7456 5.5798 17.6822 5.5798 17.6187C5.5798 16.0507 7.40507 14.4913 10.5873 13.3403C13.8989 12.1425 18.3071 11.483 22.9998 11.483C26.3361 11.483 29.5287 11.8163 32.2855 12.4394C32.9215 12.5833 33.5346 12.7426 34.1208 12.9166C34.3441 12.983 34.5634 13.0515 34.7789 13.122C34.9941 13.1927 35.2055 13.2654 35.4123 13.3403C38.5947 14.4913 40.42 16.0507 40.42 17.6187C40.42 19.1821 38.604 20.7382 35.4379 21.8879C35.0261 22.0375 34.5973 22.1786 34.1529 22.3112C33.6041 22.475 33.0306 22.6249 32.4375 22.7621C32.3141 22.7907 32.189 22.8181 32.0637 22.8455C31.8963 22.8821 31.728 22.9181 31.5575 22.9525C28.9954 23.4707 26.0974 23.7495 23.0787 23.7543C21.1943 23.7516 19.3392 23.6328 17.5701 23.4097ZM38.9793 24.5775C34.7154 26.4092 29.0405 27.4178 23 27.4178C16.9597 27.4178 11.2848 26.4092 7.02084 24.5775C2.8261 22.7757 0.515965 20.4066 0.515965 17.9068C0.515965 15.4071 2.8261 13.0381 7.02084 11.2362C7.44246 11.0551 7.87749 10.8821 8.32574 10.7174C8.27662 10.7412 8.22874 10.7655 8.18024 10.7896C8.14165 10.8088 8.10244 10.828 8.06436 10.8473C7.99162 10.8842 7.92032 10.9215 7.84912 10.9587C7.82456 10.9717 7.79917 10.9845 7.77472 10.9975C7.68092 11.0475 7.58898 11.0977 7.49828 11.1484C7.46568 11.1666 7.4342 11.185 7.40211 11.2033C7.3435 11.2366 7.28489 11.27 7.22763 11.3036C7.18996 11.3258 7.15323 11.3482 7.11618 11.3704C7.06583 11.4006 7.01547 11.4308 6.96625 11.4613C6.92777 11.485 6.89 11.509 6.85213 11.5329C6.80559 11.5623 6.75926 11.5918 6.71365 11.6214C6.67599 11.6461 6.63874 11.6707 6.6017 11.6954C6.55733 11.725 6.51337 11.7546 6.47003 11.7843C6.43371 11.8093 6.3977 11.8343 6.36199 11.8594C6.31917 11.8895 6.27697 11.9197 6.23528 11.9501C6.20061 11.9751 6.16594 12.0001 6.13209 12.0254C6.09051 12.0562 6.04985 12.0874 6.0093 12.1185C5.9767 12.1434 5.94388 12.1683 5.912 12.1934C5.87031 12.2263 5.82966 12.2593 5.7891 12.2923C5.76 12.3159 5.7306 12.3393 5.70222 12.3629C5.65362 12.4034 5.60646 12.4442 5.55951 12.4851C5.54053 12.5016 5.52082 12.518 5.50204 12.5346C5.43837 12.5908 5.37636 12.6476 5.31589 12.7045C5.29185 12.727 5.26894 12.75 5.24552 12.7727C5.20847 12.8084 5.17122 12.8442 5.13552 12.8801C5.10983 12.9058 5.08527 12.9317 5.0605 12.9574C5.02821 12.9907 4.99601 13.024 4.96475 13.0576C4.93977 13.0845 4.91563 13.1115 4.89117 13.1386C4.86156 13.1713 4.83236 13.2041 4.80378 13.2371C4.77994 13.2645 4.75683 13.2922 4.73371 13.3196C4.70606 13.3527 4.67902 13.3857 4.6524 13.4188C4.63032 13.4465 4.60844 13.474 4.58698 13.5018C4.56098 13.5354 4.5357 13.5691 4.51073 13.6029C4.4905 13.6303 4.47007 13.6578 4.45046 13.6853C4.4257 13.7202 4.40186 13.7553 4.37813 13.7904C4.36018 13.817 4.34181 13.8434 4.32447 13.8699C4.29971 13.9081 4.27629 13.9463 4.25286 13.9845C4.23811 14.0083 4.22284 14.0323 4.2086 14.0562C4.17836 14.1074 4.14978 14.1587 4.12182 14.2101C4.11573 14.2215 4.10902 14.2326 4.10304 14.2439C4.06991 14.306 4.03896 14.3682 4.00924 14.4308C3.99861 14.453 3.98912 14.4756 3.97911 14.4979C3.96033 14.5391 3.94176 14.5801 3.92463 14.6213C3.91379 14.6475 3.90389 14.6735 3.89357 14.6997C3.87871 14.7376 3.86395 14.7755 3.85023 14.8135C3.84053 14.8408 3.83145 14.8682 3.82227 14.8956C3.80978 14.9328 3.79771 14.9701 3.78636 15.0075C3.7779 15.0351 3.77005 15.063 3.76242 15.0907C3.75189 15.1282 3.7423 15.1654 3.73301 15.2029C3.7261 15.2308 3.7196 15.2585 3.7134 15.2864C3.70494 15.3244 3.69741 15.3624 3.69029 15.4006C3.68503 15.428 3.67977 15.4553 3.67523 15.4825C3.66872 15.5223 3.66326 15.5621 3.65799 15.6018C3.65459 15.6277 3.65077 15.6535 3.64798 15.6794C3.64313 15.7235 3.63963 15.7676 3.63643 15.8119C3.63488 15.8336 3.63261 15.8552 3.63137 15.8769C3.62776 15.9429 3.6257 16.009 3.6257 16.0752C3.6257 16.1316 3.62693 16.1878 3.62962 16.2441C3.63044 16.261 3.63209 16.2779 3.63313 16.2948C3.6354 16.3339 3.63767 16.3731 3.64128 16.4121C3.64262 16.4263 3.64468 16.4402 3.64623 16.4542C3.65056 16.4962 3.655 16.538 3.66088 16.5798C3.6614 16.5843 3.66243 16.5886 3.66305 16.593C3.67038 16.6443 3.67853 16.6955 3.68812 16.7466C3.68905 16.7516 3.69039 16.7566 3.69122 16.7617C3.70092 16.8121 3.71144 16.8625 3.7231 16.9128C3.72341 16.9138 3.72383 16.9151 3.72414 16.9162C3.73683 16.9703 3.75076 17.0242 3.76582 17.078C3.76727 17.0827 3.76882 17.0873 3.77005 17.0919C3.7846 17.1422 3.79967 17.1925 3.81628 17.2425C3.81783 17.2471 3.81969 17.2518 3.82123 17.2564C4.03927 17.908 4.43819 18.5401 5.01097 19.143C5.01489 19.147 5.01902 19.1509 5.02284 19.1549C5.06711 19.2014 5.1123 19.2478 5.15863 19.2939C5.16627 19.3014 5.17432 19.3087 5.18185 19.3162C5.22519 19.3589 5.26894 19.4016 5.31403 19.4439C5.32064 19.4501 5.32765 19.4561 5.33426 19.4624C5.38079 19.5059 5.42795 19.5491 5.47624 19.5923C5.48656 19.6014 5.4974 19.6105 5.50792 19.6197C5.55322 19.6597 5.59883 19.6996 5.64578 19.7393C5.66022 19.7514 5.67518 19.7635 5.68973 19.7756C5.73359 19.8121 5.77744 19.8488 5.82274 19.8851C5.83997 19.899 5.85793 19.9127 5.87547 19.9266C5.91881 19.961 5.96194 19.9953 6.00652 20.0295C6.02808 20.0459 6.05047 20.0622 6.07225 20.0785C6.11373 20.1098 6.155 20.1412 6.19762 20.1724C6.22341 20.1911 6.25024 20.2098 6.27635 20.2285C6.31608 20.257 6.35539 20.2855 6.39584 20.3137C6.42669 20.3353 6.45878 20.3567 6.49015 20.378C6.52709 20.4032 6.56352 20.4286 6.60108 20.4535C6.63657 20.4773 6.67341 20.5007 6.70942 20.5242C6.74409 20.5468 6.77825 20.5695 6.81343 20.592C6.85461 20.6181 6.89671 20.644 6.93839 20.6699C6.96997 20.6895 7.00092 20.7092 7.03281 20.7286C7.07769 20.7561 7.12382 20.7831 7.16953 20.8104C7.19956 20.8282 7.22907 20.8463 7.25951 20.8641C7.30986 20.8934 7.36135 20.9225 7.41264 20.9517C7.43885 20.9666 7.46433 20.9816 7.49075 20.9964C7.54441 21.0306 7.60095 21.0638 7.65626 21.0974C7.70228 21.1255 7.74676 21.1539 7.79381 21.1816C7.84509 21.2118 7.89885 21.2412 7.95138 21.271C8.00617 21.3022 8.05993 21.3336 8.11616 21.3644C8.16415 21.3907 8.21429 21.4162 8.26331 21.4421C8.32656 21.4756 8.38889 21.5096 8.45379 21.5426C8.49733 21.5647 8.54274 21.5862 8.587 21.6082C8.65975 21.6442 8.73188 21.6805 8.80648 21.7159C8.84373 21.7337 8.88274 21.7508 8.9205 21.7684C9.00419 21.8073 9.08735 21.8463 9.17331 21.8844C9.20746 21.8996 9.24306 21.9141 9.27753 21.9291C9.36916 21.969 9.46058 22.0089 9.55458 22.0479C9.58255 22.0596 9.61185 22.0708 9.64023 22.0823C9.74218 22.1241 9.84443 22.1658 9.94927 22.2064C9.97115 22.2149 9.99405 22.2231 10.016 22.2316C10.1285 22.2749 10.2416 22.3178 10.3572 22.3598C10.3722 22.3653 10.3879 22.3704 10.403 22.3759C10.5266 22.4206 10.6514 22.4648 10.7782 22.508C10.7801 22.5087 10.7821 22.5093 10.7842 22.5101C13.2008 23.3327 16.2112 23.9009 19.4698 24.1415C19.4766 24.1421 19.4835 24.1425 19.4904 24.143C19.6753 24.1566 19.8609 24.1692 20.0473 24.1805C20.0934 24.1834 20.1401 24.1856 20.1862 24.1882C20.334 24.1968 20.4816 24.2055 20.6303 24.2128C20.6688 24.2146 20.7077 24.216 20.7463 24.2178C20.9027 24.2251 21.0595 24.2321 21.2168 24.238C21.3299 24.2421 21.4437 24.245 21.5574 24.2483C21.641 24.2509 21.7242 24.254 21.808 24.2561C21.9642 24.2599 22.1211 24.2624 22.278 24.2647C22.3196 24.2654 22.3607 24.2664 22.4022 24.267C22.6011 24.2695 22.8003 24.2706 23 24.2706L23.0787 24.2703L23.1477 24.2706C28.3264 24.2706 33.1988 23.4381 36.8678 21.9264C40.6094 20.3848 42.6698 18.3068 42.6698 16.0752C42.6698 16.0151 42.668 15.955 42.6649 15.895C42.664 15.8756 42.6622 15.8561 42.6609 15.8366C42.658 15.796 42.655 15.7555 42.651 15.7149C42.6485 15.6921 42.6457 15.6693 42.643 15.6464C42.6384 15.6092 42.6335 15.572 42.6278 15.5348C42.6242 15.5109 42.6202 15.4871 42.616 15.4635C42.6096 15.4268 42.6027 15.3904 42.5952 15.3539C42.5904 15.3305 42.5856 15.3071 42.5803 15.2838C42.5718 15.2457 42.5623 15.2079 42.5526 15.17C42.547 15.1485 42.5417 15.1271 42.5359 15.1056C42.5238 15.0622 42.5106 15.0187 42.4969 14.9754C42.492 14.9599 42.4877 14.9443 42.4825 14.9288C42.4632 14.8698 42.4423 14.8109 42.42 14.7521C42.4162 14.7423 42.4119 14.7326 42.4081 14.7228C42.3891 14.6741 42.3693 14.6256 42.3484 14.5771C42.3399 14.5576 42.3307 14.5382 42.3219 14.5187C42.3043 14.4799 42.2867 14.4412 42.2678 14.4025C42.2572 14.3807 42.2461 14.3589 42.2351 14.3372C42.2166 14.3006 42.1976 14.2643 42.178 14.2279C42.166 14.2057 42.1538 14.1835 42.1413 14.1614C42.1209 14.1251 42.0998 14.0888 42.0782 14.0527C42.0655 14.0312 42.0528 14.0099 42.0397 13.9885C42.0161 13.9501 41.9915 13.9119 41.9665 13.8737C41.9543 13.855 41.9426 13.8363 41.9302 13.8177C41.8974 13.769 41.8636 13.7206 41.8289 13.6722C41.8232 13.6644 41.8179 13.6564 41.8122 13.6485C41.7709 13.5918 41.7281 13.5352 41.6841 13.479C41.6734 13.4653 41.6622 13.4519 41.6513 13.4383C41.6177 13.3962 41.5837 13.354 41.5484 13.3121C41.5323 13.293 41.5156 13.274 41.4992 13.2548C41.468 13.2186 41.4363 13.1823 41.4039 13.1463C41.3853 13.1257 41.3665 13.1049 41.3475 13.0845C41.3154 13.0496 41.2828 13.0149 41.2496 12.9803C41.2299 12.9598 41.2102 12.9394 41.1902 12.919C41.1557 12.8839 41.1205 12.8488 41.0849 12.8139C41.0651 12.7945 41.0455 12.7752 41.0254 12.7558C40.9856 12.7177 40.9448 12.6797 40.9035 12.6418C40.8867 12.6263 40.8704 12.6108 40.8534 12.5955C40.7354 12.4887 40.612 12.3829 40.4831 12.2784C40.4641 12.2629 40.4444 12.2476 40.4251 12.2323C40.3793 12.1958 40.3332 12.1593 40.2862 12.1231C40.2618 12.1043 40.2368 12.0855 40.212 12.0669C40.1687 12.0342 40.1248 12.0015 40.0804 11.969C40.0536 11.9493 40.0265 11.9298 39.9993 11.9103C39.955 11.8785 39.9101 11.8469 39.8647 11.8153C39.837 11.7962 39.8096 11.777 39.7815 11.7579C39.7337 11.7253 39.6853 11.693 39.6364 11.6607C39.61 11.6432 39.5838 11.6256 39.557 11.6082C39.5 11.5712 39.4417 11.5344 39.3832 11.4976C39.3639 11.4855 39.345 11.4732 39.3255 11.4613C39.2467 11.4122 39.1664 11.3636 39.0849 11.3155C39.0707 11.307 39.0558 11.2985 39.0414 11.2902C38.9829 11.2558 38.9244 11.2216 38.8647 11.1877C39.1918 11.3263 39.5101 11.4696 39.8189 11.6173C43.4722 13.3657 45.4841 15.5992 45.4841 17.9068C45.4841 20.4066 43.174 22.7757 38.9793 24.5775ZM38.9793 24.5775C34.7154 26.4092 29.0405 27.4178 23 27.4178C16.9597 27.4178 11.2848 26.4092 7.02084 24.5775C2.8261 22.7757 0.515965 20.4066 0.515965 17.9068C0.515965 15.4071 2.8261 13.0381 7.02084 11.2362C7.44246 11.0551 7.87749 10.8821 8.32574 10.7174C8.27662 10.7412 8.22874 10.7655 8.18024 10.7896C8.14165 10.8088 8.10244 10.828 8.06436 10.8473C7.99162 10.8842 7.92032 10.9215 7.84912 10.9587C7.82456 10.9717 7.79917 10.9845 7.77472 10.9975C7.68092 11.0475 7.58898 11.0977 7.49828 11.1484C7.46568 11.1666 7.4342 11.185 7.40211 11.2033C7.3435 11.2366 7.28489 11.27 7.22763 11.3036C7.18996 11.3258 7.15323 11.3482 7.11618 11.3704C7.06583 11.4006 7.01547 11.4308 6.96625 11.4613C6.92777 11.485 6.89 11.509 6.85213 11.5329C6.80559 11.5623 6.75926 11.5918 6.71365 11.6214C6.67599 11.6461 6.63874 11.6707 6.6017 11.6954C6.55733 11.725 6.51337 11.7546 6.47003 11.7843C6.43371 11.8093 6.3977 11.8343 6.36199 11.8594C6.31917 11.8895 6.27697 11.9197 6.23528 11.9501C6.20061 11.9751 6.16594 12.0001 6.13209 12.0254C6.09051 12.0562 6.04985 12.0874 6.0093 12.1185C5.9767 12.1434 5.94388 12.1683 5.912 12.1934C5.87031 12.2263 5.82966 12.2593 5.7891 12.2923C5.76 12.3159 5.7306 12.3393 5.70222 12.3629C5.65362 12.4034 5.60646 12.4442 5.55951 12.4851C5.54053 12.5016 5.52082 12.518 5.50204 12.5346C5.43837 12.5908 5.37636 12.6476 5.31589 12.7045C5.29185 12.727 5.26894 12.75 5.24552 12.7727C5.20847 12.8084 5.17122 12.8442 5.13552 12.8801C5.10983 12.9058 5.08527 12.9317 5.0605 12.9574C5.02821 12.9907 4.99601 13.024 4.96475 13.0576C4.93977 13.0845 4.91563 13.1115 4.89117 13.1386C4.86156 13.1713 4.83236 13.2041 4.80378 13.2371C4.77994 13.2645 4.75683 13.2922 4.73371 13.3196C4.70606 13.3527 4.67902 13.3857 4.6524 13.4188C4.63032 13.4465 4.60844 13.474 4.58698 13.5018C4.56098 13.5354 4.5357 13.5691 4.51073 13.6029C4.4905 13.6303 4.47007 13.6578 4.45046 13.6853C4.4257 13.7202 4.40186 13.7553 4.37813 13.7904C4.36018 13.817 4.34181 13.8434 4.32447 13.8699C4.29971 13.9081 4.27629 13.9463 4.25286 13.9845C4.23811 14.0083 4.22284 14.0323 4.2086 14.0562C4.17836 14.1074 4.14978 14.1587 4.12182 14.2101C4.11573 14.2215 4.10902 14.2326 4.10304 14.2439C4.06991 14.306 4.03896 14.3682 4.00924 14.4308C3.99861 14.453 3.98912 14.4756 3.97911 14.4979C3.96033 14.5391 3.94176 14.5801 3.92463 14.6213C3.91379 14.6475 3.90389 14.6735 3.89357 14.6997C3.87871 14.7376 3.86395 14.7755 3.85023 14.8135C3.84053 14.8408 3.83145 14.8682 3.82227 14.8956C3.80978 14.9328 3.79771 14.9701 3.78636 15.0075C3.7779 15.0351 3.77005 15.063 3.76242 15.0907C3.75189 15.1282 3.7423 15.1654 3.73301 15.2029C3.7261 15.2308 3.7196 15.2585 3.7134 15.2864C3.70494 15.3244 3.69741 15.3624 3.69029 15.4006C3.68503 15.428 3.67977 15.4553 3.67523 15.4825C3.66872 15.5223 3.66326 15.5621 3.65799 15.6018C3.65459 15.6277 3.65077 15.6535 3.64798 15.6794C3.64313 15.7235 3.63963 15.7676 3.63643 15.8119C3.63488 15.8336 3.63261 15.8552 3.63137 15.8769C3.62776 15.9429 3.6257 16.009 3.6257 16.0752C3.6257 16.1316 3.62693 16.1878 3.62962 16.2441C3.63044 16.261 3.63209 16.2779 3.63313 16.2948C3.6354 16.3339 3.63767 16.3731 3.64128 16.4121C3.64262 16.4263 3.64468 16.4402 3.64623 16.4542C3.65056 16.4962 3.655 16.538 3.66088 16.5798C3.6614 16.5843 3.66243 16.5886 3.66305 16.593C3.67038 16.6443 3.67853 16.6955 3.68812 16.7466C3.68905 16.7516 3.69039 16.7566 3.69122 16.7617C3.70092 16.8121 3.71144 16.8625 3.7231 16.9128C3.72341 16.9138 3.72383 16.9151 3.72414 16.9162C3.73683 16.9703 3.75076 17.0242 3.76582 17.078C3.76727 17.0827 3.76882 17.0873 3.77005 17.0919C3.7846 17.1422 3.79967 17.1925 3.81628 17.2425C3.81783 17.2471 3.81969 17.2518 3.82123 17.2564C4.03927 17.908 4.43819 18.5401 5.01097 19.143C5.01489 19.147 5.01902 19.1509 5.02284 19.1549C5.06711 19.2014 5.1123 19.2478 5.15863 19.2939C5.16627 19.3014 5.17432 19.3087 5.18185 19.3162C5.22519 19.3589 5.26894 19.4016 5.31403 19.4439C5.32064 19.4501 5.32765 19.4561 5.33426 19.4624C5.38079 19.5059 5.42795 19.5491 5.47624 19.5923C5.48656 19.6014 5.4974 19.6105 5.50792 19.6197C5.55322 19.6597 5.59883 19.6996 5.64578 19.7393C5.66022 19.7514 5.67518 19.7635 5.68973 19.7756C5.73359 19.8121 5.77744 19.8488 5.82274 19.8851C5.83997 19.899 5.85793 19.9127 5.87547 19.9266C5.91881 19.961 5.96194 19.9953 6.00652 20.0295C6.02808 20.0459 6.05047 20.0622 6.07225 20.0785C6.11373 20.1098 6.155 20.1412 6.19762 20.1724C6.22341 20.1911 6.25024 20.2098 6.27635 20.2285C6.31608 20.257 6.35539 20.2855 6.39584 20.3137C6.42669 20.3353 6.45878 20.3567 6.49015 20.378C6.52709 20.4032 6.56352 20.4286 6.60108 20.4535C6.63657 20.4773 6.67341 20.5007 6.70942 20.5242C6.74409 20.5468 6.77825 20.5695 6.81343 20.592C6.85461 20.6181 6.89671 20.644 6.93839 20.6699C6.96997 20.6895 7.00092 20.7092 7.03281 20.7286C7.07769 20.7561 7.12382 20.7831 7.16953 20.8104C7.19956 20.8282 7.22907 20.8463 7.25951 20.8641C7.30986 20.8934 7.36135 20.9225 7.41264 20.9517C7.43885 20.9666 7.46433 20.9816 7.49075 20.9964C7.54441 21.0306 7.60095 21.0638 7.65626 21.0974C7.70228 21.1255 7.74676 21.1539 7.79381 21.1816C7.84509 21.2118 7.89885 21.2412 7.95138 21.271C8.00617 21.3022 8.05993 21.3336 8.11616 21.3644C8.16415 21.3907 8.21429 21.4162 8.26331 21.4421C8.32656 21.4756 8.38889 21.5096 8.45379 21.5426C8.49733 21.5647 8.54274 21.5862 8.587 21.6082C8.65975 21.6442 8.73188 21.6805 8.80648 21.7159C8.84373 21.7337 8.88274 21.7508 8.9205 21.7684C9.00419 21.8073 9.08735 21.8463 9.17331 21.8844C9.20746 21.8996 9.24306 21.9141 9.27753 21.9291C9.36916 21.969 9.46058 22.0089 9.55458 22.0479C9.58255 22.0596 9.61185 22.0708 9.64023 22.0823C9.74218 22.1241 9.84443 22.1658 9.94927 22.2064C9.97115 22.2149 9.99405 22.2231 10.016 22.2316C10.1285 22.2749 10.2416 22.3178 10.3572 22.3598C10.3722 22.3653 10.3879 22.3704 10.403 22.3759C10.5266 22.4206 10.6514 22.4648 10.7782 22.508C10.7801 22.5087 10.7821 22.5093 10.7842 22.5101C13.2008 23.3327 16.2112 23.9009 19.4698 24.1415C19.4766 24.1421 19.4835 24.1425 19.4904 24.143C19.6753 24.1566 19.8609 24.1692 20.0473 24.1805C20.0934 24.1834 20.1401 24.1856 20.1862 24.1882C20.334 24.1968 20.4816 24.2055 20.6303 24.2128C20.6688 24.2146 20.7077 24.216 20.7463 24.2178C20.9027 24.2251 21.0595 24.2321 21.2168 24.238C21.3299 24.2421 21.4437 24.245 21.5574 24.2483C21.641 24.2509 21.7242 24.254 21.808 24.2561C21.9642 24.2599 22.1211 24.2624 22.278 24.2647C22.3196 24.2654 22.3607 24.2664 22.4022 24.267C22.6011 24.2695 22.8003 24.2706 23 24.2706L23.0787 24.2703L23.1477 24.2706C28.3264 24.2706 33.1988 23.4381 36.8678 21.9264C40.6094 20.3848 42.6698 18.3068 42.6698 16.0752C42.6698 16.0151 42.668 15.955 42.6649 15.895C42.664 15.8756 42.6622 15.8561 42.6609 15.8366C42.658 15.796 42.655 15.7555 42.651 15.7149C42.6485 15.6921 42.6457 15.6693 42.643 15.6464C42.6384 15.6092 42.6335 15.572 42.6278 15.5348C42.6242 15.5109 42.6202 15.4871 42.616 15.4635C42.6096 15.4268 42.6027 15.3904 42.5952 15.3539C42.5904 15.3305 42.5856 15.3071 42.5803 15.2838C42.5718 15.2457 42.5623 15.2079 42.5526 15.17C42.547 15.1485 42.5417 15.1271 42.5359 15.1056C42.5238 15.0622 42.5106 15.0187 42.4969 14.9754C42.492 14.9599 42.4877 14.9443 42.4825 14.9288C42.4632 14.8698 42.4423 14.8109 42.42 14.7521C42.4162 14.7423 42.4119 14.7326 42.4081 14.7228C42.3891 14.6741 42.3693 14.6256 42.3484 14.5771C42.3399 14.5576 42.3307 14.5382 42.3219 14.5187C42.3043 14.4799 42.2867 14.4412 42.2678 14.4025C42.2572 14.3807 42.2461 14.3589 42.2351 14.3372C42.2166 14.3006 42.1976 14.2643 42.178 14.2279C42.166 14.2057 42.1538 14.1835 42.1413 14.1614C42.1209 14.1251 42.0998 14.0888 42.0782 14.0527C42.0655 14.0312 42.0528 14.0099 42.0397 13.9885C42.0161 13.9501 41.9915 13.9119 41.9665 13.8737C41.9543 13.855 41.9426 13.8363 41.9302 13.8177C41.8974 13.769 41.8636 13.7206 41.8289 13.6722C41.8232 13.6644 41.8179 13.6564 41.8122 13.6485C41.7709 13.5918 41.7281 13.5352 41.6841 13.479C41.6734 13.4653 41.6622 13.4519 41.6513 13.4383C41.6177 13.3962 41.5837 13.354 41.5484 13.3121C41.5323 13.293 41.5156 13.274 41.4992 13.2548C41.468 13.2186 41.4363 13.1823 41.4039 13.1463C41.3853 13.1257 41.3665 13.1049 41.3475 13.0845C41.3154 13.0496 41.2828 13.0149 41.2496 12.9803C41.2299 12.9598 41.2102 12.9394 41.1902 12.919C41.1557 12.8839 41.1205 12.8488 41.0849 12.8139C41.0651 12.7945 41.0455 12.7752 41.0254 12.7558C40.9856 12.7177 40.9448 12.6797 40.9035 12.6418C40.8867 12.6263 40.8704 12.6108 40.8534 12.5955C40.7354 12.4887 40.612 12.3829 40.4831 12.2784C40.4641 12.2629 40.4444 12.2476 40.4251 12.2323C40.3793 12.1958 40.3332 12.1593 40.2862 12.1231C40.2618 12.1043 40.2368 12.0855 40.212 12.0669C40.1687 12.0342 40.1248 12.0015 40.0804 11.969C40.0536 11.9493 40.0265 11.9298 39.9993 11.9103C39.955 11.8785 39.9101 11.8469 39.8647 11.8153C39.837 11.7962 39.8096 11.777 39.7815 11.7579C39.7337 11.7253 39.6853 11.693 39.6364 11.6607C39.61 11.6432 39.5838 11.6256 39.557 11.6082C39.5 11.5712 39.4417 11.5344 39.3832 11.4976C39.3639 11.4855 39.345 11.4732 39.3255 11.4613C39.2467 11.4122 39.1664 11.3636 39.0849 11.3155C39.0707 11.307 39.0558 11.2985 39.0414 11.2902C38.9829 11.2558 38.9244 11.2216 38.8647 11.1877C39.1918 11.3263 39.5101 11.4696 39.8189 11.6173C43.4722 13.3657 45.4841 15.5992 45.4841 17.9068C45.4841 20.4066 43.174 22.7757 38.9793 24.5775ZM40.0415 11.1518C36.2924 9.3576 31.1774 8.21883 25.6387 7.94518H25.6385L25.2987 7.92888C25.2879 7.92846 25.277 7.92805 25.2662 7.92764C24.5583 7.89596 23.8458 7.87976 23.1477 7.87976L23.072 7.88017L22.9999 7.87976C16.8911 7.87976 11.144 8.90337 6.81712 10.7619C2.42106 12.6503 0 15.1877 0 17.9066C0 20.6256 2.42106 23.163 6.81712 25.0514C11.144 26.9099 16.8911 27.9335 22.9999 27.9335C29.1089 27.9335 34.8561 26.9099 39.1828 25.0514C43.5789 23.163 46 20.6256 46 17.9066C46 15.3895 43.8839 12.9906 40.0415 11.1518Z" fill="#4945A9"/>
<mask id="mask0_10622_282859" style="mask-type:alpha" maskUnits="userSpaceOnUse" x="0" y="7" width="46" height="21">
<path fill-rule="evenodd" clip-rule="evenodd" d="M37.461 11.0466C40.4872 12.4536 42.1539 14.2393 42.1539 16.0749C42.1539 16.1419 42.1514 16.2087 42.1472 16.2753C42.1457 16.2972 42.1431 16.3191 42.1411 16.341C42.1373 16.3856 42.1333 16.4304 42.1275 16.475C42.1241 16.5011 42.1196 16.527 42.1156 16.553C42.1094 16.5935 42.1028 16.6338 42.095 16.674C42.0896 16.7017 42.0835 16.729 42.0774 16.7566C42.0689 16.7954 42.0597 16.8342 42.0497 16.8729C42.0423 16.9007 42.0348 16.9286 42.0269 16.9564C42.0158 16.9948 42.0039 17.0332 41.9914 17.0715C41.9823 17.0991 41.9734 17.1265 41.9637 17.154C41.9499 17.1932 41.9347 17.2322 41.9195 17.2712C41.9091 17.2974 41.8992 17.3237 41.8882 17.3499C41.8705 17.3919 41.8514 17.4337 41.832 17.4756C41.8215 17.4984 41.8116 17.5214 41.8005 17.5443C41.7733 17.6 41.7443 17.6557 41.7141 17.7112C41.7094 17.7198 41.7052 17.7285 41.7004 17.7372C41.6651 17.801 41.6274 17.8645 41.5881 17.9279C41.5752 17.9486 41.5611 17.9691 41.5478 17.9898C41.5202 18.0327 41.4924 18.0755 41.4629 18.1182C41.4458 18.1429 41.4277 18.1675 41.41 18.1921C41.3824 18.2307 41.3543 18.2692 41.3251 18.3076C41.3056 18.3334 41.2853 18.3591 41.2648 18.3848C41.2355 18.422 41.2057 18.459 41.175 18.4959C41.1534 18.5217 41.1315 18.5475 41.1092 18.5733C41.0776 18.6102 41.0449 18.647 41.0117 18.6837C40.9889 18.7089 40.966 18.7342 40.9425 18.7592C40.9073 18.7968 40.8711 18.8344 40.8343 18.8717C40.8111 18.8953 40.7882 18.9192 40.7644 18.9427C40.7235 18.9832 40.6812 19.0235 40.6385 19.0636C40.6172 19.0839 40.5966 19.1041 40.5747 19.1241C40.5178 19.1767 40.459 19.2289 40.3991 19.2809C40.3912 19.2878 40.3838 19.2947 40.376 19.3014C40.3782 19.2981 40.3801 19.2949 40.3824 19.2915C40.4243 19.2297 40.4641 19.1674 40.5015 19.105C40.5089 19.0924 40.5156 19.0797 40.5228 19.0671C40.5519 19.017 40.5797 18.9669 40.6057 18.9166C40.6162 18.896 40.6262 18.8754 40.6363 18.8548C40.658 18.8105 40.6786 18.7661 40.6979 18.7216C40.7069 18.7011 40.7161 18.6805 40.7245 18.66C40.7461 18.6073 40.7658 18.5545 40.7842 18.5014C40.788 18.4903 40.7926 18.4792 40.7963 18.4681C40.8174 18.4043 40.836 18.3402 40.8523 18.2759C40.8568 18.2582 40.8603 18.2404 40.8645 18.2227C40.8756 18.1752 40.8855 18.1277 40.8941 18.0802C40.8981 18.058 40.9015 18.0359 40.9049 18.0138C40.9118 17.9679 40.9174 17.922 40.9221 17.8759C40.9241 17.8555 40.9265 17.8354 40.9279 17.8152C40.9329 17.7498 40.9361 17.6842 40.9361 17.6185C40.9361 15.794 39.0367 14.1021 35.5881 12.8548C32.2218 11.6373 27.7511 10.9668 23 10.9668C18.249 10.9668 13.7783 11.6373 10.412 12.8548C6.9633 14.1021 5.06405 15.794 5.06405 17.6185C5.06405 17.6862 5.06756 17.7536 5.07282 17.8209C5.07385 17.8332 5.07468 17.8455 5.07571 17.8577C5.0818 17.9224 5.09026 17.9871 5.10109 18.0515C5.10326 18.064 5.10563 18.0764 5.1079 18.0888C5.12018 18.1555 5.13411 18.2219 5.15155 18.2882C5.15196 18.2897 5.15248 18.2913 5.15289 18.2928C5.17012 18.3579 5.19056 18.4229 5.21274 18.4877C5.21697 18.4999 5.22089 18.5123 5.22523 18.5245C5.2439 18.577 5.26382 18.6293 5.2859 18.6815C5.27599 18.6708 5.2666 18.6599 5.2569 18.6491C5.2244 18.6127 5.1921 18.5764 5.16104 18.5398C5.14608 18.5223 5.13174 18.5048 5.11719 18.4872C5.09016 18.4548 5.06353 18.4223 5.03753 18.3898C5.02226 18.3706 5.0073 18.3512 4.99244 18.3319C4.9684 18.3009 4.94487 18.2697 4.92175 18.2386C4.907 18.2184 4.89224 18.1983 4.8778 18.1781C4.85592 18.1473 4.83446 18.1167 4.81341 18.0858C4.79958 18.0654 4.78576 18.0451 4.77234 18.0247C4.7516 17.9934 4.73169 17.962 4.71208 17.9305C4.6997 17.9107 4.68711 17.8911 4.67524 17.8713C4.65502 17.838 4.63593 17.8047 4.61694 17.7713C4.60673 17.7533 4.5961 17.7353 4.58609 17.7172C4.56421 17.6773 4.54358 17.6373 4.52325 17.5972C4.51737 17.5858 4.51097 17.5743 4.50529 17.5627C4.4797 17.5111 4.45556 17.4593 4.43255 17.4075C4.42687 17.3946 4.42192 17.3816 4.41645 17.3686C4.39973 17.3298 4.38333 17.2908 4.36826 17.2519C4.36083 17.2325 4.35413 17.2133 4.34701 17.194C4.33483 17.1611 4.32286 17.1282 4.31182 17.095C4.3048 17.074 4.2982 17.0528 4.2917 17.0318C4.28179 17.0003 4.27209 16.969 4.26322 16.9376C4.25713 16.9157 4.25135 16.8937 4.24568 16.8717C4.23753 16.8409 4.22999 16.8099 4.22287 16.779C4.21771 16.7569 4.21286 16.7347 4.20822 16.7125C4.20182 16.6814 4.19594 16.6502 4.19037 16.6189C4.18655 16.5971 4.18263 16.5752 4.17923 16.5533C4.17417 16.5211 4.17014 16.4887 4.16612 16.4564C4.16354 16.4357 4.16065 16.4148 4.15848 16.3941C4.15487 16.3586 4.15219 16.3232 4.14982 16.2876C4.14858 16.27 4.14682 16.2522 4.146 16.2346C4.14321 16.1815 4.14167 16.1283 4.14167 16.0749C4.14167 14.0715 6.08013 12.1665 9.59992 10.7111C10.2733 10.4327 10.9886 10.1775 11.74 9.9468C12.3479 9.75993 12.9795 9.58926 13.6316 9.43489C16.4729 8.76211 19.7046 8.40127 23.0727 8.39601C23.2568 8.39611 23.4414 8.39735 23.6258 8.39962C24.1796 8.40602 24.7327 8.42098 25.2764 8.4443L25.6125 8.4604C30.1865 8.70247 34.3944 9.62093 37.461 11.0466ZM17.5701 23.4097C17.5578 23.4081 17.5455 23.4063 17.5332 23.4048C17.369 23.3839 17.2053 23.3623 17.0426 23.3397C17.0015 23.3339 16.9609 23.3276 16.9199 23.3217C16.7864 23.3028 16.6529 23.2837 16.5205 23.2635C16.4659 23.2552 16.4121 23.2462 16.3577 23.2376C16.2396 23.2191 16.121 23.2006 16.0038 23.1812C15.9433 23.1711 15.8837 23.1604 15.8234 23.15C15.7133 23.1311 15.6029 23.1126 15.4936 23.0929C15.4058 23.0771 15.319 23.0603 15.2316 23.0439C15.1513 23.0288 15.0704 23.0143 14.9906 22.9987C14.8921 22.9796 14.7948 22.9594 14.697 22.9396C14.6293 22.9258 14.5608 22.9126 14.4935 22.8985C14.3911 22.8771 14.2899 22.8547 14.1885 22.8325C14.127 22.8191 14.065 22.8062 14.0039 22.7925C13.8936 22.7679 13.7849 22.7421 13.6758 22.7166C13.6246 22.7046 13.5728 22.693 13.522 22.6809C13.4151 22.6553 13.3096 22.6286 13.2039 22.6021C13.1518 22.5891 13.0991 22.5765 13.0474 22.5633C12.9405 22.5361 12.8353 22.5077 12.7297 22.4795C12.6805 22.4664 12.6304 22.4537 12.5814 22.4403C12.4663 22.409 12.353 22.3767 12.2395 22.3443C12.2012 22.3334 12.1623 22.3229 12.1242 22.3119C12.0109 22.279 11.8993 22.2451 11.7876 22.2113C11.7504 22.2 11.7125 22.1892 11.6753 22.1778C11.5716 22.1458 11.4696 22.1128 11.3672 22.08C11.3236 22.066 11.2791 22.0525 11.2357 22.0383C11.1331 22.0047 11.0323 21.9701 10.9313 21.9357C10.8898 21.9216 10.8474 21.9079 10.8061 21.8934C10.708 21.8595 10.6119 21.8245 10.5153 21.7896C10.4724 21.7742 10.4285 21.759 10.3859 21.7434C10.2964 21.7105 10.2086 21.6766 10.1205 21.6428C10.0725 21.6245 10.0236 21.6067 9.97606 21.5881C9.89093 21.5549 9.80797 21.5208 9.72429 21.487C9.67538 21.4672 9.62543 21.4478 9.57694 21.4278C9.5012 21.3964 9.42742 21.3642 9.35302 21.3323C9.29823 21.3088 9.24241 21.2859 9.18844 21.262C9.12322 21.2336 9.06007 21.2042 8.99589 21.1751C8.93429 21.1473 8.87176 21.1197 8.81129 21.0916C8.75248 21.0642 8.69562 21.0362 8.63784 21.0084C8.57386 20.9777 8.50896 20.9473 8.44601 20.9162C8.39277 20.89 8.34138 20.8628 8.28896 20.8362C8.22323 20.8029 8.15699 20.7698 8.0925 20.736C8.04709 20.7122 8.00355 20.6876 7.95887 20.6635C7.89108 20.627 7.82266 20.5907 7.75631 20.5538C7.7559 20.5535 7.75549 20.5533 7.75508 20.5529C7.71535 20.5277 7.678 20.5021 7.6393 20.4766C7.59225 20.4456 7.54416 20.4148 7.49876 20.3835C7.45718 20.3551 7.41838 20.3263 7.37824 20.2977C7.33727 20.2685 7.29517 20.2395 7.25555 20.2102C7.21314 20.1786 7.17331 20.1466 7.13235 20.1149C7.09767 20.088 7.06166 20.0613 7.02813 20.0343C6.98644 20.0005 6.94733 19.9664 6.90719 19.9325C6.87727 19.9071 6.846 19.8819 6.8169 19.8564C6.77584 19.8202 6.73766 19.7838 6.69845 19.7473C6.67317 19.7237 6.64634 19.7003 6.62188 19.6766C6.58319 19.6392 6.54738 19.6016 6.51085 19.5639C6.48846 19.5409 6.46452 19.5181 6.44296 19.495C6.40602 19.4556 6.37217 19.4157 6.3376 19.3762C6.31893 19.3547 6.2987 19.3334 6.28064 19.3119C6.24608 19.2706 6.2146 19.2292 6.18251 19.1878C6.16704 19.1676 6.14991 19.1475 6.13484 19.1274C6.10275 19.0841 6.07365 19.0405 6.04424 18.997C6.03176 18.9784 6.01783 18.9601 6.00576 18.9416C5.978 18.8986 5.95334 18.8554 5.92816 18.8123C5.91691 18.793 5.90422 18.7738 5.89349 18.7545C5.86872 18.7097 5.84705 18.6648 5.82518 18.62C5.81651 18.6022 5.8063 18.5845 5.79814 18.5667C5.77709 18.521 5.75924 18.4752 5.74129 18.4295C5.73448 18.4123 5.72622 18.3952 5.71993 18.378C5.70404 18.3352 5.69155 18.2923 5.67834 18.2495C5.67226 18.2291 5.66431 18.209 5.65874 18.1886C5.64718 18.1466 5.63872 18.1044 5.62974 18.0624C5.6251 18.0412 5.61891 18.0201 5.61499 17.9989C5.60673 17.9542 5.60178 17.9097 5.59641 17.8649C5.59425 17.8464 5.59043 17.8276 5.58857 17.8089C5.58269 17.7456 5.5798 17.6822 5.5798 17.6187C5.5798 16.0507 7.40507 14.4913 10.5873 13.3403C13.8989 12.1425 18.3071 11.483 22.9998 11.483C26.3361 11.483 29.5287 11.8163 32.2855 12.4394C32.9215 12.5833 33.5346 12.7426 34.1208 12.9166C34.3441 12.983 34.5634 13.0515 34.7789 13.122C34.9941 13.1927 35.2055 13.2654 35.4123 13.3403C38.5947 14.4913 40.42 16.0507 40.42 17.6187C40.42 19.1821 38.604 20.7382 35.4379 21.8879C35.0261 22.0375 34.5973 22.1786 34.1529 22.3112C33.6041 22.475 33.0306 22.6249 32.4375 22.7621C32.3141 22.7907 32.189 22.8181 32.0637 22.8455C31.8963 22.8821 31.728 22.9181 31.5575 22.9525C28.9954 23.4707 26.0974 23.7495 23.0787 23.7543C21.1943 23.7516 19.3392 23.6328 17.5701 23.4097ZM38.9793 24.5775C34.7154 26.4092 29.0405 27.4178 23 27.4178C16.9597 27.4178 11.2848 26.4092 7.02084 24.5775C2.8261 22.7757 0.515965 20.4066 0.515965 17.9068C0.515965 15.4071 2.8261 13.0381 7.02084 11.2362C7.44246 11.0551 7.87749 10.8821 8.32574 10.7174C8.27662 10.7412 8.22874 10.7655 8.18024 10.7896C8.14165 10.8088 8.10244 10.828 8.06436 10.8473C7.99162 10.8842 7.92032 10.9215 7.84912 10.9587C7.82456 10.9717 7.79917 10.9845 7.77472 10.9975C7.68092 11.0475 7.58898 11.0977 7.49828 11.1484C7.46568 11.1666 7.4342 11.185 7.40211 11.2033C7.3435 11.2366 7.28489 11.27 7.22763 11.3036C7.18996 11.3258 7.15323 11.3482 7.11618 11.3704C7.06583 11.4006 7.01547 11.4308 6.96625 11.4613C6.92777 11.485 6.89 11.509 6.85213 11.5329C6.80559 11.5623 6.75926 11.5918 6.71365 11.6214C6.67599 11.6461 6.63874 11.6707 6.6017 11.6954C6.55733 11.725 6.51337 11.7546 6.47003 11.7843C6.43371 11.8093 6.3977 11.8343 6.36199 11.8594C6.31917 11.8895 6.27697 11.9197 6.23528 11.9501C6.20061 11.9751 6.16594 12.0001 6.13209 12.0254C6.09051 12.0562 6.04985 12.0874 6.0093 12.1185C5.9767 12.1434 5.94388 12.1683 5.912 12.1934C5.87031 12.2263 5.82966 12.2593 5.7891 12.2923C5.76 12.3159 5.7306 12.3393 5.70222 12.3629C5.65362 12.4034 5.60646 12.4442 5.55951 12.4851C5.54053 12.5016 5.52082 12.518 5.50204 12.5346C5.43837 12.5908 5.37636 12.6476 5.31589 12.7045C5.29185 12.727 5.26894 12.75 5.24552 12.7727C5.20847 12.8084 5.17122 12.8442 5.13552 12.8801C5.10983 12.9058 5.08527 12.9317 5.0605 12.9574C5.02821 12.9907 4.99601 13.024 4.96475 13.0576C4.93977 13.0845 4.91563 13.1115 4.89117 13.1386C4.86156 13.1713 4.83236 13.2041 4.80378 13.2371C4.77994 13.2645 4.75683 13.2922 4.73371 13.3196C4.70606 13.3527 4.67902 13.3857 4.6524 13.4188C4.63032 13.4465 4.60844 13.474 4.58698 13.5018C4.56098 13.5354 4.5357 13.5691 4.51073 13.6029C4.4905 13.6303 4.47007 13.6578 4.45046 13.6853C4.4257 13.7202 4.40186 13.7553 4.37813 13.7904C4.36018 13.817 4.34181 13.8434 4.32447 13.8699C4.29971 13.9081 4.27629 13.9463 4.25286 13.9845C4.23811 14.0083 4.22284 14.0323 4.2086 14.0562C4.17836 14.1074 4.14978 14.1587 4.12182 14.2101C4.11573 14.2215 4.10902 14.2326 4.10304 14.2439C4.06991 14.306 4.03896 14.3682 4.00924 14.4308C3.99861 14.453 3.98912 14.4756 3.97911 14.4979C3.96033 14.5391 3.94176 14.5801 3.92463 14.6213C3.91379 14.6475 3.90389 14.6735 3.89357 14.6997C3.87871 14.7376 3.86395 14.7755 3.85023 14.8135C3.84053 14.8408 3.83145 14.8682 3.82227 14.8956C3.80978 14.9328 3.79771 14.9701 3.78636 15.0075C3.7779 15.0351 3.77005 15.063 3.76242 15.0907C3.75189 15.1282 3.7423 15.1654 3.73301 15.2029C3.7261 15.2308 3.7196 15.2585 3.7134 15.2864C3.70494 15.3244 3.69741 15.3624 3.69029 15.4006C3.68503 15.428 3.67977 15.4553 3.67523 15.4825C3.66872 15.5223 3.66326 15.5621 3.65799 15.6018C3.65459 15.6277 3.65077 15.6535 3.64798 15.6794C3.64313 15.7235 3.63963 15.7676 3.63643 15.8119C3.63488 15.8336 3.63261 15.8552 3.63137 15.8769C3.62776 15.9429 3.6257 16.009 3.6257 16.0752C3.6257 16.1316 3.62693 16.1878 3.62962 16.2441C3.63044 16.261 3.63209 16.2779 3.63313 16.2948C3.6354 16.3339 3.63767 16.3731 3.64128 16.4121C3.64262 16.4263 3.64468 16.4402 3.64623 16.4542C3.65056 16.4962 3.655 16.538 3.66088 16.5798C3.6614 16.5843 3.66243 16.5886 3.66305 16.593C3.67038 16.6443 3.67853 16.6955 3.68812 16.7466C3.68905 16.7516 3.69039 16.7566 3.69122 16.7617C3.70092 16.8121 3.71144 16.8625 3.7231 16.9128C3.72341 16.9138 3.72383 16.9151 3.72414 16.9162C3.73683 16.9703 3.75076 17.0242 3.76582 17.078C3.76727 17.0827 3.76882 17.0873 3.77005 17.0919C3.7846 17.1422 3.79967 17.1925 3.81628 17.2425C3.81783 17.2471 3.81969 17.2518 3.82123 17.2564C4.03927 17.908 4.43819 18.5401 5.01097 19.143C5.01489 19.147 5.01902 19.1509 5.02284 19.1549C5.06711 19.2014 5.1123 19.2478 5.15863 19.2939C5.16627 19.3014 5.17432 19.3087 5.18185 19.3162C5.22519 19.3589 5.26894 19.4016 5.31403 19.4439C5.32064 19.4501 5.32765 19.4561 5.33426 19.4624C5.38079 19.5059 5.42795 19.5491 5.47624 19.5923C5.48656 19.6014 5.4974 19.6105 5.50792 19.6197C5.55322 19.6597 5.59883 19.6996 5.64578 19.7393C5.66022 19.7514 5.67518 19.7635 5.68973 19.7756C5.73359 19.8121 5.77744 19.8488 5.82274 19.8851C5.83997 19.899 5.85793 19.9127 5.87547 19.9266C5.91881 19.961 5.96194 19.9953 6.00652 20.0295C6.02808 20.0459 6.05047 20.0622 6.07225 20.0785C6.11373 20.1098 6.155 20.1412 6.19762 20.1724C6.22341 20.1911 6.25024 20.2098 6.27635 20.2285C6.31608 20.257 6.35539 20.2855 6.39584 20.3137C6.42669 20.3353 6.45878 20.3567 6.49015 20.378C6.52709 20.4032 6.56352 20.4286 6.60108 20.4535C6.63657 20.4773 6.67341 20.5007 6.70942 20.5242C6.74409 20.5468 6.77825 20.5695 6.81343 20.592C6.85461 20.6181 6.89671 20.644 6.93839 20.6699C6.96997 20.6895 7.00092 20.7092 7.03281 20.7286C7.07769 20.7561 7.12382 20.7831 7.16953 20.8104C7.19956 20.8282 7.22907 20.8463 7.25951 20.8641C7.30986 20.8934 7.36135 20.9225 7.41264 20.9517C7.43885 20.9666 7.46433 20.9816 7.49075 20.9964C7.54441 21.0306 7.60095 21.0638 7.65626 21.0974C7.70228 21.1255 7.74676 21.1539 7.79381 21.1816C7.84509 21.2118 7.89885 21.2412 7.95138 21.271C8.00617 21.3022 8.05993 21.3336 8.11616 21.3644C8.16415 21.3907 8.21429 21.4162 8.26331 21.4421C8.32656 21.4756 8.38889 21.5096 8.45379 21.5426C8.49733 21.5647 8.54274 21.5862 8.587 21.6082C8.65975 21.6442 8.73188 21.6805 8.80648 21.7159C8.84373 21.7337 8.88274 21.7508 8.9205 21.7684C9.00419 21.8073 9.08735 21.8463 9.17331 21.8844C9.20746 21.8996 9.24306 21.9141 9.27753 21.9291C9.36916 21.969 9.46058 22.0089 9.55458 22.0479C9.58255 22.0596 9.61185 22.0708 9.64023 22.0823C9.74218 22.1241 9.84443 22.1658 9.94927 22.2064C9.97115 22.2149 9.99405 22.2231 10.016 22.2316C10.1285 22.2749 10.2416 22.3178 10.3572 22.3598C10.3722 22.3653 10.3879 22.3704 10.403 22.3759C10.5266 22.4206 10.6514 22.4648 10.7782 22.508C10.7801 22.5087 10.7821 22.5093 10.7842 22.5101C13.2008 23.3327 16.2112 23.9009 19.4698 24.1415C19.4766 24.1421 19.4835 24.1425 19.4904 24.143C19.6753 24.1566 19.8609 24.1692 20.0473 24.1805C20.0934 24.1834 20.1401 24.1856 20.1862 24.1882C20.334 24.1968 20.4816 24.2055 20.6303 24.2128C20.6688 24.2146 20.7077 24.216 20.7463 24.2178C20.9027 24.2251 21.0595 24.2321 21.2168 24.238C21.3299 24.2421 21.4437 24.245 21.5574 24.2483C21.641 24.2509 21.7242 24.254 21.808 24.2561C21.9642 24.2599 22.1211 24.2624 22.278 24.2647C22.3196 24.2654 22.3607 24.2664 22.4022 24.267C22.6011 24.2695 22.8003 24.2706 23 24.2706L23.0787 24.2703L23.1477 24.2706C28.3264 24.2706 33.1988 23.4381 36.8678 21.9264C40.6094 20.3848 42.6698 18.3068 42.6698 16.0752C42.6698 16.0151 42.668 15.955 42.6649 15.895C42.664 15.8756 42.6622 15.8561 42.6609 15.8366C42.658 15.796 42.655 15.7555 42.651 15.7149C42.6485 15.6921 42.6457 15.6693 42.643 15.6464C42.6384 15.6092 42.6335 15.572 42.6278 15.5348C42.6242 15.5109 42.6202 15.4871 42.616 15.4635C42.6096 15.4268 42.6027 15.3904 42.5952 15.3539C42.5904 15.3305 42.5856 15.3071 42.5803 15.2838C42.5718 15.2457 42.5623 15.2079 42.5526 15.17C42.547 15.1485 42.5417 15.1271 42.5359 15.1056C42.5238 15.0622 42.5106 15.0187 42.4969 14.9754C42.492 14.9599 42.4877 14.9443 42.4825 14.9288C42.4632 14.8698 42.4423 14.8109 42.42 14.7521C42.4162 14.7423 42.4119 14.7326 42.4081 14.7228C42.3891 14.6741 42.3693 14.6256 42.3484 14.5771C42.3399 14.5576 42.3307 14.5382 42.3219 14.5187C42.3043 14.4799 42.2867 14.4412 42.2678 14.4025C42.2572 14.3807 42.2461 14.3589 42.2351 14.3372C42.2166 14.3006 42.1976 14.2643 42.178 14.2279C42.166 14.2057 42.1538 14.1835 42.1413 14.1614C42.1209 14.1251 42.0998 14.0888 42.0782 14.0527C42.0655 14.0312 42.0528 14.0099 42.0397 13.9885C42.0161 13.9501 41.9915 13.9119 41.9665 13.8737C41.9543 13.855 41.9426 13.8363 41.9302 13.8177C41.8974 13.769 41.8636 13.7206 41.8289 13.6722C41.8232 13.6644 41.8179 13.6564 41.8122 13.6485C41.7709 13.5918 41.7281 13.5352 41.6841 13.479C41.6734 13.4653 41.6622 13.4519 41.6513 13.4383C41.6177 13.3962 41.5837 13.354 41.5484 13.3121C41.5323 13.293 41.5156 13.274 41.4992 13.2548C41.468 13.2186 41.4363 13.1823 41.4039 13.1463C41.3853 13.1257 41.3665 13.1049 41.3475 13.0845C41.3154 13.0496 41.2828 13.0149 41.2496 12.9803C41.2299 12.9598 41.2102 12.9394 41.1902 12.919C41.1557 12.8839 41.1205 12.8488 41.0849 12.8139C41.0651 12.7945 41.0455 12.7752 41.0254 12.7558C40.9856 12.7177 40.9448 12.6797 40.9035 12.6418C40.8867 12.6263 40.8704 12.6108 40.8534 12.5955C40.7354 12.4887 40.612 12.3829 40.4831 12.2784C40.4641 12.2629 40.4444 12.2476 40.4251 12.2323C40.3793 12.1958 40.3332 12.1593 40.2862 12.1231C40.2618 12.1043 40.2368 12.0855 40.212 12.0669C40.1687 12.0342 40.1248 12.0015 40.0804 11.969C40.0536 11.9493 40.0265 11.9298 39.9993 11.9103C39.955 11.8785 39.9101 11.8469 39.8647 11.8153C39.837 11.7962 39.8096 11.777 39.7815 11.7579C39.7337 11.7253 39.6853 11.693 39.6364 11.6607C39.61 11.6432 39.5838 11.6256 39.557 11.6082C39.5 11.5712 39.4417 11.5344 39.3832 11.4976C39.3639 11.4855 39.345 11.4732 39.3255 11.4613C39.2467 11.4122 39.1664 11.3636 39.0849 11.3155C39.0707 11.307 39.0558 11.2985 39.0414 11.2902C38.9829 11.2558 38.9244 11.2216 38.8647 11.1877C39.1918 11.3263 39.5101 11.4696 39.8189 11.6173C43.4722 13.3657 45.4841 15.5992 45.4841 17.9068C45.4841 20.4066 43.174 22.7757 38.9793 24.5775ZM40.0415 11.1518C36.2924 9.3576 31.1774 8.21883 25.6387 7.94518L25.2987 7.92888C25.2879 7.92846 25.277 7.92805 25.2662 7.92764C24.5583 7.89596 23.8458 7.87976 23.1477 7.87976L23.072 7.88017L22.9999 7.87976C16.8911 7.87976 11.144 8.90337 6.81712 10.7619C2.42106 12.6503 0 15.1877 0 17.9066C0 20.6256 2.42106 23.163 6.81712 25.0514C11.144 26.9099 16.8911 27.9335 22.9999 27.9335C29.1089 27.9335 34.8561 26.9099 39.1828 25.0514C43.5789 23.163 46 20.6256 46 17.9066C46 15.3895 43.8839 12.9906 40.0415 11.1518Z" fill="white"/>
</mask>
<g mask="url(#mask0_10622_282859)">
</g>
<path fill-rule="evenodd" clip-rule="evenodd" d="M37.4609 11.0465C40.4872 12.4536 42.1538 14.2392 42.1538 16.0749C42.1538 16.1419 42.1514 16.2087 42.1471 16.2753C42.1457 16.2972 42.143 16.3191 42.141 16.3409C42.1372 16.3856 42.1332 16.4304 42.1274 16.475C42.124 16.5011 42.1196 16.527 42.1155 16.553C42.1094 16.5934 42.1028 16.6338 42.0949 16.674C42.0895 16.7017 42.0835 16.729 42.0774 16.7566C42.0688 16.7954 42.0596 16.8342 42.0496 16.8729C42.0423 16.9007 42.0348 16.9286 42.0268 16.9563C42.0158 16.9948 42.0038 17.0332 41.9913 17.0715C41.9822 17.0991 41.9734 17.1265 41.9637 17.1539C41.9498 17.1932 41.9347 17.2322 41.9194 17.2712C41.9091 17.2974 41.8992 17.3237 41.8881 17.3499C41.8705 17.3919 41.8513 17.4337 41.8319 17.4756C41.8215 17.4984 41.8116 17.5214 41.8004 17.5443C41.7733 17.6 41.7443 17.6556 41.714 17.7112C41.7093 17.7198 41.7052 17.7285 41.7003 17.7372C41.665 17.801 41.6274 17.8645 41.5881 17.9278C41.5752 17.9486 41.561 17.9691 41.5477 17.9898C41.5202 18.0327 41.4923 18.0755 41.4628 18.1182C41.4458 18.1429 41.4276 18.1674 41.41 18.1921C41.3823 18.2307 41.3542 18.2692 41.325 18.3076C41.3055 18.3334 41.2852 18.3591 41.2648 18.3848C41.2355 18.422 41.2056 18.4589 41.1749 18.4959C41.1533 18.5217 41.1315 18.5475 41.1092 18.5733C41.0775 18.6102 41.0449 18.647 41.0117 18.6837C40.9889 18.7089 40.9659 18.7341 40.9424 18.7592C40.9072 18.7968 40.871 18.8343 40.8343 18.8717C40.8111 18.8953 40.7882 18.9192 40.7643 18.9427C40.7235 18.9832 40.6812 19.0235 40.6384 19.0636C40.6172 19.0838 40.5965 19.1041 40.5747 19.1241C40.5177 19.1767 40.4589 19.2289 40.399 19.2809C40.3911 19.2877 40.3838 19.2947 40.3759 19.3014C40.3781 19.2981 40.3801 19.2949 40.3823 19.2915C40.4242 19.2296 40.464 19.1674 40.5014 19.105C40.5088 19.0924 40.5155 19.0797 40.5228 19.0671C40.5519 19.017 40.5796 18.9669 40.6056 18.9166C40.6161 18.8959 40.6262 18.8754 40.6363 18.8548C40.6579 18.8105 40.6786 18.7661 40.6979 18.7216C40.7068 18.7011 40.716 18.6805 40.7244 18.66C40.7461 18.6073 40.7658 18.5545 40.7841 18.5014C40.788 18.4903 40.7925 18.4792 40.7962 18.4681C40.8174 18.4043 40.8359 18.3402 40.8522 18.2759C40.8568 18.2581 40.8603 18.2404 40.8644 18.2226C40.8756 18.1752 40.8855 18.1277 40.894 18.0801C40.8981 18.058 40.9015 18.0359 40.9049 18.0138C40.9118 17.9679 40.9173 17.922 40.922 17.8758C40.9241 17.8555 40.9264 17.8354 40.9279 17.8152C40.9328 17.7497 40.936 17.6842 40.936 17.6185C40.936 15.794 39.0367 14.1021 35.5881 12.8548C32.2217 11.6373 27.7511 10.9668 23 10.9668C18.2489 10.9668 13.7783 11.6373 10.4119 12.8548C6.96323 14.1021 5.06399 15.794 5.06399 17.6185C5.06399 17.6862 5.06749 17.7536 5.07276 17.8208C5.07379 17.8332 5.07461 17.8455 5.07565 17.8577C5.08173 17.9224 5.09019 17.9871 5.10103 18.0515C5.1032 18.0639 5.10557 18.0764 5.10784 18.0888C5.12012 18.1555 5.13405 18.2219 5.15149 18.2882C5.1519 18.2897 5.15242 18.2913 5.15283 18.2928C5.17006 18.3579 5.19049 18.4229 5.21268 18.4877C5.21691 18.4999 5.22083 18.5123 5.22516 18.5245C5.24384 18.577 5.26375 18.6293 5.28584 18.6815C5.27593 18.6708 5.26654 18.6599 5.25684 18.6491C5.22434 18.6127 5.19204 18.5764 5.16098 18.5397C5.14602 18.5223 5.13168 18.5048 5.11713 18.4872C5.09009 18.4548 5.06347 18.4223 5.03747 18.3898C5.02219 18.3706 5.00723 18.3512 4.99237 18.3319C4.96833 18.3009 4.9448 18.2697 4.92169 18.2385C4.90694 18.2184 4.89218 18.1983 4.87773 18.1781C4.85586 18.1473 4.8344 18.1167 4.81335 18.0858C4.79952 18.0654 4.78569 18.0451 4.77228 18.0247C4.75154 17.9934 4.73162 17.962 4.71202 17.9305C4.69963 17.9107 4.68704 17.8911 4.67518 17.8713C4.65495 17.838 4.63586 17.8046 4.61688 17.7713C4.60666 17.7533 4.59603 17.7353 4.58603 17.7171C4.56415 17.6773 4.54351 17.6373 4.52318 17.5972C4.5173 17.5858 4.51091 17.5743 4.50523 17.5627C4.47964 17.5111 4.45549 17.4593 4.43248 17.4075C4.42681 17.3946 4.42186 17.3816 4.41639 17.3686C4.39967 17.3298 4.38326 17.2908 4.3682 17.2519C4.36077 17.2325 4.35406 17.2133 4.34694 17.194C4.33477 17.1611 4.3228 17.1282 4.31176 17.095C4.30474 17.074 4.29814 17.0528 4.29163 17.0318C4.28173 17.0003 4.27203 16.969 4.26316 16.9376C4.25707 16.9157 4.25129 16.8937 4.24561 16.8717C4.23746 16.8409 4.22993 16.8099 4.22281 16.779C4.21765 16.7569 4.2128 16.7347 4.20816 16.7125C4.20176 16.6814 4.19588 16.6502 4.19031 16.6189C4.18649 16.5971 4.18257 16.5752 4.17916 16.5533C4.17411 16.5211 4.17008 16.4887 4.16606 16.4564C4.16348 16.4357 4.16059 16.4148 4.15842 16.3941C4.15481 16.3586 4.15213 16.3232 4.14975 16.2876C4.14852 16.2699 4.14676 16.2522 4.14594 16.2346C4.14315 16.1815 4.1416 16.1283 4.1416 16.0749C4.1416 14.0715 6.08006 12.1665 9.59985 10.7111C10.2732 10.4327 10.9885 10.1775 11.7399 9.94679C12.3478 9.75991 12.9794 9.58924 13.6316 9.43488C16.4728 8.7621 19.7045 8.40126 23.0726 8.396C23.2568 8.3961 23.4414 8.39734 23.6258 8.39961C24.1796 8.40601 24.7327 8.42097 25.2763 8.44429L25.6124 8.46038C30.1865 8.70246 34.3943 9.62092 37.4609 11.0465" fill="#4945A9"/>
<path fill-rule="evenodd" clip-rule="evenodd" d="M38.9795 24.5776C34.7155 26.4093 29.0407 27.418 23.0001 27.418C16.9598 27.418 11.285 26.4093 7.02099 24.5776C2.82625 22.7758 0.516113 20.4067 0.516113 17.9069C0.516113 15.4073 2.82625 13.0382 7.02099 11.2364C7.44261 11.0553 7.87764 10.8822 8.32588 10.7175C8.27677 10.7414 8.22889 10.7656 8.18039 10.7898C8.1418 10.809 8.10259 10.8281 8.06451 10.8474C7.99176 10.8844 7.92046 10.9216 7.84926 10.9589C7.82471 10.9719 7.79932 10.9847 7.77487 10.9977C7.68107 11.0476 7.58913 11.0979 7.49843 11.1485C7.46582 11.1667 7.43435 11.1852 7.40226 11.2034C7.34365 11.2368 7.28504 11.2701 7.22777 11.3037C7.19011 11.3259 7.15338 11.3483 7.11633 11.3705C7.06598 11.4007 7.01562 11.431 6.9664 11.4614C6.92791 11.4851 6.89015 11.5092 6.85228 11.533C6.80574 11.5624 6.75941 11.5919 6.7138 11.6215C6.67614 11.6462 6.63889 11.6709 6.60184 11.6955C6.55747 11.7251 6.51352 11.7548 6.47018 11.7845C6.43386 11.8094 6.39784 11.8344 6.36214 11.8595C6.31932 11.8896 6.27712 11.9199 6.23543 11.9502C6.20076 11.9753 6.16609 12.0002 6.13224 12.0255C6.09066 12.0564 6.05 12.0875 6.00945 12.1186C5.97684 12.1436 5.94403 12.1684 5.91215 12.1935C5.87046 12.2264 5.8298 12.2594 5.78925 12.2925C5.76015 12.316 5.73074 12.3394 5.70237 12.363C5.65377 12.4035 5.60661 12.4444 5.55966 12.4852C5.54067 12.5017 5.52097 12.5181 5.50219 12.5347C5.43852 12.591 5.3765 12.6477 5.31604 12.7046C5.29199 12.7272 5.26909 12.7501 5.24566 12.7728C5.20862 12.8085 5.17137 12.8443 5.13567 12.8802C5.10997 12.9059 5.08542 12.9318 5.06065 12.9575C5.02835 12.9908 4.99616 13.0242 4.96489 13.0577C4.93992 13.0846 4.91578 13.1117 4.89132 13.1387C4.86171 13.1714 4.83251 13.2042 4.80392 13.2372C4.78009 13.2647 4.75697 13.2923 4.73386 13.3198C4.70621 13.3528 4.67917 13.3858 4.65255 13.419C4.63047 13.4466 4.60859 13.4742 4.58713 13.5019C4.56113 13.5356 4.53584 13.5692 4.51087 13.603C4.49065 13.6305 4.47022 13.6579 4.45061 13.6855C4.42585 13.7204 4.40201 13.7554 4.37828 13.7905C4.36032 13.8171 4.34196 13.8436 4.32462 13.8701C4.29986 13.9083 4.27643 13.9464 4.25301 13.9846C4.23825 14.0085 4.22298 14.0324 4.20874 14.0563C4.17851 14.1075 4.14993 14.1588 4.12196 14.2103C4.11588 14.2216 4.10917 14.2328 4.10318 14.244C4.07006 14.3061 4.0391 14.3684 4.00939 14.4309C3.99876 14.4532 3.98927 14.4758 3.97926 14.4981C3.96048 14.5392 3.9419 14.5802 3.92477 14.6215C3.91394 14.6476 3.90403 14.6736 3.89372 14.6998C3.87886 14.7378 3.8641 14.7756 3.85038 14.8136C3.84068 14.841 3.8316 14.8683 3.82241 14.8958C3.80993 14.9329 3.79786 14.9703 3.7865 15.0076C3.77804 15.0353 3.7702 15.0631 3.76257 15.0909C3.75204 15.1283 3.74244 15.1656 3.73316 15.203C3.72624 15.2309 3.71974 15.2587 3.71355 15.2865C3.70509 15.3245 3.69756 15.3626 3.69044 15.4008C3.68518 15.4281 3.67991 15.4554 3.67537 15.4827C3.66887 15.5224 3.6634 15.5622 3.65814 15.602C3.65474 15.6279 3.65092 15.6537 3.64813 15.6796C3.64328 15.7236 3.63977 15.7678 3.63657 15.8121C3.63503 15.8337 3.63276 15.8554 3.63152 15.8771C3.62791 15.943 3.62584 16.0091 3.62584 16.0754C3.62584 16.1317 3.62708 16.188 3.62976 16.2442C3.63059 16.2611 3.63224 16.278 3.63327 16.295C3.63554 16.3341 3.63781 16.3733 3.64142 16.4123C3.64277 16.4264 3.64483 16.4404 3.64638 16.4544C3.65071 16.4964 3.65515 16.5382 3.66103 16.58C3.66155 16.5844 3.66258 16.5887 3.6632 16.5932C3.67052 16.6445 3.67867 16.6956 3.68827 16.7467C3.6892 16.7518 3.69054 16.7567 3.69137 16.7619C3.70107 16.8122 3.71159 16.8626 3.72325 16.9129C3.72356 16.914 3.72397 16.9152 3.72428 16.9164C3.73697 16.9704 3.75091 17.0244 3.76597 17.0781C3.76741 17.0828 3.76896 17.0874 3.7702 17.0921C3.78475 17.1423 3.79982 17.1927 3.81643 17.2426C3.81798 17.2473 3.81983 17.2519 3.82138 17.2566C4.03941 17.9082 4.43833 18.5402 5.01112 19.1431C5.01504 19.1471 5.01917 19.1511 5.02299 19.1551C5.06725 19.2015 5.11245 19.248 5.15878 19.2941C5.16642 19.3015 5.17447 19.3088 5.182 19.3164C5.22534 19.3591 5.26909 19.4017 5.31418 19.444C5.32078 19.4502 5.3278 19.4563 5.3344 19.4626C5.38094 19.506 5.4281 19.5493 5.47639 19.5924C5.48671 19.6016 5.49754 19.6107 5.50807 19.6198C5.55337 19.6599 5.59897 19.6997 5.64592 19.7394C5.66037 19.7515 5.67533 19.7637 5.68988 19.7758C5.73374 19.8123 5.77759 19.8489 5.82289 19.8852C5.84012 19.8992 5.85808 19.9129 5.87562 19.9267C5.91896 19.9612 5.96209 19.9954 6.00666 20.0296C6.02823 20.046 6.05062 20.0623 6.07239 20.0786C6.11387 20.11 6.15515 20.1413 6.19777 20.1725C6.22356 20.1913 6.25039 20.21 6.2765 20.2286C6.31622 20.2571 6.35554 20.2856 6.39599 20.3139C6.42684 20.3354 6.45893 20.3568 6.4903 20.3782C6.52724 20.4033 6.56366 20.4287 6.60122 20.4537C6.63672 20.4774 6.67356 20.5008 6.70957 20.5244C6.74424 20.547 6.7784 20.5697 6.81358 20.5922C6.85475 20.6183 6.89685 20.6442 6.93854 20.6701C6.97012 20.6897 7.00107 20.7094 7.03296 20.7288C7.07784 20.7562 7.12397 20.7833 7.16968 20.8105C7.19971 20.8284 7.22922 20.8464 7.25966 20.8643C7.31001 20.8936 7.3615 20.9227 7.41279 20.9519C7.439 20.9667 7.46448 20.9817 7.4909 20.9966C7.54455 21.0307 7.6011 21.0639 7.65641 21.0976C7.70243 21.1256 7.7469 21.154 7.79396 21.1818C7.84524 21.2119 7.899 21.2413 7.95152 21.2711C8.00631 21.3023 8.06007 21.3338 8.11631 21.3645C8.16429 21.3908 8.21444 21.4163 8.26345 21.4422C8.32671 21.4758 8.38903 21.5097 8.45394 21.5427C8.49748 21.5648 8.54288 21.5864 8.58715 21.6083C8.6599 21.6444 8.73202 21.6807 8.80663 21.7161C8.84388 21.7338 8.88288 21.7509 8.92065 21.7685C9.00433 21.8074 9.0875 21.8464 9.17346 21.8846C9.20761 21.8997 9.24321 21.9142 9.27767 21.9293C9.3693 21.9692 9.46073 22.009 9.55473 22.048C9.58269 22.0598 9.612 22.0709 9.64037 22.0825C9.74232 22.1243 9.84458 22.166 9.94942 22.2065C9.97129 22.2151 9.9942 22.2232 10.0162 22.2317C10.1287 22.275 10.2417 22.318 10.3573 22.36C10.3724 22.3654 10.3881 22.3706 10.4031 22.3761C10.5267 22.4207 10.6515 22.4649 10.7783 22.5081C10.7803 22.5089 10.7822 22.5095 10.7843 22.5102C13.2009 23.3328 16.2114 23.901 19.4699 24.1417C19.4767 24.1422 19.4836 24.1426 19.4906 24.1431C19.6755 24.1567 19.8611 24.1693 20.0475 24.1807C20.0936 24.1836 20.1402 24.1857 20.1863 24.1883C20.3341 24.197 20.4818 24.2057 20.6305 24.213C20.6689 24.2147 20.7078 24.2162 20.7464 24.2179C20.9029 24.2253 21.0596 24.2323 21.217 24.2382C21.3301 24.2423 21.4439 24.2452 21.5576 24.2485C21.6412 24.2511 21.7243 24.2541 21.8081 24.2562C21.9643 24.26 22.1213 24.2625 22.2781 24.2649C22.3197 24.2655 22.3609 24.2665 22.4024 24.2672C22.6012 24.2696 22.8005 24.2708 23.0001 24.2708L23.0789 24.2705L23.1479 24.2708C28.3265 24.2708 33.199 23.4383 36.868 21.9266C40.6095 20.385 42.6699 18.3069 42.6699 16.0754C42.6699 16.0152 42.6682 15.9552 42.6651 15.8951C42.6642 15.8757 42.6623 15.8562 42.6611 15.8367C42.6582 15.7962 42.6552 15.7556 42.6512 15.7151C42.6487 15.6923 42.6458 15.6694 42.6431 15.6465C42.6386 15.6093 42.6336 15.5721 42.6279 15.5349C42.6243 15.5111 42.6203 15.4872 42.6162 15.4636C42.6098 15.427 42.6029 15.3905 42.5953 15.354C42.5906 15.3307 42.5857 15.3073 42.5805 15.2839C42.5719 15.2459 42.5624 15.208 42.5527 15.1701C42.5472 15.1487 42.5419 15.1272 42.536 15.1057C42.5239 15.0623 42.5107 15.0189 42.497 14.9755C42.4922 14.96 42.4878 14.9445 42.4827 14.929C42.4634 14.87 42.4424 14.811 42.4201 14.7522C42.4163 14.7424 42.4121 14.7327 42.4083 14.7229C42.3893 14.6742 42.3695 14.6257 42.3485 14.5772C42.3401 14.5577 42.3309 14.5383 42.322 14.5188C42.3045 14.48 42.2868 14.4413 42.2679 14.4026C42.2573 14.3809 42.2463 14.3591 42.2352 14.3373C42.2167 14.3008 42.1978 14.2645 42.1782 14.228C42.1662 14.2059 42.1539 14.1837 42.1414 14.1616C42.1211 14.1253 42.0999 14.0889 42.0784 14.0528C42.0657 14.0314 42.053 14.01 42.0399 13.9886C42.0163 13.9503 41.9916 13.9121 41.9666 13.8738C41.9544 13.8551 41.9428 13.8364 41.9303 13.8179C41.8976 13.7692 41.8637 13.7208 41.8291 13.6724C41.8233 13.6645 41.818 13.6566 41.8124 13.6486C41.7711 13.5919 41.7283 13.5353 41.6842 13.4791C41.6736 13.4655 41.6623 13.4521 41.6515 13.4385C41.6179 13.3964 41.5838 13.3542 41.5485 13.3123C41.5324 13.2932 41.5157 13.2742 41.4994 13.255C41.4681 13.2188 41.4365 13.1824 41.4041 13.1464C41.3855 13.1258 41.3666 13.1051 41.3476 13.0846C41.3155 13.0497 41.2829 13.0151 41.2498 12.9804C41.2301 12.96 41.2104 12.9395 41.1904 12.9191C41.1559 12.884 41.1206 12.8489 41.085 12.8141C41.0653 12.7947 41.0457 12.7754 41.0256 12.756C40.9857 12.7178 40.945 12.6798 40.9036 12.642C40.8869 12.6265 40.8706 12.6109 40.8536 12.5956C40.7355 12.4888 40.6121 12.3831 40.4832 12.2785C40.4642 12.2631 40.4445 12.2478 40.4252 12.2324C40.3794 12.196 40.3334 12.1595 40.2863 12.1232C40.262 12.1045 40.2369 12.0857 40.2121 12.067C40.1688 12.0343 40.125 12.0017 40.0806 11.9692C40.0538 11.9495 40.0266 11.93 39.9995 11.9105C39.9551 11.8787 39.9102 11.847 39.8648 11.8154C39.8372 11.7963 39.8097 11.7772 39.7817 11.7581C39.7339 11.7255 39.6855 11.6932 39.6366 11.6609C39.6102 11.6433 39.5839 11.6258 39.5571 11.6083C39.5002 11.5713 39.4419 11.5346 39.3834 11.4977C39.3641 11.4856 39.3452 11.4734 39.3257 11.4614C39.2468 11.4124 39.1666 11.3638 39.085 11.3156C39.0708 11.3071 39.0559 11.2987 39.0415 11.2903C38.9831 11.256 38.9246 11.2217 38.8648 11.1879C39.1919 11.3264 39.5103 11.4698 39.819 11.6174C43.4723 13.3658 45.4842 15.5994 45.4842 17.9069C45.4842 20.4067 43.1741 22.7758 38.9795 24.5776" fill="white"/>
</svg>
