<svg width="572" height="360" viewBox="0 0 572 360" fill="none" xmlns="http://www.w3.org/2000/svg">
<path fill-rule="evenodd" clip-rule="evenodd" d="M474.77 76.8569L475.703 74.2445C464.299 70.3007 448.569 70.2979 436.561 74.2373L437.452 76.8646C448.732 73.1618 464.079 73.1596 474.77 76.8569ZM268.331 365.304H265.517V206.253H268.331V365.304ZM529.736 361.308C529.053 362.248 528.384 363.197 527.73 364.157C526.543 365.898 525.398 367.67 524.31 369.478L515.54 384.044L514.266 386.16H499.998L501.272 384.044L514.248 362.491C516.618 358.557 519.242 354.789 522.084 351.197C522.706 350.41 523.338 349.631 523.982 348.863C530.807 340.709 538.823 333.561 547.759 327.676L548.012 327.509L548.015 327.507L548.018 327.505C548.543 327.159 549.068 326.813 549.6 326.478L553.583 337.09C552.985 337.539 552.395 337.999 551.806 338.46C543.42 345.022 535.984 352.718 529.736 361.308ZM461.059 96.2524C452.186 98.2213 441.781 98.2368 433.195 96.3001C442.068 94.3318 452.472 94.3163 461.059 96.2524ZM449.447 100.496C448.599 100.527 447.751 100.542 446.904 100.542C440.04 100.542 433.252 99.5557 427.545 97.5819L423.669 96.2416L427.567 94.9623C428.317 94.7164 429.082 94.4854 429.86 94.27C429.912 94.2552 429.966 94.2421 430.02 94.229L430.02 94.2288C430.065 94.2179 430.11 94.207 430.154 94.1952C430.837 94.0102 431.527 93.8319 432.227 93.6702C432.284 93.657 432.342 93.6454 432.399 93.6339L432.413 93.6311C432.44 93.6258 432.466 93.6205 432.493 93.6151L432.529 93.6076L432.567 93.5993C433.258 93.4442 433.954 93.2947 434.659 93.1623C434.705 93.1537 434.752 93.1463 434.798 93.1389C434.844 93.1316 434.89 93.1243 434.936 93.1158C435.667 92.9823 436.401 92.8561 437.144 92.747L437.168 92.7437L437.196 92.7402C437.213 92.7382 437.23 92.7361 437.246 92.7337C438.049 92.6174 438.856 92.5127 439.668 92.4241C439.675 92.4233 439.683 92.4227 439.69 92.4222L439.691 92.4221L439.691 92.4221C439.697 92.4216 439.703 92.4212 439.71 92.4206L439.713 92.4202C440.545 92.3299 441.381 92.2541 442.22 92.1937C442.234 92.1926 442.249 92.1919 442.263 92.1912C442.276 92.1906 442.29 92.1901 442.304 92.1893C443.13 92.1311 443.959 92.0851 444.789 92.0558C444.805 92.0553 444.821 92.055 444.837 92.0547L444.839 92.0547L444.84 92.0547C444.856 92.0544 444.872 92.0541 444.888 92.0536C445.712 92.0253 446.538 92.0098 447.362 92.0098L447.382 92.01L447.412 92.0108C447.432 92.0114 447.451 92.012 447.471 92.012C448.292 92.0131 449.111 92.027 449.928 92.0563C449.988 92.0591 450.048 92.0641 450.108 92.0658C450.899 92.0968 451.689 92.1378 452.473 92.1954C452.575 92.2026 452.675 92.2153 452.775 92.223C453.517 92.2801 454.256 92.3449 454.988 92.4263C455.051 92.4332 455.114 92.4415 455.176 92.45L455.231 92.4576C455.3 92.4672 455.369 92.4768 455.439 92.485C456.117 92.5653 456.792 92.6484 457.459 92.7492C457.571 92.766 457.681 92.7858 457.791 92.8056C457.884 92.8223 457.977 92.8389 458.071 92.8539C458.676 92.9519 459.282 93.0499 459.876 93.1645C460.029 93.1942 460.181 93.228 460.332 93.2619C460.435 93.2848 460.538 93.3078 460.641 93.3296L460.863 93.3755L460.864 93.3757C461.321 93.4702 461.778 93.5646 462.225 93.6713C462.412 93.7161 462.594 93.7655 462.777 93.8148C462.9 93.8483 463.024 93.8818 463.149 93.9139C463.259 93.9423 463.369 93.9704 463.479 93.9984L463.479 93.9986C463.821 94.0861 464.164 94.1736 464.498 94.27C464.734 94.3381 464.964 94.4129 465.193 94.4876C465.316 94.5276 465.439 94.5677 465.563 94.6067C465.61 94.6213 465.656 94.6358 465.703 94.6502C465.777 94.6732 465.851 94.6961 465.926 94.7189C466.173 94.7946 466.42 94.8704 466.659 94.9529L471.99 96.3762L471.254 99.0489L466.28 97.7203C466.086 97.7821 465.887 97.8387 465.689 97.8954L465.688 97.8955C465.566 97.9303 465.444 97.9651 465.323 98.0011C465.217 98.0325 465.112 98.0642 465.006 98.0959C464.739 98.1762 464.472 98.2565 464.2 98.3312C463.905 98.4113 463.605 98.4853 463.305 98.5594L463.116 98.6063L462.993 98.6369C462.885 98.6638 462.777 98.6911 462.669 98.7184C462.401 98.7865 462.132 98.8547 461.858 98.9171C461.543 98.9883 461.224 99.053 460.905 99.1176C460.799 99.139 460.694 99.1603 460.589 99.1819C460.522 99.1955 460.456 99.2092 460.39 99.223L460.26 99.2503C459.993 99.3063 459.725 99.3624 459.455 99.4122C459.105 99.4772 458.751 99.5342 458.397 99.5912L458.119 99.636C458.071 99.6439 458.022 99.6519 457.974 99.66L457.882 99.6754L457.757 99.6965L457.756 99.6967C457.505 99.7392 457.254 99.7816 457 99.8182C456.653 99.8691 456.302 99.9119 455.951 99.9548C455.832 99.9693 455.713 99.9839 455.594 99.9987C455.463 100.015 455.332 100.032 455.201 100.049C454.97 100.079 454.74 100.11 454.507 100.135C454.096 100.179 453.682 100.213 453.268 100.248L453.267 100.248L453.001 100.271C452.877 100.281 452.754 100.293 452.63 100.305C452.5 100.317 452.371 100.329 452.241 100.34C452.156 100.347 452.071 100.354 451.985 100.36C451.49 100.396 450.994 100.419 450.497 100.442L450.29 100.452C450.176 100.457 450.062 100.464 449.949 100.471L449.948 100.471L449.855 100.476L449.745 100.482C449.689 100.485 449.634 100.488 449.579 100.491C449.553 100.492 449.527 100.493 449.502 100.494C449.483 100.495 449.465 100.495 449.447 100.496ZM465.659 330.791L445.59 364.125L443.5 367.596L433.597 384.045L432.323 386.16H418.055L419.329 384.045L439.573 350.42L441.663 346.95L455.598 323.804C457.979 319.85 460.612 316.061 463.471 312.451C464.09 311.67 464.724 310.901 465.364 310.137C473.837 300.023 484.135 291.448 495.754 284.927C505.603 279.401 516.254 275.427 527.278 273.113L527.279 273.112L527.279 273.112C527.988 272.963 528.699 272.821 529.411 272.686L532.089 279.822C531.534 279.984 530.982 280.157 530.431 280.33L530.035 280.453C530.035 280.453 530.034 280.454 530.033 280.454L530.032 280.454C522.314 282.86 514.842 286.055 507.768 290.026C496.516 296.341 486.448 304.496 477.975 314.058C477.305 314.813 476.643 315.574 475.994 316.346C472.186 320.879 468.722 325.704 465.659 330.791ZM507.599 333.062C508.219 332.368 508.849 331.685 509.486 331.007C517.488 322.475 526.792 315.15 537.093 309.37C538.134 308.785 539.187 308.223 540.245 307.672C540.247 307.672 540.249 307.671 540.25 307.67L540.256 307.667C540.893 307.336 541.529 307.004 542.172 306.685L538.823 297.765C538.354 297.949 537.89 298.144 537.425 298.338L537.414 298.343L537.403 298.347C537.216 298.426 537.028 298.504 536.84 298.582C536.838 298.583 536.837 298.583 536.836 298.584C532.816 300.249 528.884 302.136 525.079 304.271C515.745 309.51 507.259 316.071 499.89 323.692C499.232 324.372 498.588 325.066 497.949 325.762C493.047 331.101 488.672 336.921 484.923 343.147L460.3 384.045L459.027 386.16H473.295L474.569 384.045L494.985 350.135C498.647 344.052 502.881 338.343 507.599 333.062ZM521.007 344.164C520.372 344.898 519.743 345.639 519.127 346.39C515.654 350.624 512.48 355.103 509.647 359.807L495.055 384.044L493.781 386.161H479.512L480.786 384.044L499.586 352.819C503.024 347.108 506.994 341.743 511.409 336.773C512.028 336.075 512.656 335.388 513.293 334.707C520.952 326.516 529.867 319.486 539.742 313.943C540.528 313.503 541.319 313.075 542.115 312.655L542.117 312.653L542.12 312.652C542.757 312.316 543.396 311.984 544.038 311.659L547.705 321.43C547.204 321.738 546.709 322.057 546.215 322.376L546.208 322.381C546.091 322.457 545.974 322.532 545.856 322.608L545.854 322.609C545.853 322.609 545.852 322.61 545.851 322.61C536.555 328.587 528.184 335.857 521.007 344.164ZM493.248 323.035C493.891 322.321 494.548 321.62 495.209 320.923C503.124 312.568 512.296 305.386 522.43 299.698C526.491 297.419 530.682 295.395 534.975 293.627L534.978 293.625C535.341 293.476 535.704 293.328 536.068 293.182C536.368 293.062 536.668 292.943 536.969 292.825L533.947 284.773C533.372 284.939 532.8 285.116 532.228 285.294L532.22 285.296L531.891 285.398L531.889 285.399C531.889 285.399 531.888 285.399 531.888 285.399C524.442 287.701 517.236 290.773 510.417 294.6C500.355 300.247 491.286 307.437 483.531 315.828C482.847 316.569 482.175 317.321 481.512 318.079C477.326 322.868 473.55 328.012 470.26 333.476L447.301 371.61L445.212 375.081L439.814 384.045L438.541 386.16H450.628H452.809L454.083 384.045L480.322 340.463C484.066 334.245 488.403 328.414 493.248 323.035ZM568.605 377.114L571.63 385.176L572 386.161H561.679C563.363 383.704 565.149 381.322 567.026 379.015C567.546 378.377 568.071 377.741 568.605 377.114ZM375.149 384.045H2.82683C3.11152 369.37 7.90914 355.383 16.7465 343.511C25.8607 331.268 38.4508 322.38 53.1554 317.807L168.776 281.853C186.595 276.312 201.852 265.541 212.897 250.704C223.944 235.867 229.782 218.301 229.782 199.908V199.809C229.782 177.726 226.904 156.135 221.23 135.409C223.414 140.05 225.803 144.504 228.376 148.66C238.715 165.367 251.972 177.295 266.443 177.553H267.406C281.877 177.294 295.134 165.367 305.473 148.661C308.045 144.504 310.435 140.05 312.619 135.409C306.945 156.136 304.067 177.728 304.067 199.809V199.907C304.067 218.301 309.905 235.867 320.95 250.704C331.997 265.541 347.254 276.312 365.072 281.853L392.954 290.524L398.457 345.385L375.149 384.045ZM219.157 176.941C219.157 179.239 217.257 181.109 214.923 181.109C212.587 181.109 210.687 179.239 210.687 176.941C210.687 174.642 212.587 172.773 214.923 172.773C217.257 172.773 219.157 174.642 219.157 176.941ZM203.216 103.103C200.583 91.3941 202.184 81.8622 205.376 81.1278C206.113 93.4222 209.012 107.256 213.737 120.76C213.899 121.224 214.05 121.694 214.209 122.16C210.953 122.146 205.747 114.353 203.216 103.103ZM330.633 103.103C328.101 114.356 322.902 122.16 319.637 122.161C319.797 121.695 319.948 121.225 320.111 120.759C324.836 107.255 327.735 93.4218 328.473 81.1274C331.664 81.8624 333.266 91.3942 330.633 103.103ZM392.015 252.979L391.963 252.467L389.356 250.023C379.909 241.167 374.491 228.722 374.491 215.879C374.491 207.971 373.152 200.175 370.511 192.707L353.8 145.459C352.735 142.449 354.01 139.187 356.674 137.598L379.457 202.012L382.114 201.102L358.82 135.24L358.278 133.708C357.213 130.698 358.487 127.434 361.151 125.845L369.598 149.727L373.91 161.92L379.615 178.046L387.157 199.374L389.814 198.463L382.271 177.135L376.567 161.009L364.511 126.92L363.773 124.837C362.71 121.827 363.983 118.564 366.647 116.974L371.022 129.341L375.681 142.515L389.771 182.355L394.858 196.735L397.515 195.824L392.429 181.445L378.338 141.604L373.679 128.43C373.086 126.756 373.191 124.953 373.976 123.356C374.552 122.183 375.444 121.224 376.552 120.566L379.143 127.893L381.016 133.186L389.289 156.58L395.275 173.502L398.407 182.356L402.558 194.096L405.216 193.185L401.064 181.446L397.968 172.694L395.567 159.233C395.366 158.102 395.145 156.8 395.08 155.654L393.676 155.731L395.08 155.654C394.955 153.453 395.437 152.433 396.335 151.93L396.774 153.445L404.88 181.481L407.986 192.224L415.182 243.74L415.191 243.798L427.552 297.852C425.809 300.278 424.151 302.766 422.607 305.328L400.88 341.365L392.015 252.979ZM381.085 120.244C380.823 121.117 380.568 121.975 380.324 122.811L379.382 120.148L381.085 120.244ZM386.858 130.264C386.07 129.897 385.2 129.769 384.324 129.908C383.858 129.981 383.407 130.131 382.988 130.34L381.944 127.389C382.558 125.17 383.223 122.875 383.971 120.406L387.832 120.623C388.014 120.679 388.544 120.897 388.867 121.604C389.314 122.584 389.587 124.981 386.858 130.264ZM383.639 112.03L383.637 112.034L388.304 107.787C392.469 103.997 396.889 99.9691 401.133 96.0946C402.547 94.803 403.942 93.5287 405.301 92.2854C406.716 90.9905 408.094 89.7295 409.413 88.5193C416.542 81.9831 422.015 76.9156 422.982 75.8883C425.014 73.7234 425.543 70.1301 424.237 67.3444C424.19 67.2436 424.136 67.1378 424.079 67.0298C424.063 66.9999 424.045 66.9689 424.029 66.939C423.983 66.8565 423.935 66.7729 423.883 66.6881C423.863 66.6549 423.843 66.6222 423.822 66.589C423.761 66.4915 423.696 66.3935 423.626 66.2944C423.613 66.2761 423.601 66.2572 423.588 66.239C423.41 65.9903 423.203 65.7367 422.965 65.4852C422.956 65.4741 422.944 65.4642 422.935 65.4531C422.821 65.334 422.699 65.2155 422.57 65.0992C422.562 65.092 422.555 65.0848 422.547 65.0782C422.446 64.9873 422.34 64.8987 422.23 64.8107C422.178 64.7691 422.124 64.7287 422.07 64.6872C422.012 64.6434 421.952 64.5996 421.892 64.5564C421.821 64.5061 421.749 64.4562 421.676 64.4069C421.64 64.3837 421.603 64.3609 421.566 64.3377C421.26 64.1416 420.924 63.9578 420.557 63.7888C420.548 63.785 420.539 63.7816 420.53 63.7772C419.991 63.5324 419.381 63.3247 418.695 63.168L418.688 63.1663C418.584 63.1431 418.485 63.1159 418.378 63.0949C428.147 54.4713 439.771 48.7985 452.18 46.6264C452.406 46.6009 452.64 46.5865 452.869 46.5666C453.144 46.5422 453.416 46.5123 453.695 46.4957C453.837 46.4868 453.983 46.4863 454.127 46.4796C454.502 46.4619 454.877 46.4442 455.26 46.4397C455.31 46.4386 455.362 46.4414 455.413 46.4414C462.726 46.3915 471.187 48.722 479.149 53.0452C487.289 57.4653 493.544 63.2755 495.082 67.8462C495.904 70.2891 495.296 71.9927 493.165 73.2072C491.949 73.9006 490.912 74.5951 490.03 75.2824C489.552 75.6545 489.119 76.0251 488.728 76.3911C485.991 78.9576 485.285 81.3512 485.269 83.1118C485.256 84.6531 485.747 86.1346 486.695 87.4865C487.011 87.9378 487.378 88.3737 487.794 88.7935C488.55 89.5556 489.468 90.2617 490.539 90.8964C492.855 92.2698 494.045 94.7676 493.501 97.1114C492.954 99.4651 490.841 100.98 487.702 101.267C487.231 101.309 486.774 101.364 486.328 101.428C486.202 101.447 486.084 101.471 485.959 101.49C485.644 101.541 485.327 101.592 485.024 101.652C484.884 101.68 484.753 101.714 484.616 101.744C484.338 101.803 484.061 101.863 483.795 101.931C483.642 101.971 483.498 102.015 483.349 102.056C483.111 102.122 482.872 102.187 482.642 102.26C482.465 102.315 482.297 102.376 482.125 102.435C481.939 102.5 481.75 102.561 481.569 102.629C481.35 102.712 481.14 102.799 480.93 102.886C480.812 102.935 480.69 102.982 480.575 103.032C480.294 103.155 480.023 103.283 479.757 103.414C479.725 103.429 479.691 103.445 479.659 103.461C479.365 103.609 479.082 103.763 478.804 103.921C478.657 104.004 478.514 104.088 478.372 104.173C478.288 104.224 478.208 104.275 478.126 104.326C476.037 105.623 474.514 107.131 473.451 108.49C470.973 111.657 470.331 114.672 470.304 114.799L469.651 117.966L472.431 116.247C480.893 111.013 492.168 108.072 494.816 112.221C495.886 113.896 495.209 116.72 492.962 119.97C490.455 123.596 486.355 127.274 481.418 130.326C478.451 132.161 475.311 133.674 472.333 134.702C472.33 134.703 472.327 134.704 472.324 134.705V134.706C472.311 134.71 472.299 134.716 472.286 134.72L472.507 135.341C472.504 135.342 472.503 135.343 472.5 135.343L472.742 136.023L472.969 136.728L472.976 136.726L473.176 137.345C476.679 136.249 479.959 138.182 481.392 140.656C481.442 140.741 481.489 140.826 481.534 140.911C482.888 143.486 482.317 146.312 479.989 148.612C479.989 148.612 479.988 148.613 479.988 148.613C479.986 148.615 479.984 148.617 479.982 148.619C479.98 148.621 479.978 148.623 479.978 148.623C479.841 148.758 479.698 148.891 479.55 149.022C477.167 151.118 475.444 154.346 475.444 157.608C475.444 159.357 475.94 161.116 477.095 162.714C478.758 165.015 481.027 165.869 483.311 165.869C484.595 165.869 485.882 165.596 487.072 165.162C487.308 166.315 487.634 167.459 488.056 168.583L518.057 248.54L518.78 250.466C499.66 250.76 480.822 255.802 464.194 265.122C457.061 269.119 450.415 273.871 444.351 279.247L423.595 179.224C432.491 176.992 463.055 168.787 463.381 168.7L462.641 166.029C462.297 166.121 428.279 175.253 421.649 176.849C420.272 177.11 418.894 177.379 417.52 177.646C414.104 178.31 410.595 178.988 407.242 179.533L399.692 153.423C400.604 152.403 401.401 151.287 402.169 150.194C403.43 148.401 404.622 146.706 406.309 145.414L407.737 144.319L406.307 143.227C405.356 142.502 404.129 140.604 402.831 138.594C400.073 134.326 396.946 129.488 392.597 128.932C391.91 128.844 391.224 128.873 390.542 129.012C392.095 125.289 392.375 122.381 391.37 120.338C390.357 118.276 388.478 117.916 388.268 117.882L383.021 117.58V117.579L378.382 117.319L378.245 116.932C379.642 115.663 381.489 113.985 383.639 112.03ZM397.006 90.3936C400.279 84.7191 403.816 79.4577 407.527 74.743C410.769 75.216 413.772 75.926 416.463 76.857L417.394 74.2446C414.987 73.4116 412.354 72.7465 409.542 72.2591C411.567 69.8373 413.612 67.6164 415.646 65.631C415.76 65.6304 415.875 65.6293 415.987 65.6315C416.174 65.6354 416.36 65.6404 416.539 65.6526C416.724 65.6647 416.902 65.6841 417.078 65.7046C417.254 65.7251 417.429 65.7456 417.595 65.7738C417.758 65.8021 417.913 65.8381 418.067 65.8741C418.23 65.9117 418.394 65.9483 418.548 65.9948C418.691 66.0375 418.823 66.0901 418.958 66.1394C419.106 66.1948 419.257 66.2479 419.395 66.3116C419.522 66.3698 419.637 66.4384 419.756 66.5049C419.883 66.5758 420.015 66.6428 420.133 66.7214C420.25 66.8001 420.353 66.8909 420.461 66.9779C420.562 67.0593 420.669 67.1351 420.761 67.2232C420.878 67.3367 420.978 67.463 421.081 67.5871C421.146 67.6646 421.22 67.7349 421.278 67.8175C421.432 68.0318 421.568 68.2611 421.683 68.5053C421.798 68.7495 421.889 69.0004 421.958 69.2552C422.063 69.6373 422.118 70.0267 422.132 70.4132C422.184 71.8299 421.67 73.2045 420.915 74.0081C420.874 74.053 420.821 74.1072 420.759 74.1698C420.743 74.1853 420.723 74.2058 420.707 74.2224C420.657 74.2723 420.605 74.3238 420.545 74.3831C420.519 74.4091 420.487 74.4401 420.458 74.4683C420.398 74.5265 420.337 74.5863 420.268 74.6528C420.236 74.6843 420.199 74.7192 420.165 74.7519C420.09 74.825 420.012 74.8998 419.927 74.9806C419.893 75.0133 419.857 75.0476 419.822 75.082C419.73 75.1689 419.635 75.2592 419.534 75.3556C419.491 75.3966 419.446 75.4392 419.401 75.4824C419.297 75.581 419.187 75.684 419.073 75.7914C419.031 75.8319 418.987 75.8734 418.943 75.9149C418.816 76.034 418.684 76.1581 418.546 76.2877C418.503 76.3281 418.461 76.3674 418.417 76.4089C418.265 76.5513 418.107 76.7003 417.942 76.8537C417.909 76.8847 417.877 76.9146 417.844 76.9456C417.656 77.1217 417.459 77.305 417.255 77.495C417.239 77.5099 417.224 77.5238 417.208 77.5387C415.62 79.018 413.55 80.9309 411.024 83.2542C410.976 83.298 410.928 83.3417 410.881 83.3855C410.57 83.6718 410.252 83.9642 409.926 84.2627L409.755 84.42C409.441 84.7086 409.12 85.0032 408.794 85.3023C408.714 85.3754 408.636 85.4479 408.555 85.5216C408.24 85.8101 407.919 86.1053 407.593 86.4038C407.503 86.4869 407.414 86.5683 407.323 86.6519C407.052 86.8995 406.775 87.1543 406.497 87.4085C406.322 87.5691 406.149 87.728 405.97 87.8914C405.746 88.0969 405.515 88.3084 405.286 88.5183C405.085 88.7011 404.889 88.8816 404.685 89.0677C404.364 89.3624 404.034 89.6642 403.703 89.9671C403.582 90.0768 403.466 90.1837 403.344 90.295C403.179 90.4456 403.008 90.6024 402.841 90.7552C401.415 92.0589 399.908 93.4363 398.328 94.8779C397.643 95.5043 396.947 96.1378 396.233 96.7897C396.191 96.8279 396.15 96.865 396.109 96.9027C394.579 98.2983 392.984 99.7521 391.325 101.263C393.064 97.5739 394.964 93.9364 397.006 90.3936ZM441.937 281.452C437.523 285.599 433.448 290.091 429.757 294.888L417.961 243.304L410.759 191.75L408.014 182.214C411.314 181.67 414.734 181.011 418.065 180.363C418.992 180.182 419.92 180.002 420.848 179.823L441.937 281.452ZM403.371 366.196L432.222 318.277L434.312 314.806L436.334 311.447C437.603 309.339 438.941 307.276 440.342 305.259C440.897 304.459 441.472 303.671 442.048 302.886C451.683 289.754 464.105 278.728 478.443 270.682C491.611 263.291 506.147 258.555 521.118 256.695H521.118C521.848 256.604 522.579 256.513 523.312 256.436L521.06 250.438L520.19 247.581L490.694 167.624C487.852 160.05 489.849 151.484 495.788 145.796L495.88 145.707C522.115 120.489 525.114 81.4801 502.564 58.7478C489.818 45.899 471.295 40.4854 451.743 43.8903C437.927 46.2967 425.059 52.8656 414.487 62.8848L414.473 62.8854L414.102 63.2415C414.097 63.2465 414.091 63.2515 414.086 63.2565L411.465 65.7764L411.588 65.7714C409.822 67.6228 408.057 69.631 406.314 71.782L405.832 72.3813C405.825 72.389 405.82 72.3962 405.813 72.404L404.292 74.308L404.322 74.3119C400.887 78.8007 397.61 83.7397 394.56 89.0265C391.406 94.4977 388.584 100.193 386.17 105.957C378.958 112.52 373.506 117.466 373.506 117.467L371.066 119.68L373.101 119.794C372.433 120.494 371.876 121.285 371.454 122.141L368.331 113.311L367.002 113.766C362.946 115.156 360.444 118.982 360.593 123.003C356.212 125.02 353.996 130.027 355.621 134.62L355.738 134.95C351.613 137.077 349.567 141.915 351.143 146.37L367.853 193.618C370.391 200.792 371.678 208.282 371.678 215.88C371.678 229.476 377.414 242.651 387.415 252.028L389.266 253.763L392.652 287.526L365.92 279.213C348.674 273.85 333.91 263.426 323.219 249.067C312.53 234.708 306.88 217.709 306.88 199.907V199.809C306.88 173.93 310.869 148.735 318.731 124.844C319.037 124.904 319.342 124.938 319.646 124.938C325.472 124.938 330.989 114.329 333.379 103.701C335.91 92.4519 335.256 79.7682 329.06 78.4174C328.908 78.3847 328.756 78.3654 328.604 78.3471C328.642 77.2439 328.667 76.1506 328.667 75.0773C328.667 33.9453 300.969 0.482056 266.923 0.482056C232.88 0.482056 205.182 33.9453 205.182 75.0773C205.182 76.1506 205.207 77.2439 205.244 78.3471C205.093 78.3654 204.94 78.3847 204.789 78.418C198.593 79.7682 197.939 92.4519 200.47 103.701C202.766 113.911 207.947 124.096 213.516 124.883V170.142C210.301 170.787 207.874 173.589 207.874 176.941C207.874 180.766 211.036 183.878 214.923 183.878C218.808 183.878 221.97 180.766 221.97 176.941C221.97 173.589 219.543 170.787 216.329 170.142V128.656C223.385 151.408 226.969 175.301 226.969 199.809V199.908C226.969 217.709 221.318 234.708 210.629 249.067C199.939 263.426 185.173 273.85 167.929 279.213L52.3079 315.167C37.0289 319.918 23.9476 329.153 14.4772 341.875C5.00692 354.597 0 369.657 0 385.429V386.814L373.873 386.16H391.352L392.626 384.045L400.948 370.222L403.371 366.196ZM439.951 339.465L450.997 321.119C453.155 317.533 455.521 314.085 458.057 310.768C458.657 309.982 459.263 309.202 459.884 308.432C469.016 297.11 480.295 287.543 493.105 280.354C503.208 274.684 514.115 270.573 525.406 268.125C525.407 268.125 525.407 268.125 525.408 268.125C526.115 267.971 526.823 267.824 527.533 267.684L525.225 261.536C524.49 261.605 523.756 261.687 523.023 261.77C523.022 261.77 523.022 261.77 523.022 261.77C508.311 263.432 494.011 268.005 481.091 275.256C467.934 282.64 456.47 292.656 447.436 304.562C446.844 305.34 446.266 306.129 445.696 306.924C444.019 309.263 442.423 311.661 440.935 314.131L436.024 322.29L433.934 325.761L404.259 375.048L401.836 379.074L398.843 384.044L397.569 386.16H402.547H411.837L413.111 384.044L437.861 342.936L439.951 339.465ZM566.487 371.472L561.847 359.106C561.279 359.645 560.728 360.2 560.172 360.751C553.804 367.063 548.209 374.136 543.574 381.835L540.969 386.16H555.293C558.184 381.648 561.39 377.351 564.881 373.299C565.411 372.684 565.945 372.075 566.487 371.472ZM558.139 355.334C558.701 354.8 559.256 354.258 559.83 353.735L555.525 342.268C554.932 342.728 554.345 343.197 553.761 343.67C545.238 350.561 537.781 358.696 531.69 367.792C530.959 368.884 530.253 369.992 529.561 371.111C529.344 371.462 529.124 371.81 528.911 372.163L521.757 384.045L520.483 386.16H533.848H534.752L538.973 379.151C544.255 370.375 550.726 362.375 558.139 355.334Z" fill="white"/>
</svg>
