<svg width="66" height="95" viewBox="0 0 66 95" fill="none" xmlns="http://www.w3.org/2000/svg">
<path fill-rule="evenodd" clip-rule="evenodd" d="M60.6059 64.352C58.7369 70.9304 54.2993 76.695 48.7356 79.7723C44.5885 82.0661 40.0956 82.6867 36.0847 81.5192C34.7874 81.1417 33.5602 80.5893 32.4165 79.8784L40.469 56.7692C40.877 56.52 41.238 56.2388 41.5367 55.9202C43.7162 53.5971 44.4172 50.422 43.6817 47.5495L58.668 4.5413C57.8949 11.9555 59.203 19.12 60.5773 26.6381C62.6452 37.9508 64.7836 49.6487 60.6059 64.352ZM26.8014 93.7782L25.5581 79.9681L25.5763 79.9535L25.5543 79.9261L24.814 71.7032C26.3719 75.3619 28.6857 78.2588 31.5396 80.1808L26.8014 93.7782ZM24.6155 53.8753C25.2278 51.7735 25.9222 49.7938 26.685 47.9182C26.0375 51.7584 26.5922 56.4921 26.797 57.9743L23.8647 61.1571L23.6597 58.8808C23.8216 57.1919 24.1392 55.5109 24.6155 53.8753ZM23.9527 62.1362L27.1317 58.6861L26.5974 58.1945L26.7973 57.9772L33.2492 50.9713L33.54 50.6554L33.5401 50.6556L33.8081 50.902L34.0762 51.1487L27.3259 58.4788C29.1059 58.6096 35.6421 58.9487 39.5285 57.2541L31.7886 79.466C29.04 77.5637 26.8202 74.7034 25.3473 71.0926C25.0443 70.3504 24.7805 69.5862 24.5532 68.806L23.9527 62.1362ZM44.7019 22.2928C49.362 17.2646 53.8264 12.4461 57.1466 6.69347L43.3071 46.4101C42.8342 45.2425 42.1089 44.1556 41.1293 43.2373C37.6419 39.968 32.2348 40.0225 28.8124 43.2728C33.1854 34.7197 39.0138 28.4297 44.7019 22.2928ZM12.9136 71.3821C8.79223 70.8534 5.97123 69.7806 4.75575 68.2802C1.76749 64.591 2.33894 59.1594 6.02995 56.1723C7.62163 54.8841 9.53693 54.2579 11.4411 54.2579C13.9522 54.2579 16.4432 55.3477 18.1427 57.4459C20.6885 60.5888 19.203 68.9533 18.7089 71.3527L12.6665 63.7849L12.0971 64.2393L18.0751 71.7264C17.0055 71.7157 15.0382 71.6547 12.9136 71.3821ZM12.8745 10.2353C12.6393 8.78978 12.9814 7.33931 13.8376 6.151C14.6939 4.96269 15.962 4.17884 17.4079 3.94377C17.7059 3.89527 18.0039 3.87138 18.3 3.87138C19.4408 3.87138 20.5501 4.22704 21.4938 4.90662C22.6828 5.76257 23.467 7.02996 23.7021 8.47548C24.0872 10.8431 21.0783 14.6454 19.8103 16.124L19.2928 10.3748L18.567 10.4399L19.0965 16.3212C17.4996 15.3743 13.2683 12.6574 12.8745 10.2353ZM25.9407 15.7227C26.797 14.5344 28.0649 13.7505 29.5111 13.5156C29.8089 13.4671 30.107 13.4432 30.4029 13.4432C31.5438 13.4432 32.653 13.7988 33.5971 14.4783C34.7859 15.3343 35.5701 16.6018 35.8052 18.0472C36.0403 19.4927 35.6984 20.9432 34.8421 22.1315C33.3594 24.1888 28.0626 24.6993 26.3777 24.811L28.9938 19.9598L28.3527 19.6142L25.9481 24.0729C25.4584 22.0533 24.592 17.5945 25.9407 15.7227ZM61.2941 26.5072C59.6881 17.7224 58.1713 9.42476 60.0023 0.702878C60.0414 0.517037 59.9309 0.332506 59.7486 0.278763C59.5666 0.224584 59.3734 0.320563 59.3056 0.498103C56.0749 8.94996 50.291 15.1908 44.1674 21.7978C36.3043 30.2817 28.1737 39.0544 23.916 53.6717C23.7096 54.3804 23.533 55.0975 23.3841 55.8201L21.4202 34.0039L25.9716 25.564C26.873 25.5263 33.5573 25.1604 35.4331 22.557C36.4032 21.211 36.7908 19.5678 36.5243 17.9304C36.258 16.2929 35.3696 14.8571 34.0229 13.8876C32.6763 12.9179 31.0328 12.5308 29.3941 12.7969C27.7561 13.0631 26.3197 13.9509 25.3496 15.2973C23.5803 17.7527 25.0549 23.6322 25.4378 25.0194L21.3018 32.689L19.9005 17.1254C20.6476 16.307 24.9259 11.4614 24.4212 8.3585C24.1548 6.72103 23.2663 5.28513 21.9197 4.31557C20.573 3.34617 18.9294 2.95919 17.2911 3.22499C15.6528 3.49123 14.2164 4.37922 13.2465 5.72541C12.2765 7.07145 11.8889 8.7146 12.1554 10.3521C12.6526 13.4088 18.0891 16.6001 19.1767 17.2104L20.1746 28.295L19.1338 27.3369L18.6412 27.8717L18.4205 27.6687L15.2302 24.7334L14.9072 24.4361L15.154 24.1681L15.4007 23.9002L18.9224 27.1404C19.006 25.7698 19.1171 21.7286 17.6395 20.3437C15.8492 18.6654 13.0366 18.7557 11.358 20.5453C9.67887 22.3348 9.76921 25.146 11.5596 26.8243C13.034 28.2063 17.0478 27.841 18.4191 27.6688L20.2718 29.3743L21.8144 46.5086L16.7766 43.4419L16.3988 44.0625L16.1441 43.9076L11.1986 40.8987L11.0357 40.7995L11.2251 40.4884L11.4145 40.1775L16.5326 43.2913C16.324 41.7213 15.4881 36.5978 13.3125 35.2464C10.7336 33.6443 7.34365 34.4355 5.7409 37.0134C4.13814 39.5913 4.92961 42.9798 7.50874 44.5817C9.68018 45.9308 14.632 44.4195 16.1422 43.9083L21.8954 47.4107L22.9284 58.8845C22.6101 62.3047 22.916 65.7552 23.8338 68.9407L24.7298 78.8934L19.296 72.0879C19.4076 71.5975 19.9677 69.04 20.2069 66.1268C20.5679 61.7349 20.0639 58.6603 18.7091 56.9877C15.4679 52.9863 9.5744 52.3671 5.57144 55.6062C1.56833 58.8461 0.94865 64.7371 4.18957 68.7384C5.54448 70.4109 8.44839 71.5435 12.8209 72.1045C15.2694 72.4185 17.518 72.4565 18.4618 72.4565C18.5351 72.4565 18.6005 72.4564 18.6578 72.4559L24.8482 80.2093L26.1143 94.2716H6.70372V94.9999H48.4178V94.2716H27.401L32.1711 80.5827C33.3306 81.2865 34.5712 81.8373 35.881 82.2184C37.2718 82.6232 38.7159 82.8233 40.183 82.8233C43.1455 82.8233 46.2005 82.0068 49.0882 80.4096C54.8182 77.2403 59.3859 71.3119 61.3069 64.5508C65.5307 49.6847 63.3769 37.9019 61.2941 26.5072Z" fill="white"/>
</svg>
